<ttFont>
<head>
    <!-- Most of this table will be recalculated by the compiler -->
    <tableVersion value="1.0"/>
    <fontRevision value="5.0"/>
    <checkSumAdjustment value="0x2b78b538"/>
    <magicNumber value="0x5f0f3cf5"/>
    <flags value="00000000 00001011"/>
    <unitsPerEm value="2048"/>
    <created value="Sun May 15 08:57:39 2005"/>
    <modified value="Thu Apr 14 12:38:28 2011"/>
    <xMin value="-45"/>
    <yMin value="-1070"/>
    <xMax value="7120"/>
    <yMax value="2327"/>
    <macStyle value="00000000 00000000"/>
    <lowestRecPPEM value="8"/>
    <fontDirectionHint value="2"/>
    <indexToLocFormat value="1"/>
    <glyphDataFormat value="0"/>
  </head>
    <TTGlyph name=".notdef" xMin="142" yMin="226" xMax="842" yMax="1588">
      <contour>
        <pt x="142" y="226" on="1"/>
        <pt x="142" y="1588" on="1"/>
        <pt x="842" y="1588" on="1"/>
        <pt x="842" y="226" on="1"/>
      </contour>
      <contour>
        <pt x="284" y="368" on="1"/>
        <pt x="700" y="368" on="1"/>
        <pt x="700" y="1447" on="1"/>
        <pt x="284" y="1447" on="1"/>
      </contour>
    </TTGlyph>
    <TTGlyph name=".null" xMin="142" yMin="226" xMax="842" yMax="1588">
      <contour>
        <pt x="142" y="226" on="1"/>
        <pt x="142" y="1588" on="1"/>
        <pt x="842" y="1588" on="1"/>
        <pt x="842" y="226" on="1"/>
      </contour>
      <contour>
        <pt x="284" y="368" on="1"/>
        <pt x="700" y="368" on="1"/>
        <pt x="700" y="1447" on="1"/>
        <pt x="284" y="1447" on="1"/>
      </contour>
    </TTGlyph>
    <TTGlyph name="afii57381" xMin="142" yMin="226" xMax="842" yMax="1588">
      <contour>
        <pt x="142" y="226" on="1"/>
        <pt x="142" y="1588" on="1"/>
        <pt x="842" y="1588" on="1"/>
        <pt x="842" y="226" on="1"/>
      </contour>
      <contour>
        <pt x="284" y="368" on="1"/>
        <pt x="700" y="368" on="1"/>
        <pt x="700" y="1447" on="1"/>
        <pt x="284" y="1447" on="1"/>
      </contour>
    </TTGlyph>
    <TTGlyph name="afii57388" xMin="142" yMin="226" xMax="842" yMax="1588">
      <contour>
        <pt x="142" y="226" on="1"/>
        <pt x="142" y="1588" on="1"/>
        <pt x="842" y="1588" on="1"/>
        <pt x="842" y="226" on="1"/>
      </contour>
      <contour>
        <pt x="284" y="368" on="1"/>
        <pt x="700" y="368" on="1"/>
        <pt x="700" y="1447" on="1"/>
        <pt x="284" y="1447" on="1"/>
      </contour>
    </TTGlyph>
    <TTGlyph name="afii57396" xMin="142" yMin="226" xMax="842" yMax="1588">
      <contour>
        <pt x="142" y="226" on="1"/>
        <pt x="142" y="1588" on="1"/>
        <pt x="842" y="1588" on="1"/>
        <pt x="842" y="226" on="1"/>
      </contour>
      <contour>
        <pt x="284" y="368" on="1"/>
        <pt x="700" y="368" on="1"/>
        <pt x="700" y="1447" on="1"/>
        <pt x="284" y="1447" on="1"/>
      </contour>
    </TTGlyph>
    <TTGlyph name="afii57397" xMin="142" yMin="226" xMax="842" yMax="1588">
      <contour>
        <pt x="142" y="226" on="1"/>
        <pt x="142" y="1588" on="1"/>
        <pt x="842" y="1588" on="1"/>
        <pt x="842" y="226" on="1"/>
      </contour>
      <contour>
        <pt x="284" y="368" on="1"/>
        <pt x="700" y="368" on="1"/>
        <pt x="700" y="1447" on="1"/>
        <pt x="284" y="1447" on="1"/>
      </contour>
    </TTGlyph>
    <TTGlyph name="afii57398" xMin="142" yMin="226" xMax="842" yMax="1588">
      <contour>
        <pt x="142" y="226" on="1"/>
        <pt x="142" y="1588" on="1"/>
        <pt x="842" y="1588" on="1"/>
        <pt x="842" y="226" on="1"/>
      </contour>
      <contour>
        <pt x="284" y="368" on="1"/>
        <pt x="700" y="368" on="1"/>
        <pt x="700" y="1447" on="1"/>
        <pt x="284" y="1447" on="1"/>
      </contour>
    </TTGlyph>
    <TTGlyph name="afii57403" xMin="142" yMin="226" xMax="842" yMax="1588">
      <contour>
        <pt x="142" y="226" on="1"/>
        <pt x="142" y="1588" on="1"/>
        <pt x="842" y="1588" on="1"/>
        <pt x="842" y="226" on="1"/>
      </contour>
      <contour>
        <pt x="284" y="368" on="1"/>
        <pt x="700" y="368" on="1"/>
        <pt x="700" y="1447" on="1"/>
        <pt x="284" y="1447" on="1"/>
      </contour>
    </TTGlyph>
    <TTGlyph name="afii57407" xMin="142" yMin="226" xMax="842" yMax="1588">
      <contour>
        <pt x="142" y="226" on="1"/>
        <pt x="142" y="1588" on="1"/>
        <pt x="842" y="1588" on="1"/>
        <pt x="842" y="226" on="1"/>
      </contour>
      <contour>
        <pt x="284" y="368" on="1"/>
        <pt x="700" y="368" on="1"/>
        <pt x="700" y="1447" on="1"/>
        <pt x="284" y="1447" on="1"/>
      </contour>
    </TTGlyph>
    <TTGlyph name="afii57440" xMin="142" yMin="226" xMax="842" yMax="1588">
      <contour>
        <pt x="142" y="226" on="1"/>
        <pt x="142" y="1588" on="1"/>
        <pt x="842" y="1588" on="1"/>
        <pt x="842" y="226" on="1"/>
      </contour>
      <contour>
        <pt x="284" y="368" on="1"/>
        <pt x="700" y="368" on="1"/>
        <pt x="700" y="1447" on="1"/>
        <pt x="284" y="1447" on="1"/>
      </contour>
    </TTGlyph>
    <TTGlyph name="afii57451" xMin="142" yMin="226" xMax="842" yMax="1588">
      <contour>
        <pt x="142" y="226" on="1"/>
        <pt x="142" y="1588" on="1"/>
        <pt x="842" y="1588" on="1"/>
        <pt x="842" y="226" on="1"/>
      </contour>
      <contour>
        <pt x="284" y="368" on="1"/>
        <pt x="700" y="368" on="1"/>
        <pt x="700" y="1447" on="1"/>
        <pt x="284" y="1447" on="1"/>
      </contour>
    </TTGlyph>
    <TTGlyph name="afii57452" xMin="142" yMin="226" xMax="842" yMax="1588">
      <contour>
        <pt x="142" y="226" on="1"/>
        <pt x="142" y="1588" on="1"/>
        <pt x="842" y="1588" on="1"/>
        <pt x="842" y="226" on="1"/>
      </contour>
      <contour>
        <pt x="284" y="368" on="1"/>
        <pt x="700" y="368" on="1"/>
        <pt x="700" y="1447" on="1"/>
        <pt x="284" y="1447" on="1"/>
      </contour>
    </TTGlyph>
    <TTGlyph name="afii57453" xMin="142" yMin="226" xMax="842" yMax="1588">
      <contour>
        <pt x="142" y="226" on="1"/>
        <pt x="142" y="1588" on="1"/>
        <pt x="842" y="1588" on="1"/>
        <pt x="842" y="226" on="1"/>
      </contour>
      <contour>
        <pt x="284" y="368" on="1"/>
        <pt x="700" y="368" on="1"/>
        <pt x="700" y="1447" on="1"/>
        <pt x="284" y="1447" on="1"/>
      </contour>
    </TTGlyph>
    <TTGlyph name="afii57454" xMin="142" yMin="226" xMax="842" yMax="1588">
      <contour>
        <pt x="142" y="226" on="1"/>
        <pt x="142" y="1588" on="1"/>
        <pt x="842" y="1588" on="1"/>
        <pt x="842" y="226" on="1"/>
      </contour>
      <contour>
        <pt x="284" y="368" on="1"/>
        <pt x="700" y="368" on="1"/>
        <pt x="700" y="1447" on="1"/>
        <pt x="284" y="1447" on="1"/>
      </contour>
    </TTGlyph>
    <TTGlyph name="afii57455" xMin="142" yMin="226" xMax="842" yMax="1588">
      <contour>
        <pt x="142" y="226" on="1"/>
        <pt x="142" y="1588" on="1"/>
        <pt x="842" y="1588" on="1"/>
        <pt x="842" y="226" on="1"/>
      </contour>
      <contour>
        <pt x="284" y="368" on="1"/>
        <pt x="700" y="368" on="1"/>
        <pt x="700" y="1447" on="1"/>
        <pt x="284" y="1447" on="1"/>
      </contour>
    </TTGlyph>
    <TTGlyph name="afii57456" xMin="142" yMin="226" xMax="842" yMax="1588">
      <contour>
        <pt x="142" y="226" on="1"/>
        <pt x="142" y="1588" on="1"/>
        <pt x="842" y="1588" on="1"/>
        <pt x="842" y="226" on="1"/>
      </contour>
      <contour>
        <pt x="284" y="368" on="1"/>
        <pt x="700" y="368" on="1"/>
        <pt x="700" y="1447" on="1"/>
        <pt x="284" y="1447" on="1"/>
      </contour>
    </TTGlyph>
    <TTGlyph name="afii57457" xMin="142" yMin="226" xMax="842" yMax="1588">
      <contour>
        <pt x="142" y="226" on="1"/>
        <pt x="142" y="1588" on="1"/>
        <pt x="842" y="1588" on="1"/>
        <pt x="842" y="226" on="1"/>
      </contour>
      <contour>
        <pt x="284" y="368" on="1"/>
        <pt x="700" y="368" on="1"/>
        <pt x="700" y="1447" on="1"/>
        <pt x="284" y="1447" on="1"/>
      </contour>
    </TTGlyph>
    <TTGlyph name="afii57458" xMin="142" yMin="226" xMax="842" yMax="1588">
      <contour>
        <pt x="142" y="226" on="1"/>
        <pt x="142" y="1588" on="1"/>
        <pt x="842" y="1588" on="1"/>
        <pt x="842" y="226" on="1"/>
      </contour>
      <contour>
        <pt x="284" y="368" on="1"/>
        <pt x="700" y="368" on="1"/>
        <pt x="700" y="1447" on="1"/>
        <pt x="284" y="1447" on="1"/>
      </contour>
    </TTGlyph>
    <TTGlyph name="afii57505" xMin="142" yMin="226" xMax="842" yMax="1588">
      <contour>
        <pt x="142" y="226" on="1"/>
        <pt x="142" y="1588" on="1"/>
        <pt x="842" y="1588" on="1"/>
        <pt x="842" y="226" on="1"/>
      </contour>
      <contour>
        <pt x="284" y="368" on="1"/>
        <pt x="700" y="368" on="1"/>
        <pt x="700" y="1447" on="1"/>
        <pt x="284" y="1447" on="1"/>
      </contour>
    </TTGlyph>
    <TTGlyph name="afii57506" xMin="142" yMin="226" xMax="842" yMax="1588">
      <contour>
        <pt x="142" y="226" on="1"/>
        <pt x="142" y="1588" on="1"/>
        <pt x="842" y="1588" on="1"/>
        <pt x="842" y="226" on="1"/>
      </contour>
      <contour>
        <pt x="284" y="368" on="1"/>
        <pt x="700" y="368" on="1"/>
        <pt x="700" y="1447" on="1"/>
        <pt x="284" y="1447" on="1"/>
      </contour>
    </TTGlyph>
    <TTGlyph name="afii57507" xMin="142" yMin="226" xMax="842" yMax="1588">
      <contour>
        <pt x="142" y="226" on="1"/>
        <pt x="142" y="1588" on="1"/>
        <pt x="842" y="1588" on="1"/>
        <pt x="842" y="226" on="1"/>
      </contour>
      <contour>
        <pt x="284" y="368" on="1"/>
        <pt x="700" y="368" on="1"/>
        <pt x="700" y="1447" on="1"/>
        <pt x="284" y="1447" on="1"/>
      </contour>
    </TTGlyph>
    <TTGlyph name="afii57508" xMin="142" yMin="226" xMax="842" yMax="1588">
      <contour>
        <pt x="142" y="226" on="1"/>
        <pt x="142" y="1588" on="1"/>
        <pt x="842" y="1588" on="1"/>
        <pt x="842" y="226" on="1"/>
      </contour>
      <contour>
        <pt x="284" y="368" on="1"/>
        <pt x="700" y="368" on="1"/>
        <pt x="700" y="1447" on="1"/>
        <pt x="284" y="1447" on="1"/>
      </contour>
    </TTGlyph>
    <TTGlyph name="afii57509" xMin="142" yMin="226" xMax="842" yMax="1588">
      <contour>
        <pt x="142" y="226" on="1"/>
        <pt x="142" y="1588" on="1"/>
        <pt x="842" y="1588" on="1"/>
        <pt x="842" y="226" on="1"/>
      </contour>
      <contour>
        <pt x="284" y="368" on="1"/>
        <pt x="700" y="368" on="1"/>
        <pt x="700" y="1447" on="1"/>
        <pt x="284" y="1447" on="1"/>
      </contour>
    </TTGlyph>
    <TTGlyph name="afii57511" xMin="142" yMin="226" xMax="842" yMax="1588">
      <contour>
        <pt x="142" y="226" on="1"/>
        <pt x="142" y="1588" on="1"/>
        <pt x="842" y="1588" on="1"/>
        <pt x="842" y="226" on="1"/>
      </contour>
      <contour>
        <pt x="284" y="368" on="1"/>
        <pt x="700" y="368" on="1"/>
        <pt x="700" y="1447" on="1"/>
        <pt x="284" y="1447" on="1"/>
      </contour>
    </TTGlyph>
    <TTGlyph name="afii57512" xMin="142" yMin="226" xMax="842" yMax="1588">
      <contour>
        <pt x="142" y="226" on="1"/>
        <pt x="142" y="1588" on="1"/>
        <pt x="842" y="1588" on="1"/>
        <pt x="842" y="226" on="1"/>
      </contour>
      <contour>
        <pt x="284" y="368" on="1"/>
        <pt x="700" y="368" on="1"/>
        <pt x="700" y="1447" on="1"/>
        <pt x="284" y="1447" on="1"/>
      </contour>
    </TTGlyph>
    <TTGlyph name="afii57513" xMin="142" yMin="226" xMax="842" yMax="1588">
      <contour>
        <pt x="142" y="226" on="1"/>
        <pt x="142" y="1588" on="1"/>
        <pt x="842" y="1588" on="1"/>
        <pt x="842" y="226" on="1"/>
      </contour>
      <contour>
        <pt x="284" y="368" on="1"/>
        <pt x="700" y="368" on="1"/>
        <pt x="700" y="1447" on="1"/>
        <pt x="284" y="1447" on="1"/>
      </contour>
    </TTGlyph>
    <TTGlyph name="afii57514" xMin="142" yMin="226" xMax="842" yMax="1588">
      <contour>
        <pt x="142" y="226" on="1"/>
        <pt x="142" y="1588" on="1"/>
        <pt x="842" y="1588" on="1"/>
        <pt x="842" y="226" on="1"/>
      </contour>
      <contour>
        <pt x="284" y="368" on="1"/>
        <pt x="700" y="368" on="1"/>
        <pt x="700" y="1447" on="1"/>
        <pt x="284" y="1447" on="1"/>
      </contour>
    </TTGlyph>
    <TTGlyph name="afii57519" xMin="142" yMin="226" xMax="842" yMax="1588">
      <contour>
        <pt x="142" y="226" on="1"/>
        <pt x="142" y="1588" on="1"/>
        <pt x="842" y="1588" on="1"/>
        <pt x="842" y="226" on="1"/>
      </contour>
      <contour>
        <pt x="284" y="368" on="1"/>
        <pt x="700" y="368" on="1"/>
        <pt x="700" y="1447" on="1"/>
        <pt x="284" y="1447" on="1"/>
      </contour>
    </TTGlyph>
    <TTGlyph name="afii57534" xMin="142" yMin="226" xMax="842" yMax="1588">
      <contour>
        <pt x="142" y="226" on="1"/>
        <pt x="142" y="1588" on="1"/>
        <pt x="842" y="1588" on="1"/>
        <pt x="842" y="226" on="1"/>
      </contour>
      <contour>
        <pt x="284" y="368" on="1"/>
        <pt x="700" y="368" on="1"/>
        <pt x="700" y="1447" on="1"/>
        <pt x="284" y="1447" on="1"/>
      </contour>
    </TTGlyph>
    <TTGlyph name="afii63167" xMin="142" yMin="226" xMax="842" yMax="1588">
      <contour>
        <pt x="142" y="226" on="1"/>
        <pt x="142" y="1588" on="1"/>
        <pt x="842" y="1588" on="1"/>
        <pt x="842" y="226" on="1"/>
      </contour>
      <contour>
        <pt x="284" y="368" on="1"/>
        <pt x="700" y="368" on="1"/>
        <pt x="700" y="1447" on="1"/>
        <pt x="284" y="1447" on="1"/>
      </contour>
    </TTGlyph>
    <TTGlyph name="alefmaksurainitial" xMin="142" yMin="226" xMax="842" yMax="1588">
      <contour>
        <pt x="142" y="226" on="1"/>
        <pt x="142" y="1588" on="1"/>
        <pt x="842" y="1588" on="1"/>
        <pt x="842" y="226" on="1"/>
      </contour>
      <contour>
        <pt x="284" y="368" on="1"/>
        <pt x="700" y="368" on="1"/>
        <pt x="700" y="1447" on="1"/>
        <pt x="284" y="1447" on="1"/>
      </contour>
    </TTGlyph>
    <TTGlyph name="alefwaslafinalarabic" xMin="142" yMin="226" xMax="842" yMax="1588">
      <contour>
        <pt x="142" y="226" on="1"/>
        <pt x="142" y="1588" on="1"/>
        <pt x="842" y="1588" on="1"/>
        <pt x="842" y="226" on="1"/>
      </contour>
      <contour>
        <pt x="284" y="368" on="1"/>
        <pt x="700" y="368" on="1"/>
        <pt x="700" y="1447" on="1"/>
        <pt x="284" y="1447" on="1"/>
      </contour>
    </TTGlyph>
    <TTGlyph name="ampersand" xMin="142" yMin="226" xMax="842" yMax="1588">
      <contour>
        <pt x="142" y="226" on="1"/>
        <pt x="142" y="1588" on="1"/>
        <pt x="842" y="1588" on="1"/>
        <pt x="842" y="226" on="1"/>
      </contour>
      <contour>
        <pt x="284" y="368" on="1"/>
        <pt x="700" y="368" on="1"/>
        <pt x="700" y="1447" on="1"/>
        <pt x="284" y="1447" on="1"/>
      </contour>
    </TTGlyph>
    <TTGlyph name="asterisk" xMin="142" yMin="226" xMax="842" yMax="1588">
      <contour>
        <pt x="142" y="226" on="1"/>
        <pt x="142" y="1588" on="1"/>
        <pt x="842" y="1588" on="1"/>
        <pt x="842" y="226" on="1"/>
      </contour>
      <contour>
        <pt x="284" y="368" on="1"/>
        <pt x="700" y="368" on="1"/>
        <pt x="700" y="1447" on="1"/>
        <pt x="284" y="1447" on="1"/>
      </contour>
    </TTGlyph>
    <TTGlyph name="behmeemisolatedarabic" xMin="142" yMin="226" xMax="842" yMax="1588">
      <contour>
        <pt x="142" y="226" on="1"/>
        <pt x="142" y="1588" on="1"/>
        <pt x="842" y="1588" on="1"/>
        <pt x="842" y="226" on="1"/>
      </contour>
      <contour>
        <pt x="284" y="368" on="1"/>
        <pt x="700" y="368" on="1"/>
        <pt x="700" y="1447" on="1"/>
        <pt x="284" y="1447" on="1"/>
      </contour>
    </TTGlyph>
    <TTGlyph name="behnoonfinalarabic" xMin="142" yMin="226" xMax="842" yMax="1588">
      <contour>
        <pt x="142" y="226" on="1"/>
        <pt x="142" y="1588" on="1"/>
        <pt x="842" y="1588" on="1"/>
        <pt x="842" y="226" on="1"/>
      </contour>
      <contour>
        <pt x="284" y="368" on="1"/>
        <pt x="700" y="368" on="1"/>
        <pt x="700" y="1447" on="1"/>
        <pt x="284" y="1447" on="1"/>
      </contour>
    </TTGlyph>
    <TTGlyph name="colon" xMin="142" yMin="226" xMax="842" yMax="1588">
      <contour>
        <pt x="142" y="226" on="1"/>
        <pt x="142" y="1588" on="1"/>
        <pt x="842" y="1588" on="1"/>
        <pt x="842" y="226" on="1"/>
      </contour>
      <contour>
        <pt x="284" y="368" on="1"/>
        <pt x="700" y="368" on="1"/>
        <pt x="700" y="1447" on="1"/>
        <pt x="284" y="1447" on="1"/>
      </contour>
    </TTGlyph>
    <TTGlyph name="dagger" xMin="142" yMin="226" xMax="842" yMax="1588">
      <contour>
        <pt x="142" y="226" on="1"/>
        <pt x="142" y="1588" on="1"/>
        <pt x="842" y="1588" on="1"/>
        <pt x="842" y="226" on="1"/>
      </contour>
      <contour>
        <pt x="284" y="368" on="1"/>
        <pt x="700" y="368" on="1"/>
        <pt x="700" y="1447" on="1"/>
        <pt x="284" y="1447" on="1"/>
      </contour>
    </TTGlyph>
    <TTGlyph name="dalringfinal" xMin="142" yMin="226" xMax="842" yMax="1588">
      <contour>
        <pt x="142" y="226" on="1"/>
        <pt x="142" y="1588" on="1"/>
        <pt x="842" y="1588" on="1"/>
        <pt x="842" y="226" on="1"/>
      </contour>
      <contour>
        <pt x="284" y="368" on="1"/>
        <pt x="700" y="368" on="1"/>
        <pt x="700" y="1447" on="1"/>
        <pt x="284" y="1447" on="1"/>
      </contour>
    </TTGlyph>
    <TTGlyph name="ddalfinalarabic" xMin="142" yMin="226" xMax="842" yMax="1588">
      <contour>
        <pt x="142" y="226" on="1"/>
        <pt x="142" y="1588" on="1"/>
        <pt x="842" y="1588" on="1"/>
        <pt x="842" y="226" on="1"/>
      </contour>
      <contour>
        <pt x="284" y="368" on="1"/>
        <pt x="700" y="368" on="1"/>
        <pt x="700" y="1447" on="1"/>
        <pt x="284" y="1447" on="1"/>
      </contour>
    </TTGlyph>
    <TTGlyph name="divide" xMin="142" yMin="226" xMax="842" yMax="1588">
      <contour>
        <pt x="142" y="226" on="1"/>
        <pt x="142" y="1588" on="1"/>
        <pt x="842" y="1588" on="1"/>
        <pt x="842" y="226" on="1"/>
      </contour>
      <contour>
        <pt x="284" y="368" on="1"/>
        <pt x="700" y="368" on="1"/>
        <pt x="700" y="1447" on="1"/>
        <pt x="284" y="1447" on="1"/>
      </contour>
    </TTGlyph>
    <TTGlyph name="dollar" xMin="142" yMin="226" xMax="842" yMax="1588">
      <contour>
        <pt x="142" y="226" on="1"/>
        <pt x="142" y="1588" on="1"/>
        <pt x="842" y="1588" on="1"/>
        <pt x="842" y="226" on="1"/>
      </contour>
      <contour>
        <pt x="284" y="368" on="1"/>
        <pt x="700" y="368" on="1"/>
        <pt x="700" y="1447" on="1"/>
        <pt x="284" y="1447" on="1"/>
      </contour>
    </TTGlyph>
    <TTGlyph name="dotlessyehfinalarabic" xMin="142" yMin="226" xMax="842" yMax="1588">
      <contour>
        <pt x="142" y="226" on="1"/>
        <pt x="142" y="1588" on="1"/>
        <pt x="842" y="1588" on="1"/>
        <pt x="842" y="226" on="1"/>
      </contour>
      <contour>
        <pt x="284" y="368" on="1"/>
        <pt x="700" y="368" on="1"/>
        <pt x="700" y="1447" on="1"/>
        <pt x="284" y="1447" on="1"/>
      </contour>
    </TTGlyph>
    <TTGlyph name="dotlessyehinitialarabic" xMin="142" yMin="226" xMax="842" yMax="1588">
      <contour>
        <pt x="142" y="226" on="1"/>
        <pt x="142" y="1588" on="1"/>
        <pt x="842" y="1588" on="1"/>
        <pt x="842" y="226" on="1"/>
      </contour>
      <contour>
        <pt x="284" y="368" on="1"/>
        <pt x="700" y="368" on="1"/>
        <pt x="700" y="1447" on="1"/>
        <pt x="284" y="1447" on="1"/>
      </contour>
    </TTGlyph>
    <TTGlyph name="dotlessyehmedialarabic" xMin="142" yMin="226" xMax="842" yMax="1588">
      <contour>
        <pt x="142" y="226" on="1"/>
        <pt x="142" y="1588" on="1"/>
        <pt x="842" y="1588" on="1"/>
        <pt x="842" y="226" on="1"/>
      </contour>
      <contour>
        <pt x="284" y="368" on="1"/>
        <pt x="700" y="368" on="1"/>
        <pt x="700" y="1447" on="1"/>
        <pt x="284" y="1447" on="1"/>
      </contour>
    </TTGlyph>
    <TTGlyph name="elefmaksuramedial" xMin="142" yMin="226" xMax="842" yMax="1588">
      <contour>
        <pt x="142" y="226" on="1"/>
        <pt x="142" y="1588" on="1"/>
        <pt x="842" y="1588" on="1"/>
        <pt x="842" y="226" on="1"/>
      </contour>
      <contour>
        <pt x="284" y="368" on="1"/>
        <pt x="700" y="368" on="1"/>
        <pt x="700" y="1447" on="1"/>
        <pt x="284" y="1447" on="1"/>
      </contour>
    </TTGlyph>
    <TTGlyph name="ellipsis" xMin="142" yMin="226" xMax="842" yMax="1588">
      <contour>
        <pt x="142" y="226" on="1"/>
        <pt x="142" y="1588" on="1"/>
        <pt x="842" y="1588" on="1"/>
        <pt x="842" y="226" on="1"/>
      </contour>
      <contour>
        <pt x="284" y="368" on="1"/>
        <pt x="700" y="368" on="1"/>
        <pt x="700" y="1447" on="1"/>
        <pt x="284" y="1447" on="1"/>
      </contour>
    </TTGlyph>
    <TTGlyph name="emdash" xMin="387" yMin="-381" xMax="2435" yMax="1729">
      <contour>
        <pt x="2417" y="1683" on="1"/>
        <pt x="2417" y="1638" on="0"/>
        <pt x="2222" y="1505" on="1"/>
        <pt x="2087" y="1414" on="0"/>
        <pt x="1952" y="1322" on="1"/>
        <pt x="1920" y="1322" on="1"/>
        <pt x="1920" y="1326" on="0"/>
        <pt x="1910" y="1343" on="0"/>
        <pt x="1910" y="1357" on="1"/>
        <pt x="1910" y="1428" on="0"/>
        <pt x="2000" y="1486" on="1"/>
        <pt x="2069" y="1527" on="0"/>
        <pt x="2138" y="1568" on="1"/>
        <pt x="2251" y="1660" on="0"/>
        <pt x="2395" y="1729" on="1"/>
        <pt x="2417" y="1705" on="0"/>
      </contour>
      <contour>
        <pt x="2435" y="189" on="1"/>
        <pt x="2435" y="75" on="0"/>
        <pt x="2396" y="27" on="1"/>
        <pt x="2364" y="27" on="1"/>
        <pt x="2343" y="168" on="0"/>
        <pt x="2305" y="438" on="1"/>
        <pt x="2274" y="628" on="0"/>
        <pt x="2229" y="1031" on="1"/>
        <pt x="2229" y="1033" on="0"/>
        <pt x="2254" y="1121" on="1"/>
        <pt x="2248" y="1128" on="0"/>
        <pt x="2236" y="1128" on="1"/>
        <pt x="2225" y="1128" on="0"/>
        <pt x="2186" y="1107" on="1"/>
        <pt x="2141" y="1082" on="0"/>
        <pt x="2122" y="1076" on="1"/>
        <pt x="2110" y="1089" on="0"/>
        <pt x="2101" y="1089" on="1"/>
        <pt x="2101" y="1091" on="0"/>
        <pt x="2104" y="1126" on="1"/>
        <pt x="2108" y="1154" on="0"/>
        <pt x="2105" y="1172" on="1"/>
        <pt x="2104" y="1180" on="0"/>
        <pt x="2096" y="1201" on="1"/>
        <pt x="2091" y="1219" on="0"/>
        <pt x="2091" y="1235" on="1"/>
        <pt x="2091" y="1287" on="0"/>
        <pt x="2156" y="1352" on="1"/>
        <pt x="2218" y="1413" on="0"/>
        <pt x="2254" y="1413" on="1"/>
        <pt x="2280" y="1413" on="0"/>
        <pt x="2305" y="1370" on="1"/>
        <pt x="2326" y="1334" on="0"/>
        <pt x="2326" y="1321" on="1"/>
        <pt x="2326" y="1307" on="0"/>
        <pt x="2316" y="1296" on="1"/>
        <pt x="2292" y="1270" on="0"/>
        <pt x="2289" y="1267" on="1"/>
        <pt x="2319" y="1258" on="0"/>
        <pt x="2425" y="1258" on="1"/>
        <pt x="2421" y="1214" on="0"/>
        <pt x="2370" y="1185" on="1"/>
        <pt x="2334" y="1168" on="0"/>
        <pt x="2299" y="1153" on="1"/>
        <pt x="2326" y="1070" on="0"/>
        <pt x="2345" y="939" on="1"/>
        <pt x="2361" y="827" on="0"/>
        <pt x="2395" y="603" on="0"/>
        <pt x="2416" y="398" on="1"/>
        <pt x="2435" y="217" on="0"/>
      </contour>
      <contour>
        <pt x="1774" y="1602" on="1"/>
        <pt x="1774" y="1552" on="0"/>
        <pt x="1634" y="1444" on="1"/>
        <pt x="1553" y="1386" on="0"/>
        <pt x="1473" y="1329" on="1"/>
        <pt x="1425" y="1289" on="0"/>
        <pt x="1378" y="1248" on="1"/>
        <pt x="1318" y="1202" on="0"/>
        <pt x="1278" y="1199" on="1"/>
        <pt x="1267" y="1213" on="0"/>
        <pt x="1267" y="1235" on="1"/>
        <pt x="1267" y="1292" on="0"/>
        <pt x="1488" y="1461" on="1"/>
        <pt x="1609" y="1549" on="0"/>
        <pt x="1731" y="1638" on="1"/>
        <pt x="1762" y="1638" on="1"/>
        <pt x="1774" y="1624" on="0"/>
      </contour>
      <contour>
        <pt x="1103" y="1332" on="1"/>
        <pt x="1103" y="1321" on="0"/>
        <pt x="1073" y="1261" on="1"/>
        <pt x="993" y="1291" on="0"/>
        <pt x="994" y="1291" on="1"/>
        <pt x="997" y="1291" on="0"/>
        <pt x="690" y="1005" on="0"/>
        <pt x="662" y="1006" on="1"/>
        <pt x="615" y="1006" on="1"/>
        <pt x="613" y="1015" on="0"/>
        <pt x="605" y="1031" on="1"/>
        <pt x="611" y="1041" on="0"/>
        <pt x="764" y="1177" on="1"/>
        <pt x="904" y="1303" on="0"/>
        <pt x="904" y="1337" on="1"/>
        <pt x="904" y="1349" on="0"/>
        <pt x="876" y="1378" on="1"/>
        <pt x="838" y="1415" on="0"/>
        <pt x="824" y="1437" on="1"/>
        <pt x="822" y="1448" on="0"/>
        <pt x="822" y="1464" on="1"/>
        <pt x="822" y="1509" on="0"/>
        <pt x="861" y="1590" on="1"/>
        <pt x="909" y="1688" on="0"/>
        <pt x="963" y="1688" on="1"/>
        <pt x="996" y="1688" on="0"/>
        <pt x="1028" y="1626" on="1"/>
        <pt x="1055" y="1573" on="0"/>
        <pt x="1054" y="1551" on="1"/>
        <pt x="1052" y="1476" on="0"/>
        <pt x="1041" y="1420" on="1"/>
        <pt x="1056" y="1398" on="0"/>
        <pt x="1085" y="1368" on="1"/>
        <pt x="1103" y="1352" on="0"/>
      </contour>
      <contour>
        <pt x="804" y="1347" on="1"/>
        <pt x="804" y="1337" on="0"/>
        <pt x="775" y="1271" on="1"/>
        <pt x="755" y="1271" on="0"/>
        <pt x="718" y="1280" on="0"/>
        <pt x="709" y="1280" on="1"/>
        <pt x="707" y="1280" on="0"/>
        <pt x="602" y="1185" on="1"/>
        <pt x="488" y="1084" on="0"/>
        <pt x="409" y="1057" on="1"/>
        <pt x="387" y="1081" on="1"/>
        <pt x="411" y="1123" on="0"/>
        <pt x="507" y="1210" on="1"/>
        <pt x="591" y="1285" on="0"/>
        <pt x="605" y="1335" on="1"/>
        <pt x="542" y="1386" on="0"/>
        <pt x="542" y="1443" on="1"/>
        <pt x="542" y="1513" on="0"/>
        <pt x="580" y="1578" on="1"/>
        <pt x="623" y="1649" on="0"/>
        <pt x="683" y="1649" on="1"/>
        <pt x="692" y="1649" on="0"/>
        <pt x="702" y="1647" on="1"/>
        <pt x="751" y="1587" on="0"/>
        <pt x="751" y="1511" on="1"/>
        <pt x="751" y="1502" on="0"/>
        <pt x="742" y="1420" on="1"/>
        <pt x="760" y="1402" on="0"/>
        <pt x="779" y="1385" on="1"/>
        <pt x="804" y="1361" on="0"/>
      </contour>
      <contour>
        <pt x="2163" y="306" on="1"/>
        <pt x="2163" y="274" on="0"/>
        <pt x="2121" y="220" on="1"/>
        <pt x="2082" y="169" on="0"/>
        <pt x="2068" y="169" on="1"/>
        <pt x="2058" y="169" on="0"/>
        <pt x="2016" y="179" on="0"/>
        <pt x="2004" y="179" on="1"/>
        <pt x="1879" y="179" on="0"/>
        <pt x="1496" y="-4" on="0"/>
        <pt x="1393" y="-4" on="1"/>
        <pt x="1315" y="-4" on="0"/>
        <pt x="1222" y="60" on="1"/>
        <pt x="1208" y="84" on="0"/>
        <pt x="1164" y="129" on="1"/>
        <pt x="1162" y="12" on="0"/>
        <pt x="1160" y="-104" on="1"/>
        <pt x="1146" y="-208" on="0"/>
        <pt x="1028" y="-296" on="1"/>
        <pt x="993" y="-323" on="0"/>
        <pt x="909" y="-351" on="1"/>
        <pt x="818" y="-381" on="0"/>
        <pt x="754" y="-381" on="1"/>
        <pt x="663" y="-381" on="0"/>
        <pt x="625" y="-357" on="1"/>
        <pt x="478" y="-268" on="0"/>
        <pt x="478" y="-126" on="1"/>
        <pt x="478" y="20" on="0"/>
        <pt x="606" y="219" on="1"/>
        <pt x="640" y="219" on="1"/>
        <pt x="640" y="162" on="1"/>
        <pt x="640" y="153" on="0"/>
        <pt x="568" y="-11" on="0"/>
        <pt x="568" y="-24" on="1"/>
        <pt x="568" y="-122" on="0"/>
        <pt x="668" y="-173" on="1"/>
        <pt x="735" y="-208" on="0"/>
        <pt x="799" y="-208" on="1"/>
        <pt x="823" y="-208" on="0"/>
        <pt x="898" y="-188" on="1"/>
        <pt x="989" y="-163" on="0"/>
        <pt x="1033" y="-135" on="1"/>
        <pt x="1059" y="-118" on="0"/>
        <pt x="1085" y="-45" on="1"/>
        <pt x="941" y="975" on="1"/>
        <pt x="951" y="1013" on="0"/>
        <pt x="962" y="1050" on="1"/>
        <pt x="980" y="1098" on="0"/>
        <pt x="1009" y="1117" on="1"/>
        <pt x="1033" y="1090" on="0"/>
        <pt x="1036" y="1063" on="1"/>
        <pt x="1062" y="866" on="0"/>
        <pt x="1125" y="613" on="1"/>
        <pt x="1230" y="200" on="0"/>
        <pt x="1330" y="200" on="1"/>
        <pt x="1344" y="200" on="0"/>
        <pt x="1354" y="217" on="1"/>
        <pt x="1427" y="475" on="0"/>
        <pt x="1578" y="475" on="1"/>
        <pt x="1585" y="475" on="0"/>
        <pt x="1744" y="406" on="1"/>
        <pt x="1804" y="379" on="0"/>
        <pt x="2014" y="332" on="1"/>
        <pt x="2035" y="341" on="0"/>
        <pt x="2152" y="341" on="1"/>
        <pt x="2152" y="338" on="0"/>
        <pt x="2163" y="321" on="0"/>
      </contour>
      <contour>
        <pt x="1818" y="-138" on="1"/>
        <pt x="1818" y="-159" on="0"/>
        <pt x="1796" y="-208" on="1"/>
        <pt x="1767" y="-269" on="0"/>
        <pt x="1733" y="-269" on="1"/>
        <pt x="1714" y="-269" on="0"/>
        <pt x="1669" y="-241" on="1"/>
        <pt x="1619" y="-211" on="0"/>
        <pt x="1619" y="-188" on="1"/>
        <pt x="1619" y="-161" on="0"/>
        <pt x="1690" y="-65" on="0"/>
        <pt x="1710" y="-65" on="1"/>
        <pt x="1729" y="-65" on="0"/>
      </contour>
      <contour>
        <pt x="2289" y="1254" on="1"/>
        <pt x="2261" y="1272" on="0"/>
        <pt x="2213" y="1301" on="1"/>
        <pt x="2192" y="1277" on="0"/>
        <pt x="2192" y="1262" on="1"/>
        <pt x="2226" y="1254" on="0"/>
      </contour>
      <contour>
        <pt x="976" y="1483" on="1"/>
        <pt x="959" y="1531" on="0"/>
        <pt x="933" y="1545" on="1"/>
        <pt x="922" y="1497" on="1"/>
        <pt x="964" y="1475" on="0"/>
      </contour>
      <contour>
        <pt x="667" y="1466" on="1"/>
        <pt x="667" y="1514" on="1"/>
        <pt x="634" y="1514" on="1"/>
        <pt x="625" y="1495" on="0"/>
        <pt x="633" y="1479" on="1"/>
        <pt x="680" y="1466" on="0"/>
      </contour>
      <contour>
        <pt x="1656" y="239" on="1"/>
        <pt x="1601" y="301" on="0"/>
        <pt x="1529" y="301" on="1"/>
        <pt x="1441" y="301" on="0"/>
        <pt x="1421" y="180" on="1"/>
        <pt x="1487" y="180" on="1"/>
        <pt x="1526" y="179" on="0"/>
      </contour>
    </TTGlyph>
    <TTGlyph name="endash" xMin="387" yMin="-381" xMax="1411" yMax="1729">
      <contour>
        <pt x="1402" y="1683" on="1"/>
        <pt x="1402" y="1638" on="0"/>
        <pt x="1304" y="1505" on="1"/>
        <pt x="1237" y="1414" on="0"/>
        <pt x="1169" y="1322" on="1"/>
        <pt x="1153" y="1322" on="1"/>
        <pt x="1153" y="1326" on="0"/>
        <pt x="1148" y="1343" on="0"/>
        <pt x="1148" y="1357" on="1"/>
        <pt x="1148" y="1428" on="0"/>
        <pt x="1193" y="1486" on="1"/>
        <pt x="1228" y="1527" on="0"/>
        <pt x="1263" y="1568" on="1"/>
        <pt x="1319" y="1660" on="0"/>
        <pt x="1391" y="1729" on="1"/>
        <pt x="1402" y="1705" on="0"/>
      </contour>
      <contour>
        <pt x="1411" y="189" on="1"/>
        <pt x="1411" y="75" on="0"/>
        <pt x="1391" y="27" on="1"/>
        <pt x="1375" y="27" on="1"/>
        <pt x="1365" y="168" on="0"/>
        <pt x="1346" y="438" on="1"/>
        <pt x="1331" y="628" on="0"/>
        <pt x="1308" y="1031" on="1"/>
        <pt x="1308" y="1033" on="0"/>
        <pt x="1320" y="1121" on="1"/>
        <pt x="1318" y="1128" on="0"/>
        <pt x="1311" y="1128" on="1"/>
        <pt x="1306" y="1128" on="0"/>
        <pt x="1287" y="1107" on="1"/>
        <pt x="1264" y="1082" on="0"/>
        <pt x="1255" y="1076" on="1"/>
        <pt x="1248" y="1089" on="0"/>
        <pt x="1244" y="1089" on="1"/>
        <pt x="1244" y="1091" on="0"/>
        <pt x="1246" y="1126" on="1"/>
        <pt x="1248" y="1154" on="0"/>
        <pt x="1246" y="1172" on="1"/>
        <pt x="1245" y="1180" on="0"/>
        <pt x="1242" y="1201" on="1"/>
        <pt x="1239" y="1219" on="0"/>
        <pt x="1239" y="1235" on="1"/>
        <pt x="1239" y="1287" on="0"/>
        <pt x="1272" y="1352" on="1"/>
        <pt x="1303" y="1413" on="0"/>
        <pt x="1320" y="1413" on="1"/>
        <pt x="1333" y="1413" on="0"/>
        <pt x="1346" y="1370" on="1"/>
        <pt x="1356" y="1334" on="0"/>
        <pt x="1356" y="1321" on="1"/>
        <pt x="1356" y="1307" on="0"/>
        <pt x="1351" y="1296" on="1"/>
        <pt x="1339" y="1270" on="0"/>
        <pt x="1338" y="1267" on="1"/>
        <pt x="1353" y="1258" on="0"/>
        <pt x="1406" y="1258" on="1"/>
        <pt x="1404" y="1214" on="0"/>
        <pt x="1379" y="1185" on="1"/>
        <pt x="1360" y="1168" on="0"/>
        <pt x="1343" y="1153" on="1"/>
        <pt x="1356" y="1070" on="0"/>
        <pt x="1366" y="939" on="1"/>
        <pt x="1374" y="827" on="0"/>
        <pt x="1391" y="603" on="0"/>
        <pt x="1402" y="398" on="1"/>
        <pt x="1411" y="217" on="0"/>
      </contour>
      <contour>
        <pt x="1080" y="1602" on="1"/>
        <pt x="1080" y="1552" on="0"/>
        <pt x="1010" y="1444" on="1"/>
        <pt x="970" y="1386" on="0"/>
        <pt x="930" y="1329" on="1"/>
        <pt x="906" y="1289" on="0"/>
        <pt x="882" y="1248" on="1"/>
        <pt x="853" y="1202" on="0"/>
        <pt x="833" y="1199" on="1"/>
        <pt x="827" y="1213" on="0"/>
        <pt x="827" y="1235" on="1"/>
        <pt x="827" y="1292" on="0"/>
        <pt x="937" y="1461" on="1"/>
        <pt x="998" y="1549" on="0"/>
        <pt x="1059" y="1638" on="1"/>
        <pt x="1074" y="1638" on="1"/>
        <pt x="1080" y="1624" on="0"/>
      </contour>
      <contour>
        <pt x="745" y="1332" on="1"/>
        <pt x="745" y="1321" on="0"/>
        <pt x="730" y="1261" on="1"/>
        <pt x="690" y="1291" on="0"/>
        <pt x="690" y="1291" on="1"/>
        <pt x="692" y="1291" on="0"/>
        <pt x="538" y="1005" on="0"/>
        <pt x="525" y="1006" on="1"/>
        <pt x="501" y="1006" on="1"/>
        <pt x="500" y="1015" on="0"/>
        <pt x="496" y="1031" on="1"/>
        <pt x="499" y="1041" on="0"/>
        <pt x="575" y="1177" on="1"/>
        <pt x="646" y="1303" on="0"/>
        <pt x="646" y="1337" on="1"/>
        <pt x="646" y="1349" on="0"/>
        <pt x="631" y="1378" on="1"/>
        <pt x="613" y="1415" on="0"/>
        <pt x="606" y="1437" on="1"/>
        <pt x="605" y="1448" on="0"/>
        <pt x="605" y="1464" on="1"/>
        <pt x="605" y="1509" on="0"/>
        <pt x="624" y="1590" on="1"/>
        <pt x="648" y="1688" on="0"/>
        <pt x="675" y="1688" on="1"/>
        <pt x="691" y="1688" on="0"/>
        <pt x="707" y="1626" on="1"/>
        <pt x="721" y="1573" on="0"/>
        <pt x="721" y="1551" on="1"/>
        <pt x="719" y="1476" on="0"/>
        <pt x="714" y="1420" on="1"/>
        <pt x="722" y="1398" on="0"/>
        <pt x="736" y="1368" on="1"/>
        <pt x="745" y="1352" on="0"/>
      </contour>
      <contour>
        <pt x="595" y="1347" on="1"/>
        <pt x="595" y="1337" on="0"/>
        <pt x="581" y="1271" on="1"/>
        <pt x="571" y="1271" on="0"/>
        <pt x="553" y="1280" on="0"/>
        <pt x="548" y="1280" on="1"/>
        <pt x="547" y="1280" on="0"/>
        <pt x="495" y="1185" on="1"/>
        <pt x="438" y="1084" on="0"/>
        <pt x="398" y="1057" on="1"/>
        <pt x="387" y="1081" on="1"/>
        <pt x="399" y="1123" on="0"/>
        <pt x="447" y="1210" on="1"/>
        <pt x="489" y="1285" on="0"/>
        <pt x="496" y="1335" on="1"/>
        <pt x="464" y="1386" on="0"/>
        <pt x="464" y="1443" on="1"/>
        <pt x="464" y="1513" on="0"/>
        <pt x="483" y="1578" on="1"/>
        <pt x="505" y="1649" on="0"/>
        <pt x="535" y="1649" on="1"/>
        <pt x="539" y="1649" on="0"/>
        <pt x="545" y="1647" on="1"/>
        <pt x="569" y="1587" on="0"/>
        <pt x="569" y="1511" on="1"/>
        <pt x="569" y="1502" on="0"/>
        <pt x="565" y="1420" on="1"/>
        <pt x="574" y="1402" on="0"/>
        <pt x="583" y="1385" on="1"/>
        <pt x="595" y="1361" on="0"/>
      </contour>
      <contour>
        <pt x="1275" y="306" on="1"/>
        <pt x="1275" y="274" on="0"/>
        <pt x="1254" y="220" on="1"/>
        <pt x="1235" y="169" on="0"/>
        <pt x="1228" y="169" on="1"/>
        <pt x="1223" y="169" on="0"/>
        <pt x="1201" y="179" on="0"/>
        <pt x="1196" y="179" on="1"/>
        <pt x="1133" y="179" on="0"/>
        <pt x="941" y="-4" on="0"/>
        <pt x="890" y="-4" on="1"/>
        <pt x="851" y="-4" on="0"/>
        <pt x="805" y="60" on="1"/>
        <pt x="797" y="84" on="0"/>
        <pt x="775" y="129" on="1"/>
        <pt x="774" y="12" on="0"/>
        <pt x="773" y="-104" on="1"/>
        <pt x="766" y="-208" on="0"/>
        <pt x="708" y="-296" on="1"/>
        <pt x="690" y="-323" on="0"/>
        <pt x="648" y="-351" on="1"/>
        <pt x="602" y="-381" on="0"/>
        <pt x="570" y="-381" on="1"/>
        <pt x="525" y="-381" on="0"/>
        <pt x="506" y="-357" on="1"/>
        <pt x="432" y="-268" on="0"/>
        <pt x="432" y="-126" on="1"/>
        <pt x="432" y="20" on="0"/>
        <pt x="497" y="219" on="1"/>
        <pt x="514" y="219" on="1"/>
        <pt x="514" y="162" on="1"/>
        <pt x="514" y="153" on="0"/>
        <pt x="478" y="-11" on="0"/>
        <pt x="478" y="-24" on="1"/>
        <pt x="478" y="-122" on="0"/>
        <pt x="527" y="-173" on="1"/>
        <pt x="561" y="-208" on="0"/>
        <pt x="593" y="-208" on="1"/>
        <pt x="605" y="-208" on="0"/>
        <pt x="642" y="-188" on="1"/>
        <pt x="688" y="-163" on="0"/>
        <pt x="710" y="-135" on="1"/>
        <pt x="723" y="-118" on="0"/>
        <pt x="736" y="-45" on="1"/>
        <pt x="664" y="975" on="1"/>
        <pt x="669" y="1013" on="0"/>
        <pt x="674" y="1050" on="1"/>
        <pt x="683" y="1098" on="0"/>
        <pt x="698" y="1117" on="1"/>
        <pt x="710" y="1090" on="0"/>
        <pt x="712" y="1063" on="1"/>
        <pt x="725" y="866" on="0"/>
        <pt x="756" y="613" on="1"/>
        <pt x="809" y="200" on="0"/>
        <pt x="858" y="200" on="1"/>
        <pt x="865" y="200" on="0"/>
        <pt x="870" y="217" on="1"/>
        <pt x="907" y="475" on="0"/>
        <pt x="983" y="475" on="1"/>
        <pt x="986" y="475" on="0"/>
        <pt x="1065" y="406" on="1"/>
        <pt x="1096" y="379" on="0"/>
        <pt x="1200" y="332" on="1"/>
        <pt x="1211" y="341" on="0"/>
        <pt x="1270" y="341" on="1"/>
        <pt x="1270" y="338" on="0"/>
        <pt x="1275" y="321" on="0"/>
      </contour>
      <contour>
        <pt x="1103" y="-138" on="1"/>
        <pt x="1103" y="-159" on="0"/>
        <pt x="1092" y="-208" on="1"/>
        <pt x="1077" y="-269" on="0"/>
        <pt x="1060" y="-269" on="1"/>
        <pt x="1050" y="-269" on="0"/>
        <pt x="1028" y="-241" on="1"/>
        <pt x="1003" y="-211" on="0"/>
        <pt x="1003" y="-188" on="1"/>
        <pt x="1003" y="-161" on="0"/>
        <pt x="1039" y="-65" on="0"/>
        <pt x="1048" y="-65" on="1"/>
        <pt x="1058" y="-65" on="0"/>
      </contour>
      <contour>
        <pt x="1338" y="1254" on="1"/>
        <pt x="1324" y="1272" on="0"/>
        <pt x="1300" y="1301" on="1"/>
        <pt x="1289" y="1277" on="0"/>
        <pt x="1289" y="1262" on="1"/>
        <pt x="1307" y="1254" on="0"/>
      </contour>
      <contour>
        <pt x="682" y="1483" on="1"/>
        <pt x="673" y="1531" on="0"/>
        <pt x="660" y="1545" on="1"/>
        <pt x="654" y="1497" on="1"/>
        <pt x="675" y="1475" on="0"/>
      </contour>
      <contour>
        <pt x="527" y="1466" on="1"/>
        <pt x="527" y="1514" on="1"/>
        <pt x="511" y="1514" on="1"/>
        <pt x="506" y="1495" on="0"/>
        <pt x="510" y="1479" on="1"/>
        <pt x="534" y="1466" on="0"/>
      </contour>
      <contour>
        <pt x="1021" y="239" on="1"/>
        <pt x="994" y="301" on="0"/>
        <pt x="958" y="301" on="1"/>
        <pt x="914" y="301" on="0"/>
        <pt x="904" y="180" on="1"/>
        <pt x="937" y="180" on="1"/>
        <pt x="957" y="179" on="0"/>
      </contour>
    </TTGlyph>
    <TTGlyph name="equal" xMin="142" yMin="226" xMax="842" yMax="1588">
      <contour>
        <pt x="142" y="226" on="1"/>
        <pt x="142" y="1588" on="1"/>
        <pt x="842" y="1588" on="1"/>
        <pt x="842" y="226" on="1"/>
      </contour>
      <contour>
        <pt x="284" y="368" on="1"/>
        <pt x="700" y="368" on="1"/>
        <pt x="700" y="1447" on="1"/>
        <pt x="284" y="1447" on="1"/>
      </contour>
    </TTGlyph>
    <TTGlyph name="exclam" xMin="142" yMin="226" xMax="842" yMax="1588">
      <contour>
        <pt x="142" y="226" on="1"/>
        <pt x="142" y="1588" on="1"/>
        <pt x="842" y="1588" on="1"/>
        <pt x="842" y="226" on="1"/>
      </contour>
      <contour>
        <pt x="284" y="368" on="1"/>
        <pt x="700" y="368" on="1"/>
        <pt x="700" y="1447" on="1"/>
        <pt x="284" y="1447" on="1"/>
      </contour>
    </TTGlyph>
    <TTGlyph name="figuredash" xMin="387" yMin="-381" xMax="2692" yMax="1729">
      <contour>
        <pt x="2672" y="1683" on="1"/>
        <pt x="2672" y="1638" on="0"/>
        <pt x="2452" y="1505" on="1"/>
        <pt x="2300" y="1414" on="0"/>
        <pt x="2148" y="1322" on="1"/>
        <pt x="2112" y="1322" on="1"/>
        <pt x="2112" y="1326" on="0"/>
        <pt x="2101" y="1343" on="0"/>
        <pt x="2101" y="1357" on="1"/>
        <pt x="2101" y="1428" on="0"/>
        <pt x="2202" y="1486" on="1"/>
        <pt x="2280" y="1527" on="0"/>
        <pt x="2358" y="1568" on="1"/>
        <pt x="2485" y="1660" on="0"/>
        <pt x="2647" y="1729" on="1"/>
        <pt x="2672" y="1705" on="0"/>
      </contour>
      <contour>
        <pt x="2692" y="189" on="1"/>
        <pt x="2692" y="75" on="0"/>
        <pt x="2648" y="27" on="1"/>
        <pt x="2612" y="27" on="1"/>
        <pt x="2588" y="168" on="0"/>
        <pt x="2546" y="438" on="1"/>
        <pt x="2511" y="628" on="0"/>
        <pt x="2460" y="1031" on="1"/>
        <pt x="2460" y="1033" on="0"/>
        <pt x="2488" y="1121" on="1"/>
        <pt x="2482" y="1128" on="0"/>
        <pt x="2468" y="1128" on="1"/>
        <pt x="2456" y="1128" on="0"/>
        <pt x="2412" y="1107" on="1"/>
        <pt x="2361" y="1082" on="0"/>
        <pt x="2340" y="1076" on="1"/>
        <pt x="2326" y="1089" on="0"/>
        <pt x="2316" y="1089" on="1"/>
        <pt x="2316" y="1091" on="0"/>
        <pt x="2320" y="1126" on="1"/>
        <pt x="2324" y="1154" on="0"/>
        <pt x="2321" y="1172" on="1"/>
        <pt x="2319" y="1180" on="0"/>
        <pt x="2311" y="1201" on="1"/>
        <pt x="2305" y="1219" on="0"/>
        <pt x="2305" y="1235" on="1"/>
        <pt x="2305" y="1287" on="0"/>
        <pt x="2378" y="1352" on="1"/>
        <pt x="2448" y="1413" on="0"/>
        <pt x="2488" y="1413" on="1"/>
        <pt x="2517" y="1413" on="0"/>
        <pt x="2546" y="1370" on="1"/>
        <pt x="2569" y="1334" on="0"/>
        <pt x="2569" y="1321" on="1"/>
        <pt x="2569" y="1307" on="0"/>
        <pt x="2558" y="1296" on="1"/>
        <pt x="2531" y="1270" on="0"/>
        <pt x="2528" y="1267" on="1"/>
        <pt x="2562" y="1258" on="0"/>
        <pt x="2681" y="1258" on="1"/>
        <pt x="2676" y="1214" on="0"/>
        <pt x="2619" y="1185" on="1"/>
        <pt x="2578" y="1168" on="0"/>
        <pt x="2539" y="1153" on="1"/>
        <pt x="2569" y="1070" on="0"/>
        <pt x="2591" y="939" on="1"/>
        <pt x="2609" y="827" on="0"/>
        <pt x="2647" y="603" on="0"/>
        <pt x="2671" y="398" on="1"/>
        <pt x="2692" y="217" on="0"/>
      </contour>
      <contour>
        <pt x="1948" y="1602" on="1"/>
        <pt x="1948" y="1552" on="0"/>
        <pt x="1790" y="1444" on="1"/>
        <pt x="1699" y="1386" on="0"/>
        <pt x="1609" y="1329" on="1"/>
        <pt x="1555" y="1289" on="0"/>
        <pt x="1502" y="1248" on="1"/>
        <pt x="1435" y="1202" on="0"/>
        <pt x="1390" y="1199" on="1"/>
        <pt x="1377" y="1213" on="0"/>
        <pt x="1377" y="1235" on="1"/>
        <pt x="1377" y="1292" on="0"/>
        <pt x="1626" y="1461" on="1"/>
        <pt x="1762" y="1549" on="0"/>
        <pt x="1900" y="1638" on="1"/>
        <pt x="1934" y="1638" on="1"/>
        <pt x="1948" y="1624" on="0"/>
      </contour>
      <contour>
        <pt x="1193" y="1332" on="1"/>
        <pt x="1193" y="1321" on="0"/>
        <pt x="1159" y="1261" on="1"/>
        <pt x="1069" y="1291" on="0"/>
        <pt x="1070" y="1291" on="1"/>
        <pt x="1074" y="1291" on="0"/>
        <pt x="728" y="1005" on="0"/>
        <pt x="697" y="1006" on="1"/>
        <pt x="644" y="1006" on="1"/>
        <pt x="641" y="1015" on="0"/>
        <pt x="632" y="1031" on="1"/>
        <pt x="639" y="1041" on="0"/>
        <pt x="811" y="1177" on="1"/>
        <pt x="969" y="1303" on="0"/>
        <pt x="969" y="1337" on="1"/>
        <pt x="969" y="1349" on="0"/>
        <pt x="937" y="1378" on="1"/>
        <pt x="895" y="1415" on="0"/>
        <pt x="879" y="1437" on="1"/>
        <pt x="877" y="1448" on="0"/>
        <pt x="877" y="1464" on="1"/>
        <pt x="877" y="1509" on="0"/>
        <pt x="920" y="1590" on="1"/>
        <pt x="974" y="1688" on="0"/>
        <pt x="1035" y="1688" on="1"/>
        <pt x="1072" y="1688" on="0"/>
        <pt x="1108" y="1626" on="1"/>
        <pt x="1139" y="1573" on="0"/>
        <pt x="1138" y="1551" on="1"/>
        <pt x="1135" y="1476" on="0"/>
        <pt x="1123" y="1420" on="1"/>
        <pt x="1140" y="1398" on="0"/>
        <pt x="1173" y="1368" on="1"/>
        <pt x="1193" y="1352" on="0"/>
      </contour>
      <contour>
        <pt x="856" y="1347" on="1"/>
        <pt x="856" y="1337" on="0"/>
        <pt x="824" y="1271" on="1"/>
        <pt x="801" y="1271" on="0"/>
        <pt x="760" y="1280" on="0"/>
        <pt x="749" y="1280" on="1"/>
        <pt x="747" y="1280" on="0"/>
        <pt x="629" y="1185" on="1"/>
        <pt x="501" y="1084" on="0"/>
        <pt x="412" y="1057" on="1"/>
        <pt x="387" y="1081" on="1"/>
        <pt x="414" y="1123" on="0"/>
        <pt x="522" y="1210" on="1"/>
        <pt x="617" y="1285" on="0"/>
        <pt x="632" y="1335" on="1"/>
        <pt x="561" y="1386" on="0"/>
        <pt x="561" y="1443" on="1"/>
        <pt x="561" y="1513" on="0"/>
        <pt x="604" y="1578" on="1"/>
        <pt x="653" y="1649" on="0"/>
        <pt x="720" y="1649" on="1"/>
        <pt x="730" y="1649" on="0"/>
        <pt x="742" y="1647" on="1"/>
        <pt x="797" y="1587" on="0"/>
        <pt x="797" y="1511" on="1"/>
        <pt x="797" y="1502" on="0"/>
        <pt x="787" y="1420" on="1"/>
        <pt x="807" y="1402" on="0"/>
        <pt x="828" y="1385" on="1"/>
        <pt x="856" y="1361" on="0"/>
      </contour>
      <contour>
        <pt x="2386" y="306" on="1"/>
        <pt x="2386" y="274" on="0"/>
        <pt x="2339" y="220" on="1"/>
        <pt x="2295" y="169" on="0"/>
        <pt x="2279" y="169" on="1"/>
        <pt x="2268" y="169" on="0"/>
        <pt x="2220" y="179" on="0"/>
        <pt x="2207" y="179" on="1"/>
        <pt x="2066" y="179" on="0"/>
        <pt x="1635" y="-4" on="0"/>
        <pt x="1519" y="-4" on="1"/>
        <pt x="1432" y="-4" on="0"/>
        <pt x="1327" y="60" on="1"/>
        <pt x="1311" y="84" on="0"/>
        <pt x="1261" y="129" on="1"/>
        <pt x="1259" y="12" on="0"/>
        <pt x="1257" y="-104" on="1"/>
        <pt x="1241" y="-208" on="0"/>
        <pt x="1109" y="-296" on="1"/>
        <pt x="1069" y="-323" on="0"/>
        <pt x="975" y="-351" on="1"/>
        <pt x="872" y="-381" on="0"/>
        <pt x="800" y="-381" on="1"/>
        <pt x="698" y="-381" on="0"/>
        <pt x="655" y="-357" on="1"/>
        <pt x="489" y="-268" on="0"/>
        <pt x="489" y="-126" on="1"/>
        <pt x="489" y="20" on="0"/>
        <pt x="634" y="219" on="1"/>
        <pt x="672" y="219" on="1"/>
        <pt x="672" y="162" on="1"/>
        <pt x="672" y="153" on="0"/>
        <pt x="591" y="-11" on="0"/>
        <pt x="591" y="-24" on="1"/>
        <pt x="591" y="-122" on="0"/>
        <pt x="703" y="-173" on="1"/>
        <pt x="779" y="-208" on="0"/>
        <pt x="851" y="-208" on="1"/>
        <pt x="878" y="-208" on="0"/>
        <pt x="962" y="-188" on="1"/>
        <pt x="1064" y="-163" on="0"/>
        <pt x="1114" y="-135" on="1"/>
        <pt x="1143" y="-118" on="0"/>
        <pt x="1173" y="-45" on="1"/>
        <pt x="1010" y="975" on="1"/>
        <pt x="1022" y="1013" on="0"/>
        <pt x="1034" y="1050" on="1"/>
        <pt x="1054" y="1098" on="0"/>
        <pt x="1087" y="1117" on="1"/>
        <pt x="1114" y="1090" on="0"/>
        <pt x="1118" y="1063" on="1"/>
        <pt x="1147" y="866" on="0"/>
        <pt x="1218" y="613" on="1"/>
        <pt x="1336" y="200" on="0"/>
        <pt x="1448" y="200" on="1"/>
        <pt x="1464" y="200" on="0"/>
        <pt x="1475" y="217" on="1"/>
        <pt x="1558" y="475" on="0"/>
        <pt x="1728" y="475" on="1"/>
        <pt x="1735" y="475" on="0"/>
        <pt x="1914" y="406" on="1"/>
        <pt x="1982" y="379" on="0"/>
        <pt x="2218" y="332" on="1"/>
        <pt x="2242" y="341" on="0"/>
        <pt x="2374" y="341" on="1"/>
        <pt x="2374" y="338" on="0"/>
        <pt x="2386" y="321" on="0"/>
      </contour>
      <contour>
        <pt x="1998" y="-138" on="1"/>
        <pt x="1998" y="-159" on="0"/>
        <pt x="1973" y="-208" on="1"/>
        <pt x="1940" y="-269" on="0"/>
        <pt x="1902" y="-269" on="1"/>
        <pt x="1880" y="-269" on="0"/>
        <pt x="1830" y="-241" on="1"/>
        <pt x="1774" y="-211" on="0"/>
        <pt x="1774" y="-188" on="1"/>
        <pt x="1774" y="-161" on="0"/>
        <pt x="1854" y="-65" on="0"/>
        <pt x="1876" y="-65" on="1"/>
        <pt x="1897" y="-65" on="0"/>
      </contour>
      <contour>
        <pt x="2528" y="1254" on="1"/>
        <pt x="2496" y="1272" on="0"/>
        <pt x="2442" y="1301" on="1"/>
        <pt x="2418" y="1277" on="0"/>
        <pt x="2418" y="1262" on="1"/>
        <pt x="2457" y="1254" on="0"/>
      </contour>
      <contour>
        <pt x="1050" y="1483" on="1"/>
        <pt x="1031" y="1531" on="0"/>
        <pt x="1002" y="1545" on="1"/>
        <pt x="989" y="1497" on="1"/>
        <pt x="1036" y="1475" on="0"/>
      </contour>
      <contour>
        <pt x="702" y="1466" on="1"/>
        <pt x="702" y="1514" on="1"/>
        <pt x="665" y="1514" on="1"/>
        <pt x="655" y="1495" on="0"/>
        <pt x="664" y="1479" on="1"/>
        <pt x="717" y="1466" on="0"/>
      </contour>
      <contour>
        <pt x="1815" y="239" on="1"/>
        <pt x="1753" y="301" on="0"/>
        <pt x="1672" y="301" on="1"/>
        <pt x="1573" y="301" on="0"/>
        <pt x="1551" y="180" on="1"/>
        <pt x="1625" y="180" on="1"/>
        <pt x="1669" y="179" on="0"/>
      </contour>
    </TTGlyph>
    <TTGlyph name="gaffinalarabic" xMin="142" yMin="226" xMax="842" yMax="1588">
      <contour>
        <pt x="142" y="226" on="1"/>
        <pt x="142" y="1588" on="1"/>
        <pt x="842" y="1588" on="1"/>
        <pt x="842" y="226" on="1"/>
      </contour>
      <contour>
        <pt x="284" y="368" on="1"/>
        <pt x="700" y="368" on="1"/>
        <pt x="700" y="1447" on="1"/>
        <pt x="284" y="1447" on="1"/>
      </contour>
    </TTGlyph>
    <TTGlyph name="gafinitialarabic" xMin="142" yMin="226" xMax="842" yMax="1588">
      <contour>
        <pt x="142" y="226" on="1"/>
        <pt x="142" y="1588" on="1"/>
        <pt x="842" y="1588" on="1"/>
        <pt x="842" y="226" on="1"/>
      </contour>
      <contour>
        <pt x="284" y="368" on="1"/>
        <pt x="700" y="368" on="1"/>
        <pt x="700" y="1447" on="1"/>
        <pt x="284" y="1447" on="1"/>
      </contour>
    </TTGlyph>
    <TTGlyph name="gafmedialarabic" xMin="142" yMin="226" xMax="842" yMax="1588">
      <contour>
        <pt x="142" y="226" on="1"/>
        <pt x="142" y="1588" on="1"/>
        <pt x="842" y="1588" on="1"/>
        <pt x="842" y="226" on="1"/>
      </contour>
      <contour>
        <pt x="284" y="368" on="1"/>
        <pt x="700" y="368" on="1"/>
        <pt x="700" y="1447" on="1"/>
        <pt x="284" y="1447" on="1"/>
      </contour>
    </TTGlyph>
    <TTGlyph name="glyph41" xMin="142" yMin="226" xMax="842" yMax="1588">
      <contour>
        <pt x="142" y="226" on="1"/>
        <pt x="142" y="1588" on="1"/>
        <pt x="842" y="1588" on="1"/>
        <pt x="842" y="226" on="1"/>
      </contour>
      <contour>
        <pt x="284" y="368" on="1"/>
        <pt x="700" y="368" on="1"/>
        <pt x="700" y="1447" on="1"/>
        <pt x="284" y="1447" on="1"/>
      </contour>
    </TTGlyph>
    <TTGlyph name="glyph42" xMin="142" yMin="226" xMax="842" yMax="1588">
      <contour>
        <pt x="142" y="226" on="1"/>
        <pt x="142" y="1588" on="1"/>
        <pt x="842" y="1588" on="1"/>
        <pt x="842" y="226" on="1"/>
      </contour>
      <contour>
        <pt x="284" y="368" on="1"/>
        <pt x="700" y="368" on="1"/>
        <pt x="700" y="1447" on="1"/>
        <pt x="284" y="1447" on="1"/>
      </contour>
    </TTGlyph>
    <TTGlyph name="glyph43" xMin="142" yMin="226" xMax="842" yMax="1588">
      <contour>
        <pt x="142" y="226" on="1"/>
        <pt x="142" y="1588" on="1"/>
        <pt x="842" y="1588" on="1"/>
        <pt x="842" y="226" on="1"/>
      </contour>
      <contour>
        <pt x="284" y="368" on="1"/>
        <pt x="700" y="368" on="1"/>
        <pt x="700" y="1447" on="1"/>
        <pt x="284" y="1447" on="1"/>
      </contour>
    </TTGlyph>
    <TTGlyph name="glyph44" xMin="142" yMin="226" xMax="842" yMax="1588">
      <contour>
        <pt x="142" y="226" on="1"/>
        <pt x="142" y="1588" on="1"/>
        <pt x="842" y="1588" on="1"/>
        <pt x="842" y="226" on="1"/>
      </contour>
      <contour>
        <pt x="284" y="368" on="1"/>
        <pt x="700" y="368" on="1"/>
        <pt x="700" y="1447" on="1"/>
        <pt x="284" y="1447" on="1"/>
      </contour>
    </TTGlyph>
    <TTGlyph name="glyph45" xMin="142" yMin="226" xMax="842" yMax="1588">
      <contour>
        <pt x="142" y="226" on="1"/>
        <pt x="142" y="1588" on="1"/>
        <pt x="842" y="1588" on="1"/>
        <pt x="842" y="226" on="1"/>
      </contour>
      <contour>
        <pt x="284" y="368" on="1"/>
        <pt x="700" y="368" on="1"/>
        <pt x="700" y="1447" on="1"/>
        <pt x="284" y="1447" on="1"/>
      </contour>
    </TTGlyph>
    <TTGlyph name="glyph46" xMin="142" yMin="226" xMax="842" yMax="1588">
      <contour>
        <pt x="142" y="226" on="1"/>
        <pt x="142" y="1588" on="1"/>
        <pt x="842" y="1588" on="1"/>
        <pt x="842" y="226" on="1"/>
      </contour>
      <contour>
        <pt x="284" y="368" on="1"/>
        <pt x="700" y="368" on="1"/>
        <pt x="700" y="1447" on="1"/>
        <pt x="284" y="1447" on="1"/>
      </contour>
    </TTGlyph>
    <TTGlyph name="glyph47" xMin="142" yMin="226" xMax="842" yMax="1588">
      <contour>
        <pt x="142" y="226" on="1"/>
        <pt x="142" y="1588" on="1"/>
        <pt x="842" y="1588" on="1"/>
        <pt x="842" y="226" on="1"/>
      </contour>
      <contour>
        <pt x="284" y="368" on="1"/>
        <pt x="700" y="368" on="1"/>
        <pt x="700" y="1447" on="1"/>
        <pt x="284" y="1447" on="1"/>
      </contour>
    </TTGlyph>
    <TTGlyph name="glyph48" xMin="142" yMin="226" xMax="842" yMax="1588">
      <contour>
        <pt x="142" y="226" on="1"/>
        <pt x="142" y="1588" on="1"/>
        <pt x="842" y="1588" on="1"/>
        <pt x="842" y="226" on="1"/>
      </contour>
      <contour>
        <pt x="284" y="368" on="1"/>
        <pt x="700" y="368" on="1"/>
        <pt x="700" y="1447" on="1"/>
        <pt x="284" y="1447" on="1"/>
      </contour>
    </TTGlyph>
    <TTGlyph name="glyph50" xMin="142" yMin="226" xMax="842" yMax="1588">
      <contour>
        <pt x="142" y="226" on="1"/>
        <pt x="142" y="1588" on="1"/>
        <pt x="842" y="1588" on="1"/>
        <pt x="842" y="226" on="1"/>
      </contour>
      <contour>
        <pt x="284" y="368" on="1"/>
        <pt x="700" y="368" on="1"/>
        <pt x="700" y="1447" on="1"/>
        <pt x="284" y="1447" on="1"/>
      </contour>
    </TTGlyph>
    <TTGlyph name="glyph51" xMin="142" yMin="226" xMax="842" yMax="1588">
      <contour>
        <pt x="142" y="226" on="1"/>
        <pt x="142" y="1588" on="1"/>
        <pt x="842" y="1588" on="1"/>
        <pt x="842" y="226" on="1"/>
      </contour>
      <contour>
        <pt x="284" y="368" on="1"/>
        <pt x="700" y="368" on="1"/>
        <pt x="700" y="1447" on="1"/>
        <pt x="284" y="1447" on="1"/>
      </contour>
    </TTGlyph>
    <TTGlyph name="greater" xMin="142" yMin="226" xMax="842" yMax="1588">
      <contour>
        <pt x="142" y="226" on="1"/>
        <pt x="142" y="1588" on="1"/>
        <pt x="842" y="1588" on="1"/>
        <pt x="842" y="226" on="1"/>
      </contour>
      <contour>
        <pt x="284" y="368" on="1"/>
        <pt x="700" y="368" on="1"/>
        <pt x="700" y="1447" on="1"/>
        <pt x="284" y="1447" on="1"/>
      </contour>
    </TTGlyph>
    <TTGlyph name="hahhamzabovefinal" xMin="142" yMin="226" xMax="842" yMax="1588">
      <contour>
        <pt x="142" y="226" on="1"/>
        <pt x="142" y="1588" on="1"/>
        <pt x="842" y="1588" on="1"/>
        <pt x="842" y="226" on="1"/>
      </contour>
      <contour>
        <pt x="284" y="368" on="1"/>
        <pt x="700" y="368" on="1"/>
        <pt x="700" y="1447" on="1"/>
        <pt x="284" y="1447" on="1"/>
      </contour>
    </TTGlyph>
    <TTGlyph name="hahhamzaboveinitial" xMin="142" yMin="226" xMax="842" yMax="1588">
      <contour>
        <pt x="142" y="226" on="1"/>
        <pt x="142" y="1588" on="1"/>
        <pt x="842" y="1588" on="1"/>
        <pt x="842" y="226" on="1"/>
      </contour>
      <contour>
        <pt x="284" y="368" on="1"/>
        <pt x="700" y="368" on="1"/>
        <pt x="700" y="1447" on="1"/>
        <pt x="284" y="1447" on="1"/>
      </contour>
    </TTGlyph>
    <TTGlyph name="hahhamzabovemedial" xMin="142" yMin="226" xMax="842" yMax="1588">
      <contour>
        <pt x="142" y="226" on="1"/>
        <pt x="142" y="1588" on="1"/>
        <pt x="842" y="1588" on="1"/>
        <pt x="842" y="226" on="1"/>
      </contour>
      <contour>
        <pt x="284" y="368" on="1"/>
        <pt x="700" y="368" on="1"/>
        <pt x="700" y="1447" on="1"/>
        <pt x="284" y="1447" on="1"/>
      </contour>
    </TTGlyph>
    <TTGlyph name="hahthreedotsabovefinal" xMin="142" yMin="226" xMax="842" yMax="1588">
      <contour>
        <pt x="142" y="226" on="1"/>
        <pt x="142" y="1588" on="1"/>
        <pt x="842" y="1588" on="1"/>
        <pt x="842" y="226" on="1"/>
      </contour>
      <contour>
        <pt x="284" y="368" on="1"/>
        <pt x="700" y="368" on="1"/>
        <pt x="700" y="1447" on="1"/>
        <pt x="284" y="1447" on="1"/>
      </contour>
    </TTGlyph>
    <TTGlyph name="hahthreedotsaboveinitial" xMin="142" yMin="226" xMax="842" yMax="1588">
      <contour>
        <pt x="142" y="226" on="1"/>
        <pt x="142" y="1588" on="1"/>
        <pt x="842" y="1588" on="1"/>
        <pt x="842" y="226" on="1"/>
      </contour>
      <contour>
        <pt x="284" y="368" on="1"/>
        <pt x="700" y="368" on="1"/>
        <pt x="700" y="1447" on="1"/>
        <pt x="284" y="1447" on="1"/>
      </contour>
    </TTGlyph>
    <TTGlyph name="hahthreedotsabovemedial" xMin="142" yMin="226" xMax="842" yMax="1588">
      <contour>
        <pt x="142" y="226" on="1"/>
        <pt x="142" y="1588" on="1"/>
        <pt x="842" y="1588" on="1"/>
        <pt x="842" y="226" on="1"/>
      </contour>
      <contour>
        <pt x="284" y="368" on="1"/>
        <pt x="700" y="368" on="1"/>
        <pt x="700" y="1447" on="1"/>
        <pt x="284" y="1447" on="1"/>
      </contour>
    </TTGlyph>
    <TTGlyph name="hehdoachashmeefinalarabic" xMin="142" yMin="226" xMax="842" yMax="1588">
      <contour>
        <pt x="142" y="226" on="1"/>
        <pt x="142" y="1588" on="1"/>
        <pt x="842" y="1588" on="1"/>
        <pt x="842" y="226" on="1"/>
      </contour>
      <contour>
        <pt x="284" y="368" on="1"/>
        <pt x="700" y="368" on="1"/>
        <pt x="700" y="1447" on="1"/>
        <pt x="284" y="1447" on="1"/>
      </contour>
    </TTGlyph>
    <TTGlyph name="hehdoachashmeeinitialarabic" xMin="142" yMin="226" xMax="842" yMax="1588">
      <contour>
        <pt x="142" y="226" on="1"/>
        <pt x="142" y="1588" on="1"/>
        <pt x="842" y="1588" on="1"/>
        <pt x="842" y="226" on="1"/>
      </contour>
      <contour>
        <pt x="284" y="368" on="1"/>
        <pt x="700" y="368" on="1"/>
        <pt x="700" y="1447" on="1"/>
        <pt x="284" y="1447" on="1"/>
      </contour>
    </TTGlyph>
    <TTGlyph name="hehdoachashmeemedialarabic" xMin="142" yMin="226" xMax="842" yMax="1588">
      <contour>
        <pt x="142" y="226" on="1"/>
        <pt x="142" y="1588" on="1"/>
        <pt x="842" y="1588" on="1"/>
        <pt x="842" y="226" on="1"/>
      </contour>
      <contour>
        <pt x="284" y="368" on="1"/>
        <pt x="700" y="368" on="1"/>
        <pt x="700" y="1447" on="1"/>
        <pt x="284" y="1447" on="1"/>
      </contour>
    </TTGlyph>
    <TTGlyph name="hehfinalaltonearabic" xMin="142" yMin="226" xMax="842" yMax="1588">
      <contour>
        <pt x="142" y="226" on="1"/>
        <pt x="142" y="1588" on="1"/>
        <pt x="842" y="1588" on="1"/>
        <pt x="842" y="226" on="1"/>
      </contour>
      <contour>
        <pt x="284" y="368" on="1"/>
        <pt x="700" y="368" on="1"/>
        <pt x="700" y="1447" on="1"/>
        <pt x="284" y="1447" on="1"/>
      </contour>
    </TTGlyph>
    <TTGlyph name="hehhamzaabovefinalarabic" xMin="142" yMin="226" xMax="842" yMax="1588">
      <contour>
        <pt x="142" y="226" on="1"/>
        <pt x="142" y="1588" on="1"/>
        <pt x="842" y="1588" on="1"/>
        <pt x="842" y="226" on="1"/>
      </contour>
      <contour>
        <pt x="284" y="368" on="1"/>
        <pt x="700" y="368" on="1"/>
        <pt x="700" y="1447" on="1"/>
        <pt x="284" y="1447" on="1"/>
      </contour>
    </TTGlyph>
    <TTGlyph name="hehinitialaltonearabic" xMin="142" yMin="226" xMax="842" yMax="1588">
      <contour>
        <pt x="142" y="226" on="1"/>
        <pt x="142" y="1588" on="1"/>
        <pt x="842" y="1588" on="1"/>
        <pt x="842" y="226" on="1"/>
      </contour>
      <contour>
        <pt x="284" y="368" on="1"/>
        <pt x="700" y="368" on="1"/>
        <pt x="700" y="1447" on="1"/>
        <pt x="284" y="1447" on="1"/>
      </contour>
    </TTGlyph>
    <TTGlyph name="hehmedialaltonearabic" xMin="142" yMin="226" xMax="842" yMax="1588">
      <contour>
        <pt x="142" y="226" on="1"/>
        <pt x="142" y="1588" on="1"/>
        <pt x="842" y="1588" on="1"/>
        <pt x="842" y="226" on="1"/>
      </contour>
      <contour>
        <pt x="284" y="368" on="1"/>
        <pt x="700" y="368" on="1"/>
        <pt x="700" y="1447" on="1"/>
        <pt x="284" y="1447" on="1"/>
      </contour>
    </TTGlyph>
    <TTGlyph name="hyphen" xMin="387" yMin="-381" xMax="2692" yMax="1729">
      <contour>
        <pt x="2672" y="1683" on="1"/>
        <pt x="2672" y="1638" on="0"/>
        <pt x="2452" y="1505" on="1"/>
        <pt x="2300" y="1414" on="0"/>
        <pt x="2148" y="1322" on="1"/>
        <pt x="2112" y="1322" on="1"/>
        <pt x="2112" y="1326" on="0"/>
        <pt x="2101" y="1343" on="0"/>
        <pt x="2101" y="1357" on="1"/>
        <pt x="2101" y="1428" on="0"/>
        <pt x="2202" y="1486" on="1"/>
        <pt x="2280" y="1527" on="0"/>
        <pt x="2358" y="1568" on="1"/>
        <pt x="2485" y="1660" on="0"/>
        <pt x="2647" y="1729" on="1"/>
        <pt x="2672" y="1705" on="0"/>
      </contour>
      <contour>
        <pt x="2692" y="189" on="1"/>
        <pt x="2692" y="75" on="0"/>
        <pt x="2648" y="27" on="1"/>
        <pt x="2612" y="27" on="1"/>
        <pt x="2588" y="168" on="0"/>
        <pt x="2546" y="438" on="1"/>
        <pt x="2511" y="628" on="0"/>
        <pt x="2460" y="1031" on="1"/>
        <pt x="2460" y="1033" on="0"/>
        <pt x="2488" y="1121" on="1"/>
        <pt x="2482" y="1128" on="0"/>
        <pt x="2468" y="1128" on="1"/>
        <pt x="2456" y="1128" on="0"/>
        <pt x="2412" y="1107" on="1"/>
        <pt x="2361" y="1082" on="0"/>
        <pt x="2340" y="1076" on="1"/>
        <pt x="2326" y="1089" on="0"/>
        <pt x="2316" y="1089" on="1"/>
        <pt x="2316" y="1091" on="0"/>
        <pt x="2320" y="1126" on="1"/>
        <pt x="2324" y="1154" on="0"/>
        <pt x="2321" y="1172" on="1"/>
        <pt x="2319" y="1180" on="0"/>
        <pt x="2311" y="1201" on="1"/>
        <pt x="2305" y="1219" on="0"/>
        <pt x="2305" y="1235" on="1"/>
        <pt x="2305" y="1287" on="0"/>
        <pt x="2378" y="1352" on="1"/>
        <pt x="2448" y="1413" on="0"/>
        <pt x="2488" y="1413" on="1"/>
        <pt x="2517" y="1413" on="0"/>
        <pt x="2546" y="1370" on="1"/>
        <pt x="2569" y="1334" on="0"/>
        <pt x="2569" y="1321" on="1"/>
        <pt x="2569" y="1307" on="0"/>
        <pt x="2558" y="1296" on="1"/>
        <pt x="2531" y="1270" on="0"/>
        <pt x="2528" y="1267" on="1"/>
        <pt x="2562" y="1258" on="0"/>
        <pt x="2681" y="1258" on="1"/>
        <pt x="2676" y="1214" on="0"/>
        <pt x="2619" y="1185" on="1"/>
        <pt x="2578" y="1168" on="0"/>
        <pt x="2539" y="1153" on="1"/>
        <pt x="2569" y="1070" on="0"/>
        <pt x="2591" y="939" on="1"/>
        <pt x="2609" y="827" on="0"/>
        <pt x="2647" y="603" on="0"/>
        <pt x="2671" y="398" on="1"/>
        <pt x="2692" y="217" on="0"/>
      </contour>
      <contour>
        <pt x="1948" y="1602" on="1"/>
        <pt x="1948" y="1552" on="0"/>
        <pt x="1790" y="1444" on="1"/>
        <pt x="1699" y="1386" on="0"/>
        <pt x="1609" y="1329" on="1"/>
        <pt x="1555" y="1289" on="0"/>
        <pt x="1502" y="1248" on="1"/>
        <pt x="1435" y="1202" on="0"/>
        <pt x="1390" y="1199" on="1"/>
        <pt x="1377" y="1213" on="0"/>
        <pt x="1377" y="1235" on="1"/>
        <pt x="1377" y="1292" on="0"/>
        <pt x="1626" y="1461" on="1"/>
        <pt x="1762" y="1549" on="0"/>
        <pt x="1900" y="1638" on="1"/>
        <pt x="1934" y="1638" on="1"/>
        <pt x="1948" y="1624" on="0"/>
      </contour>
      <contour>
        <pt x="1193" y="1332" on="1"/>
        <pt x="1193" y="1321" on="0"/>
        <pt x="1159" y="1261" on="1"/>
        <pt x="1069" y="1291" on="0"/>
        <pt x="1070" y="1291" on="1"/>
        <pt x="1074" y="1291" on="0"/>
        <pt x="728" y="1005" on="0"/>
        <pt x="697" y="1006" on="1"/>
        <pt x="644" y="1006" on="1"/>
        <pt x="641" y="1015" on="0"/>
        <pt x="632" y="1031" on="1"/>
        <pt x="639" y="1041" on="0"/>
        <pt x="811" y="1177" on="1"/>
        <pt x="969" y="1303" on="0"/>
        <pt x="969" y="1337" on="1"/>
        <pt x="969" y="1349" on="0"/>
        <pt x="937" y="1378" on="1"/>
        <pt x="895" y="1415" on="0"/>
        <pt x="879" y="1437" on="1"/>
        <pt x="877" y="1448" on="0"/>
        <pt x="877" y="1464" on="1"/>
        <pt x="877" y="1509" on="0"/>
        <pt x="920" y="1590" on="1"/>
        <pt x="974" y="1688" on="0"/>
        <pt x="1035" y="1688" on="1"/>
        <pt x="1072" y="1688" on="0"/>
        <pt x="1108" y="1626" on="1"/>
        <pt x="1139" y="1573" on="0"/>
        <pt x="1138" y="1551" on="1"/>
        <pt x="1135" y="1476" on="0"/>
        <pt x="1123" y="1420" on="1"/>
        <pt x="1140" y="1398" on="0"/>
        <pt x="1173" y="1368" on="1"/>
        <pt x="1193" y="1352" on="0"/>
      </contour>
      <contour>
        <pt x="856" y="1347" on="1"/>
        <pt x="856" y="1337" on="0"/>
        <pt x="824" y="1271" on="1"/>
        <pt x="801" y="1271" on="0"/>
        <pt x="760" y="1280" on="0"/>
        <pt x="749" y="1280" on="1"/>
        <pt x="747" y="1280" on="0"/>
        <pt x="629" y="1185" on="1"/>
        <pt x="501" y="1084" on="0"/>
        <pt x="412" y="1057" on="1"/>
        <pt x="387" y="1081" on="1"/>
        <pt x="414" y="1123" on="0"/>
        <pt x="522" y="1210" on="1"/>
        <pt x="617" y="1285" on="0"/>
        <pt x="632" y="1335" on="1"/>
        <pt x="561" y="1386" on="0"/>
        <pt x="561" y="1443" on="1"/>
        <pt x="561" y="1513" on="0"/>
        <pt x="604" y="1578" on="1"/>
        <pt x="653" y="1649" on="0"/>
        <pt x="720" y="1649" on="1"/>
        <pt x="730" y="1649" on="0"/>
        <pt x="742" y="1647" on="1"/>
        <pt x="797" y="1587" on="0"/>
        <pt x="797" y="1511" on="1"/>
        <pt x="797" y="1502" on="0"/>
        <pt x="787" y="1420" on="1"/>
        <pt x="807" y="1402" on="0"/>
        <pt x="828" y="1385" on="1"/>
        <pt x="856" y="1361" on="0"/>
      </contour>
      <contour>
        <pt x="2386" y="306" on="1"/>
        <pt x="2386" y="274" on="0"/>
        <pt x="2339" y="220" on="1"/>
        <pt x="2295" y="169" on="0"/>
        <pt x="2279" y="169" on="1"/>
        <pt x="2268" y="169" on="0"/>
        <pt x="2220" y="179" on="0"/>
        <pt x="2207" y="179" on="1"/>
        <pt x="2066" y="179" on="0"/>
        <pt x="1635" y="-4" on="0"/>
        <pt x="1519" y="-4" on="1"/>
        <pt x="1432" y="-4" on="0"/>
        <pt x="1327" y="60" on="1"/>
        <pt x="1311" y="84" on="0"/>
        <pt x="1261" y="129" on="1"/>
        <pt x="1259" y="12" on="0"/>
        <pt x="1257" y="-104" on="1"/>
        <pt x="1241" y="-208" on="0"/>
        <pt x="1109" y="-296" on="1"/>
        <pt x="1069" y="-323" on="0"/>
        <pt x="975" y="-351" on="1"/>
        <pt x="872" y="-381" on="0"/>
        <pt x="800" y="-381" on="1"/>
        <pt x="698" y="-381" on="0"/>
        <pt x="655" y="-357" on="1"/>
        <pt x="489" y="-268" on="0"/>
        <pt x="489" y="-126" on="1"/>
        <pt x="489" y="20" on="0"/>
        <pt x="634" y="219" on="1"/>
        <pt x="672" y="219" on="1"/>
        <pt x="672" y="162" on="1"/>
        <pt x="672" y="153" on="0"/>
        <pt x="591" y="-11" on="0"/>
        <pt x="591" y="-24" on="1"/>
        <pt x="591" y="-122" on="0"/>
        <pt x="703" y="-173" on="1"/>
        <pt x="779" y="-208" on="0"/>
        <pt x="851" y="-208" on="1"/>
        <pt x="878" y="-208" on="0"/>
        <pt x="962" y="-188" on="1"/>
        <pt x="1064" y="-163" on="0"/>
        <pt x="1114" y="-135" on="1"/>
        <pt x="1143" y="-118" on="0"/>
        <pt x="1173" y="-45" on="1"/>
        <pt x="1010" y="975" on="1"/>
        <pt x="1022" y="1013" on="0"/>
        <pt x="1034" y="1050" on="1"/>
        <pt x="1054" y="1098" on="0"/>
        <pt x="1087" y="1117" on="1"/>
        <pt x="1114" y="1090" on="0"/>
        <pt x="1118" y="1063" on="1"/>
        <pt x="1147" y="866" on="0"/>
        <pt x="1218" y="613" on="1"/>
        <pt x="1336" y="200" on="0"/>
        <pt x="1448" y="200" on="1"/>
        <pt x="1464" y="200" on="0"/>
        <pt x="1475" y="217" on="1"/>
        <pt x="1558" y="475" on="0"/>
        <pt x="1728" y="475" on="1"/>
        <pt x="1735" y="475" on="0"/>
        <pt x="1914" y="406" on="1"/>
        <pt x="1982" y="379" on="0"/>
        <pt x="2218" y="332" on="1"/>
        <pt x="2242" y="341" on="0"/>
        <pt x="2374" y="341" on="1"/>
        <pt x="2374" y="338" on="0"/>
        <pt x="2386" y="321" on="0"/>
      </contour>
      <contour>
        <pt x="1998" y="-138" on="1"/>
        <pt x="1998" y="-159" on="0"/>
        <pt x="1973" y="-208" on="1"/>
        <pt x="1940" y="-269" on="0"/>
        <pt x="1902" y="-269" on="1"/>
        <pt x="1880" y="-269" on="0"/>
        <pt x="1830" y="-241" on="1"/>
        <pt x="1774" y="-211" on="0"/>
        <pt x="1774" y="-188" on="1"/>
        <pt x="1774" y="-161" on="0"/>
        <pt x="1854" y="-65" on="0"/>
        <pt x="1876" y="-65" on="1"/>
        <pt x="1897" y="-65" on="0"/>
      </contour>
      <contour>
        <pt x="2528" y="1254" on="1"/>
        <pt x="2496" y="1272" on="0"/>
        <pt x="2442" y="1301" on="1"/>
        <pt x="2418" y="1277" on="0"/>
        <pt x="2418" y="1262" on="1"/>
        <pt x="2457" y="1254" on="0"/>
      </contour>
      <contour>
        <pt x="1050" y="1483" on="1"/>
        <pt x="1031" y="1531" on="0"/>
        <pt x="1002" y="1545" on="1"/>
        <pt x="989" y="1497" on="1"/>
        <pt x="1036" y="1475" on="0"/>
      </contour>
      <contour>
        <pt x="702" y="1466" on="1"/>
        <pt x="702" y="1514" on="1"/>
        <pt x="665" y="1514" on="1"/>
        <pt x="655" y="1495" on="0"/>
        <pt x="664" y="1479" on="1"/>
        <pt x="717" y="1466" on="0"/>
      </contour>
      <contour>
        <pt x="1815" y="239" on="1"/>
        <pt x="1753" y="301" on="0"/>
        <pt x="1672" y="301" on="1"/>
        <pt x="1573" y="301" on="0"/>
        <pt x="1551" y="180" on="1"/>
        <pt x="1625" y="180" on="1"/>
        <pt x="1669" y="179" on="0"/>
      </contour>
    </TTGlyph>
    <TTGlyph name="irghizufinal" xMin="142" yMin="226" xMax="842" yMax="1588">
      <contour>
        <pt x="142" y="226" on="1"/>
        <pt x="142" y="1588" on="1"/>
        <pt x="842" y="1588" on="1"/>
        <pt x="842" y="226" on="1"/>
      </contour>
      <contour>
        <pt x="284" y="368" on="1"/>
        <pt x="700" y="368" on="1"/>
        <pt x="700" y="1447" on="1"/>
        <pt x="284" y="1447" on="1"/>
      </contour>
    </TTGlyph>
    <TTGlyph name="jehfinalarabic" xMin="142" yMin="226" xMax="842" yMax="1588">
      <contour>
        <pt x="142" y="226" on="1"/>
        <pt x="142" y="1588" on="1"/>
        <pt x="842" y="1588" on="1"/>
        <pt x="842" y="226" on="1"/>
      </contour>
      <contour>
        <pt x="284" y="368" on="1"/>
        <pt x="700" y="368" on="1"/>
        <pt x="700" y="1447" on="1"/>
        <pt x="284" y="1447" on="1"/>
      </contour>
    </TTGlyph>
    <TTGlyph name="kafringfinal" xMin="142" yMin="226" xMax="842" yMax="1588">
      <contour>
        <pt x="142" y="226" on="1"/>
        <pt x="142" y="1588" on="1"/>
        <pt x="842" y="1588" on="1"/>
        <pt x="842" y="226" on="1"/>
      </contour>
      <contour>
        <pt x="284" y="368" on="1"/>
        <pt x="700" y="368" on="1"/>
        <pt x="700" y="1447" on="1"/>
        <pt x="284" y="1447" on="1"/>
      </contour>
    </TTGlyph>
    <TTGlyph name="kafringinitial" xMin="142" yMin="226" xMax="842" yMax="1588">
      <contour>
        <pt x="142" y="226" on="1"/>
        <pt x="142" y="1588" on="1"/>
        <pt x="842" y="1588" on="1"/>
        <pt x="842" y="226" on="1"/>
      </contour>
      <contour>
        <pt x="284" y="368" on="1"/>
        <pt x="700" y="368" on="1"/>
        <pt x="700" y="1447" on="1"/>
        <pt x="284" y="1447" on="1"/>
      </contour>
    </TTGlyph>
    <TTGlyph name="kafringmedial" xMin="142" yMin="226" xMax="842" yMax="1588">
      <contour>
        <pt x="142" y="226" on="1"/>
        <pt x="142" y="1588" on="1"/>
        <pt x="842" y="1588" on="1"/>
        <pt x="842" y="226" on="1"/>
      </contour>
      <contour>
        <pt x="284" y="368" on="1"/>
        <pt x="700" y="368" on="1"/>
        <pt x="700" y="1447" on="1"/>
        <pt x="284" y="1447" on="1"/>
      </contour>
    </TTGlyph>
    <TTGlyph name="kashidaautoarabic" xMin="142" yMin="226" xMax="842" yMax="1588">
      <contour>
        <pt x="142" y="226" on="1"/>
        <pt x="142" y="1588" on="1"/>
        <pt x="842" y="1588" on="1"/>
        <pt x="842" y="226" on="1"/>
      </contour>
      <contour>
        <pt x="284" y="368" on="1"/>
        <pt x="700" y="368" on="1"/>
        <pt x="700" y="1447" on="1"/>
        <pt x="284" y="1447" on="1"/>
      </contour>
    </TTGlyph>
    <TTGlyph name="kashidaautonosidebearingarabic" xMin="142" yMin="226" xMax="842" yMax="1588">
      <contour>
        <pt x="142" y="226" on="1"/>
        <pt x="142" y="1588" on="1"/>
        <pt x="842" y="1588" on="1"/>
        <pt x="842" y="226" on="1"/>
      </contour>
      <contour>
        <pt x="284" y="368" on="1"/>
        <pt x="700" y="368" on="1"/>
        <pt x="700" y="1447" on="1"/>
        <pt x="284" y="1447" on="1"/>
      </contour>
    </TTGlyph>
    <TTGlyph name="kehehfinalarabic" xMin="142" yMin="226" xMax="842" yMax="1588">
      <contour>
        <pt x="142" y="226" on="1"/>
        <pt x="142" y="1588" on="1"/>
        <pt x="842" y="1588" on="1"/>
        <pt x="842" y="226" on="1"/>
      </contour>
      <contour>
        <pt x="284" y="368" on="1"/>
        <pt x="700" y="368" on="1"/>
        <pt x="700" y="1447" on="1"/>
        <pt x="284" y="1447" on="1"/>
      </contour>
    </TTGlyph>
    <TTGlyph name="kehehinitialarabic" xMin="142" yMin="226" xMax="842" yMax="1588">
      <contour>
        <pt x="142" y="226" on="1"/>
        <pt x="142" y="1588" on="1"/>
        <pt x="842" y="1588" on="1"/>
        <pt x="842" y="226" on="1"/>
      </contour>
      <contour>
        <pt x="284" y="368" on="1"/>
        <pt x="700" y="368" on="1"/>
        <pt x="700" y="1447" on="1"/>
        <pt x="284" y="1447" on="1"/>
      </contour>
    </TTGlyph>
    <TTGlyph name="kehehmedialarabic" xMin="142" yMin="226" xMax="842" yMax="1588">
      <contour>
        <pt x="142" y="226" on="1"/>
        <pt x="142" y="1588" on="1"/>
        <pt x="842" y="1588" on="1"/>
        <pt x="842" y="226" on="1"/>
      </contour>
      <contour>
        <pt x="284" y="368" on="1"/>
        <pt x="700" y="368" on="1"/>
        <pt x="700" y="1447" on="1"/>
        <pt x="284" y="1447" on="1"/>
      </contour>
    </TTGlyph>
    <TTGlyph name="kirghizyifinal" xMin="142" yMin="226" xMax="842" yMax="1588">
      <contour>
        <pt x="142" y="226" on="1"/>
        <pt x="142" y="1588" on="1"/>
        <pt x="842" y="1588" on="1"/>
        <pt x="842" y="226" on="1"/>
      </contour>
      <contour>
        <pt x="284" y="368" on="1"/>
        <pt x="700" y="368" on="1"/>
        <pt x="700" y="1447" on="1"/>
        <pt x="284" y="1447" on="1"/>
      </contour>
    </TTGlyph>
    <TTGlyph name="lammeemjeeminitialarabic" xMin="142" yMin="226" xMax="842" yMax="1588">
      <contour>
        <pt x="142" y="226" on="1"/>
        <pt x="142" y="1588" on="1"/>
        <pt x="842" y="1588" on="1"/>
        <pt x="842" y="226" on="1"/>
      </contour>
      <contour>
        <pt x="284" y="368" on="1"/>
        <pt x="700" y="368" on="1"/>
        <pt x="700" y="1447" on="1"/>
        <pt x="284" y="1447" on="1"/>
      </contour>
    </TTGlyph>
    <TTGlyph name="lammeemkhahinitialarabic" xMin="142" yMin="226" xMax="842" yMax="1588">
      <contour>
        <pt x="142" y="226" on="1"/>
        <pt x="142" y="1588" on="1"/>
        <pt x="842" y="1588" on="1"/>
        <pt x="842" y="226" on="1"/>
      </contour>
      <contour>
        <pt x="284" y="368" on="1"/>
        <pt x="700" y="368" on="1"/>
        <pt x="700" y="1447" on="1"/>
        <pt x="284" y="1447" on="1"/>
      </contour>
    </TTGlyph>
    <TTGlyph name="lamthreedotsabovefinal" xMin="142" yMin="226" xMax="842" yMax="1588">
      <contour>
        <pt x="142" y="226" on="1"/>
        <pt x="142" y="1588" on="1"/>
        <pt x="842" y="1588" on="1"/>
        <pt x="842" y="226" on="1"/>
      </contour>
      <contour>
        <pt x="284" y="368" on="1"/>
        <pt x="700" y="368" on="1"/>
        <pt x="700" y="1447" on="1"/>
        <pt x="284" y="1447" on="1"/>
      </contour>
    </TTGlyph>
    <TTGlyph name="lamthreedotsaboveinitial" xMin="142" yMin="226" xMax="842" yMax="1588">
      <contour>
        <pt x="142" y="226" on="1"/>
        <pt x="142" y="1588" on="1"/>
        <pt x="842" y="1588" on="1"/>
        <pt x="842" y="226" on="1"/>
      </contour>
      <contour>
        <pt x="284" y="368" on="1"/>
        <pt x="700" y="368" on="1"/>
        <pt x="700" y="1447" on="1"/>
        <pt x="284" y="1447" on="1"/>
      </contour>
    </TTGlyph>
    <TTGlyph name="lamthreedotsabovemedial" xMin="142" yMin="226" xMax="842" yMax="1588">
      <contour>
        <pt x="142" y="226" on="1"/>
        <pt x="142" y="1588" on="1"/>
        <pt x="842" y="1588" on="1"/>
        <pt x="842" y="226" on="1"/>
      </contour>
      <contour>
        <pt x="284" y="368" on="1"/>
        <pt x="700" y="368" on="1"/>
        <pt x="700" y="1447" on="1"/>
        <pt x="284" y="1447" on="1"/>
      </contour>
    </TTGlyph>
    <TTGlyph name="less" xMin="142" yMin="226" xMax="842" yMax="1588">
      <contour>
        <pt x="142" y="226" on="1"/>
        <pt x="142" y="1588" on="1"/>
        <pt x="842" y="1588" on="1"/>
        <pt x="842" y="226" on="1"/>
      </contour>
      <contour>
        <pt x="284" y="368" on="1"/>
        <pt x="700" y="368" on="1"/>
        <pt x="700" y="1447" on="1"/>
        <pt x="284" y="1447" on="1"/>
      </contour>
    </TTGlyph>
    <TTGlyph name="meemmeemisolatedarabic" xMin="142" yMin="226" xMax="842" yMax="1588">
      <contour>
        <pt x="142" y="226" on="1"/>
        <pt x="142" y="1588" on="1"/>
        <pt x="842" y="1588" on="1"/>
        <pt x="842" y="226" on="1"/>
      </contour>
      <contour>
        <pt x="284" y="368" on="1"/>
        <pt x="700" y="368" on="1"/>
        <pt x="700" y="1447" on="1"/>
        <pt x="284" y="1447" on="1"/>
      </contour>
    </TTGlyph>
    <TTGlyph name="multiply" xMin="142" yMin="226" xMax="842" yMax="1588">
      <contour>
        <pt x="142" y="226" on="1"/>
        <pt x="142" y="1588" on="1"/>
        <pt x="842" y="1588" on="1"/>
        <pt x="842" y="226" on="1"/>
      </contour>
      <contour>
        <pt x="284" y="368" on="1"/>
        <pt x="700" y="368" on="1"/>
        <pt x="700" y="1447" on="1"/>
        <pt x="284" y="1447" on="1"/>
      </contour>
    </TTGlyph>
    <TTGlyph name="noonghunnafinalarabic" xMin="142" yMin="226" xMax="842" yMax="1588">
      <contour>
        <pt x="142" y="226" on="1"/>
        <pt x="142" y="1588" on="1"/>
        <pt x="842" y="1588" on="1"/>
        <pt x="842" y="226" on="1"/>
      </contour>
      <contour>
        <pt x="284" y="368" on="1"/>
        <pt x="700" y="368" on="1"/>
        <pt x="700" y="1447" on="1"/>
        <pt x="284" y="1447" on="1"/>
      </contour>
    </TTGlyph>
    <TTGlyph name="noonjeemisolatedarabic" xMin="142" yMin="226" xMax="842" yMax="1588">
      <contour>
        <pt x="142" y="226" on="1"/>
        <pt x="142" y="1588" on="1"/>
        <pt x="842" y="1588" on="1"/>
        <pt x="842" y="226" on="1"/>
      </contour>
      <contour>
        <pt x="284" y="368" on="1"/>
        <pt x="700" y="368" on="1"/>
        <pt x="700" y="1447" on="1"/>
        <pt x="284" y="1447" on="1"/>
      </contour>
    </TTGlyph>
    <TTGlyph name="noonmeemisolatedarabic" xMin="142" yMin="226" xMax="842" yMax="1588">
      <contour>
        <pt x="142" y="226" on="1"/>
        <pt x="142" y="1588" on="1"/>
        <pt x="842" y="1588" on="1"/>
        <pt x="842" y="226" on="1"/>
      </contour>
      <contour>
        <pt x="284" y="368" on="1"/>
        <pt x="700" y="368" on="1"/>
        <pt x="700" y="1447" on="1"/>
        <pt x="284" y="1447" on="1"/>
      </contour>
    </TTGlyph>
    <TTGlyph name="noonringfinal" xMin="142" yMin="226" xMax="842" yMax="1588">
      <contour>
        <pt x="142" y="226" on="1"/>
        <pt x="142" y="1588" on="1"/>
        <pt x="842" y="1588" on="1"/>
        <pt x="842" y="226" on="1"/>
      </contour>
      <contour>
        <pt x="284" y="368" on="1"/>
        <pt x="700" y="368" on="1"/>
        <pt x="700" y="1447" on="1"/>
        <pt x="284" y="1447" on="1"/>
      </contour>
    </TTGlyph>
    <TTGlyph name="noonringinitial" xMin="142" yMin="226" xMax="842" yMax="1588">
      <contour>
        <pt x="142" y="226" on="1"/>
        <pt x="142" y="1588" on="1"/>
        <pt x="842" y="1588" on="1"/>
        <pt x="842" y="226" on="1"/>
      </contour>
      <contour>
        <pt x="284" y="368" on="1"/>
        <pt x="700" y="368" on="1"/>
        <pt x="700" y="1447" on="1"/>
        <pt x="284" y="1447" on="1"/>
      </contour>
    </TTGlyph>
    <TTGlyph name="noonringmedial" xMin="142" yMin="226" xMax="842" yMax="1588">
      <contour>
        <pt x="142" y="226" on="1"/>
        <pt x="142" y="1588" on="1"/>
        <pt x="842" y="1588" on="1"/>
        <pt x="842" y="226" on="1"/>
      </contour>
      <contour>
        <pt x="284" y="368" on="1"/>
        <pt x="700" y="368" on="1"/>
        <pt x="700" y="1447" on="1"/>
        <pt x="284" y="1447" on="1"/>
      </contour>
    </TTGlyph>
    <TTGlyph name="numbersign" xMin="142" yMin="226" xMax="842" yMax="1588">
      <contour>
        <pt x="142" y="226" on="1"/>
        <pt x="142" y="1588" on="1"/>
        <pt x="842" y="1588" on="1"/>
        <pt x="842" y="226" on="1"/>
      </contour>
      <contour>
        <pt x="284" y="368" on="1"/>
        <pt x="700" y="368" on="1"/>
        <pt x="700" y="1447" on="1"/>
        <pt x="284" y="1447" on="1"/>
      </contour>
    </TTGlyph>
    <TTGlyph name="parenleft" xMin="142" yMin="226" xMax="842" yMax="1588">
      <contour>
        <pt x="142" y="226" on="1"/>
        <pt x="142" y="1588" on="1"/>
        <pt x="842" y="1588" on="1"/>
        <pt x="842" y="226" on="1"/>
      </contour>
      <contour>
        <pt x="284" y="368" on="1"/>
        <pt x="700" y="368" on="1"/>
        <pt x="700" y="1447" on="1"/>
        <pt x="284" y="1447" on="1"/>
      </contour>
    </TTGlyph>
    <TTGlyph name="parenright" xMin="142" yMin="226" xMax="842" yMax="1588">
      <contour>
        <pt x="142" y="226" on="1"/>
        <pt x="142" y="1588" on="1"/>
        <pt x="842" y="1588" on="1"/>
        <pt x="842" y="226" on="1"/>
      </contour>
      <contour>
        <pt x="284" y="368" on="1"/>
        <pt x="700" y="368" on="1"/>
        <pt x="700" y="1447" on="1"/>
        <pt x="284" y="1447" on="1"/>
      </contour>
    </TTGlyph>
    <TTGlyph name="pashtoefinal" xMin="142" yMin="226" xMax="842" yMax="1588">
      <contour>
        <pt x="142" y="226" on="1"/>
        <pt x="142" y="1588" on="1"/>
        <pt x="842" y="1588" on="1"/>
        <pt x="842" y="226" on="1"/>
      </contour>
      <contour>
        <pt x="284" y="368" on="1"/>
        <pt x="700" y="368" on="1"/>
        <pt x="700" y="1447" on="1"/>
        <pt x="284" y="1447" on="1"/>
      </contour>
    </TTGlyph>
    <TTGlyph name="pashtoeinitial" xMin="142" yMin="226" xMax="842" yMax="1588">
      <contour>
        <pt x="142" y="226" on="1"/>
        <pt x="142" y="1588" on="1"/>
        <pt x="842" y="1588" on="1"/>
        <pt x="842" y="226" on="1"/>
      </contour>
      <contour>
        <pt x="284" y="368" on="1"/>
        <pt x="700" y="368" on="1"/>
        <pt x="700" y="1447" on="1"/>
        <pt x="284" y="1447" on="1"/>
      </contour>
    </TTGlyph>
    <TTGlyph name="pashtoemedial" xMin="142" yMin="226" xMax="842" yMax="1588">
      <contour>
        <pt x="142" y="226" on="1"/>
        <pt x="142" y="1588" on="1"/>
        <pt x="842" y="1588" on="1"/>
        <pt x="842" y="226" on="1"/>
      </contour>
      <contour>
        <pt x="284" y="368" on="1"/>
        <pt x="700" y="368" on="1"/>
        <pt x="700" y="1447" on="1"/>
        <pt x="284" y="1447" on="1"/>
      </contour>
    </TTGlyph>
    <TTGlyph name="pehfinalarabic" xMin="142" yMin="226" xMax="842" yMax="1588">
      <contour>
        <pt x="142" y="226" on="1"/>
        <pt x="142" y="1588" on="1"/>
        <pt x="842" y="1588" on="1"/>
        <pt x="842" y="226" on="1"/>
      </contour>
      <contour>
        <pt x="284" y="368" on="1"/>
        <pt x="700" y="368" on="1"/>
        <pt x="700" y="1447" on="1"/>
        <pt x="284" y="1447" on="1"/>
      </contour>
    </TTGlyph>
    <TTGlyph name="pehinitialarabic" xMin="142" yMin="226" xMax="842" yMax="1588">
      <contour>
        <pt x="142" y="226" on="1"/>
        <pt x="142" y="1588" on="1"/>
        <pt x="842" y="1588" on="1"/>
        <pt x="842" y="226" on="1"/>
      </contour>
      <contour>
        <pt x="284" y="368" on="1"/>
        <pt x="700" y="368" on="1"/>
        <pt x="700" y="1447" on="1"/>
        <pt x="284" y="1447" on="1"/>
      </contour>
    </TTGlyph>
    <TTGlyph name="pehmedialarabic" xMin="142" yMin="226" xMax="842" yMax="1588">
      <contour>
        <pt x="142" y="226" on="1"/>
        <pt x="142" y="1588" on="1"/>
        <pt x="842" y="1588" on="1"/>
        <pt x="842" y="226" on="1"/>
      </contour>
      <contour>
        <pt x="284" y="368" on="1"/>
        <pt x="700" y="368" on="1"/>
        <pt x="700" y="1447" on="1"/>
        <pt x="284" y="1447" on="1"/>
      </contour>
    </TTGlyph>
    <TTGlyph name="percent" xMin="142" yMin="226" xMax="842" yMax="1588">
      <contour>
        <pt x="142" y="226" on="1"/>
        <pt x="142" y="1588" on="1"/>
        <pt x="842" y="1588" on="1"/>
        <pt x="842" y="226" on="1"/>
      </contour>
      <contour>
        <pt x="284" y="368" on="1"/>
        <pt x="700" y="368" on="1"/>
        <pt x="700" y="1447" on="1"/>
        <pt x="284" y="1447" on="1"/>
      </contour>
    </TTGlyph>
    <TTGlyph name="period" xMin="142" yMin="226" xMax="842" yMax="1588">
      <contour>
        <pt x="142" y="226" on="1"/>
        <pt x="142" y="1588" on="1"/>
        <pt x="842" y="1588" on="1"/>
        <pt x="842" y="226" on="1"/>
      </contour>
      <contour>
        <pt x="284" y="368" on="1"/>
        <pt x="700" y="368" on="1"/>
        <pt x="700" y="1447" on="1"/>
        <pt x="284" y="1447" on="1"/>
      </contour>
    </TTGlyph>
    <TTGlyph name="plus" xMin="142" yMin="226" xMax="842" yMax="1588">
      <contour>
        <pt x="142" y="226" on="1"/>
        <pt x="142" y="1588" on="1"/>
        <pt x="842" y="1588" on="1"/>
        <pt x="842" y="226" on="1"/>
      </contour>
      <contour>
        <pt x="284" y="368" on="1"/>
        <pt x="700" y="368" on="1"/>
        <pt x="700" y="1447" on="1"/>
        <pt x="284" y="1447" on="1"/>
      </contour>
    </TTGlyph>
    <TTGlyph name="quotedbl" xMin="142" yMin="226" xMax="842" yMax="1588">
      <contour>
        <pt x="142" y="226" on="1"/>
        <pt x="142" y="1588" on="1"/>
        <pt x="842" y="1588" on="1"/>
        <pt x="842" y="226" on="1"/>
      </contour>
      <contour>
        <pt x="284" y="368" on="1"/>
        <pt x="700" y="368" on="1"/>
        <pt x="700" y="1447" on="1"/>
        <pt x="284" y="1447" on="1"/>
      </contour>
    </TTGlyph>
    <TTGlyph name="quotesingle" xMin="142" yMin="226" xMax="842" yMax="1588">
      <contour>
        <pt x="142" y="226" on="1"/>
        <pt x="142" y="1588" on="1"/>
        <pt x="842" y="1588" on="1"/>
        <pt x="842" y="226" on="1"/>
      </contour>
      <contour>
        <pt x="284" y="368" on="1"/>
        <pt x="700" y="368" on="1"/>
        <pt x="700" y="1447" on="1"/>
        <pt x="284" y="1447" on="1"/>
      </contour>
    </TTGlyph>
    <TTGlyph name="rehdotbelowdotabovefinal" xMin="142" yMin="226" xMax="842" yMax="1588">
      <contour>
        <pt x="142" y="226" on="1"/>
        <pt x="142" y="1588" on="1"/>
        <pt x="842" y="1588" on="1"/>
        <pt x="842" y="226" on="1"/>
      </contour>
      <contour>
        <pt x="284" y="368" on="1"/>
        <pt x="700" y="368" on="1"/>
        <pt x="700" y="1447" on="1"/>
        <pt x="284" y="1447" on="1"/>
      </contour>
    </TTGlyph>
    <TTGlyph name="rehringfinal" xMin="142" yMin="226" xMax="842" yMax="1588">
      <contour>
        <pt x="142" y="226" on="1"/>
        <pt x="142" y="1588" on="1"/>
        <pt x="842" y="1588" on="1"/>
        <pt x="842" y="226" on="1"/>
      </contour>
      <contour>
        <pt x="284" y="368" on="1"/>
        <pt x="700" y="368" on="1"/>
        <pt x="700" y="1447" on="1"/>
        <pt x="284" y="1447" on="1"/>
      </contour>
    </TTGlyph>
    <TTGlyph name="rrehfinalarabic" xMin="142" yMin="226" xMax="842" yMax="1588">
      <contour>
        <pt x="142" y="226" on="1"/>
        <pt x="142" y="1588" on="1"/>
        <pt x="842" y="1588" on="1"/>
        <pt x="842" y="226" on="1"/>
      </contour>
      <contour>
        <pt x="284" y="368" on="1"/>
        <pt x="700" y="368" on="1"/>
        <pt x="700" y="1447" on="1"/>
        <pt x="284" y="1447" on="1"/>
      </contour>
    </TTGlyph>
    <TTGlyph name="seendotbelowdotabovefinal" xMin="142" yMin="226" xMax="842" yMax="1588">
      <contour>
        <pt x="142" y="226" on="1"/>
        <pt x="142" y="1588" on="1"/>
        <pt x="842" y="1588" on="1"/>
        <pt x="842" y="226" on="1"/>
      </contour>
      <contour>
        <pt x="284" y="368" on="1"/>
        <pt x="700" y="368" on="1"/>
        <pt x="700" y="1447" on="1"/>
        <pt x="284" y="1447" on="1"/>
      </contour>
    </TTGlyph>
    <TTGlyph name="seendotbelowdotaboveinitial" xMin="142" yMin="226" xMax="842" yMax="1588">
      <contour>
        <pt x="142" y="226" on="1"/>
        <pt x="142" y="1588" on="1"/>
        <pt x="842" y="1588" on="1"/>
        <pt x="842" y="226" on="1"/>
      </contour>
      <contour>
        <pt x="284" y="368" on="1"/>
        <pt x="700" y="368" on="1"/>
        <pt x="700" y="1447" on="1"/>
        <pt x="284" y="1447" on="1"/>
      </contour>
    </TTGlyph>
    <TTGlyph name="seendotbelowdotabovemedial" xMin="142" yMin="226" xMax="842" yMax="1588">
      <contour>
        <pt x="142" y="226" on="1"/>
        <pt x="142" y="1588" on="1"/>
        <pt x="842" y="1588" on="1"/>
        <pt x="842" y="226" on="1"/>
      </contour>
      <contour>
        <pt x="284" y="368" on="1"/>
        <pt x="700" y="368" on="1"/>
        <pt x="700" y="1447" on="1"/>
        <pt x="284" y="1447" on="1"/>
      </contour>
    </TTGlyph>
    <TTGlyph name="shaddadammaarabic" xMin="142" yMin="226" xMax="842" yMax="1588">
      <contour>
        <pt x="142" y="226" on="1"/>
        <pt x="142" y="1588" on="1"/>
        <pt x="842" y="1588" on="1"/>
        <pt x="842" y="226" on="1"/>
      </contour>
      <contour>
        <pt x="284" y="368" on="1"/>
        <pt x="700" y="368" on="1"/>
        <pt x="700" y="1447" on="1"/>
        <pt x="284" y="1447" on="1"/>
      </contour>
    </TTGlyph>
    <TTGlyph name="shaddadammatanarabic" xMin="142" yMin="226" xMax="842" yMax="1588">
      <contour>
        <pt x="142" y="226" on="1"/>
        <pt x="142" y="1588" on="1"/>
        <pt x="842" y="1588" on="1"/>
        <pt x="842" y="226" on="1"/>
      </contour>
      <contour>
        <pt x="284" y="368" on="1"/>
        <pt x="700" y="368" on="1"/>
        <pt x="700" y="1447" on="1"/>
        <pt x="284" y="1447" on="1"/>
      </contour>
    </TTGlyph>
    <TTGlyph name="shaddafathaarabic" xMin="142" yMin="226" xMax="842" yMax="1588">
      <contour>
        <pt x="142" y="226" on="1"/>
        <pt x="142" y="1588" on="1"/>
        <pt x="842" y="1588" on="1"/>
        <pt x="842" y="226" on="1"/>
      </contour>
      <contour>
        <pt x="284" y="368" on="1"/>
        <pt x="700" y="368" on="1"/>
        <pt x="700" y="1447" on="1"/>
        <pt x="284" y="1447" on="1"/>
      </contour>
    </TTGlyph>
    <TTGlyph name="shaddakasraarabic" xMin="142" yMin="226" xMax="842" yMax="1588">
      <contour>
        <pt x="142" y="226" on="1"/>
        <pt x="142" y="1588" on="1"/>
        <pt x="842" y="1588" on="1"/>
        <pt x="842" y="226" on="1"/>
      </contour>
      <contour>
        <pt x="284" y="368" on="1"/>
        <pt x="700" y="368" on="1"/>
        <pt x="700" y="1447" on="1"/>
        <pt x="284" y="1447" on="1"/>
      </contour>
    </TTGlyph>
    <TTGlyph name="shaddakasratanarabic" xMin="142" yMin="226" xMax="842" yMax="1588">
      <contour>
        <pt x="142" y="226" on="1"/>
        <pt x="142" y="1588" on="1"/>
        <pt x="842" y="1588" on="1"/>
        <pt x="842" y="226" on="1"/>
      </contour>
      <contour>
        <pt x="284" y="368" on="1"/>
        <pt x="700" y="368" on="1"/>
        <pt x="700" y="1447" on="1"/>
        <pt x="284" y="1447" on="1"/>
      </contour>
    </TTGlyph>
    <TTGlyph name="slash" xMin="142" yMin="226" xMax="842" yMax="1588">
      <contour>
        <pt x="142" y="226" on="1"/>
        <pt x="142" y="1588" on="1"/>
        <pt x="842" y="1588" on="1"/>
        <pt x="842" y="226" on="1"/>
      </contour>
      <contour>
        <pt x="284" y="368" on="1"/>
        <pt x="700" y="368" on="1"/>
        <pt x="700" y="1447" on="1"/>
        <pt x="284" y="1447" on="1"/>
      </contour>
    </TTGlyph>
    <TTGlyph name="space" xMin="142" yMin="226" xMax="842" yMax="1588">
      <contour>
        <pt x="142" y="226" on="1"/>
        <pt x="142" y="1588" on="1"/>
        <pt x="842" y="1588" on="1"/>
        <pt x="842" y="226" on="1"/>
      </contour>
      <contour>
        <pt x="284" y="368" on="1"/>
        <pt x="700" y="368" on="1"/>
        <pt x="700" y="1447" on="1"/>
        <pt x="284" y="1447" on="1"/>
      </contour>
    </TTGlyph>
    <TTGlyph name="tchehfinalarabic" xMin="142" yMin="226" xMax="842" yMax="1588">
      <contour>
        <pt x="142" y="226" on="1"/>
        <pt x="142" y="1588" on="1"/>
        <pt x="842" y="1588" on="1"/>
        <pt x="842" y="226" on="1"/>
      </contour>
      <contour>
        <pt x="284" y="368" on="1"/>
        <pt x="700" y="368" on="1"/>
        <pt x="700" y="1447" on="1"/>
        <pt x="284" y="1447" on="1"/>
      </contour>
    </TTGlyph>
    <TTGlyph name="tchehinitialarabic" xMin="142" yMin="226" xMax="842" yMax="1588">
      <contour>
        <pt x="142" y="226" on="1"/>
        <pt x="142" y="1588" on="1"/>
        <pt x="842" y="1588" on="1"/>
        <pt x="842" y="226" on="1"/>
      </contour>
      <contour>
        <pt x="284" y="368" on="1"/>
        <pt x="700" y="368" on="1"/>
        <pt x="700" y="1447" on="1"/>
        <pt x="284" y="1447" on="1"/>
      </contour>
    </TTGlyph>
    <TTGlyph name="tchehmedialarabic" xMin="142" yMin="226" xMax="842" yMax="1588">
      <contour>
        <pt x="142" y="226" on="1"/>
        <pt x="142" y="1588" on="1"/>
        <pt x="842" y="1588" on="1"/>
        <pt x="842" y="226" on="1"/>
      </contour>
      <contour>
        <pt x="284" y="368" on="1"/>
        <pt x="700" y="368" on="1"/>
        <pt x="700" y="1447" on="1"/>
        <pt x="284" y="1447" on="1"/>
      </contour>
    </TTGlyph>
    <TTGlyph name="tehhahisolatedarabic" xMin="142" yMin="226" xMax="842" yMax="1588">
      <contour>
        <pt x="142" y="226" on="1"/>
        <pt x="142" y="1588" on="1"/>
        <pt x="842" y="1588" on="1"/>
        <pt x="842" y="226" on="1"/>
      </contour>
      <contour>
        <pt x="284" y="368" on="1"/>
        <pt x="700" y="368" on="1"/>
        <pt x="700" y="1447" on="1"/>
        <pt x="284" y="1447" on="1"/>
      </contour>
    </TTGlyph>
    <TTGlyph name="tehjeemisolatedarabic" xMin="142" yMin="226" xMax="842" yMax="1588">
      <contour>
        <pt x="142" y="226" on="1"/>
        <pt x="142" y="1588" on="1"/>
        <pt x="842" y="1588" on="1"/>
        <pt x="842" y="226" on="1"/>
      </contour>
      <contour>
        <pt x="284" y="368" on="1"/>
        <pt x="700" y="368" on="1"/>
        <pt x="700" y="1447" on="1"/>
        <pt x="284" y="1447" on="1"/>
      </contour>
    </TTGlyph>
    <TTGlyph name="tehmeemisolatedarabic" xMin="142" yMin="226" xMax="842" yMax="1588">
      <contour>
        <pt x="142" y="226" on="1"/>
        <pt x="142" y="1588" on="1"/>
        <pt x="842" y="1588" on="1"/>
        <pt x="842" y="226" on="1"/>
      </contour>
      <contour>
        <pt x="284" y="368" on="1"/>
        <pt x="700" y="368" on="1"/>
        <pt x="700" y="1447" on="1"/>
        <pt x="284" y="1447" on="1"/>
      </contour>
    </TTGlyph>
    <TTGlyph name="tehnoonfinalarabic" xMin="142" yMin="226" xMax="842" yMax="1588">
      <contour>
        <pt x="142" y="226" on="1"/>
        <pt x="142" y="1588" on="1"/>
        <pt x="842" y="1588" on="1"/>
        <pt x="842" y="226" on="1"/>
      </contour>
      <contour>
        <pt x="284" y="368" on="1"/>
        <pt x="700" y="368" on="1"/>
        <pt x="700" y="1447" on="1"/>
        <pt x="284" y="1447" on="1"/>
      </contour>
    </TTGlyph>
    <TTGlyph name="tehringfinal" xMin="142" yMin="226" xMax="842" yMax="1588">
      <contour>
        <pt x="142" y="226" on="1"/>
        <pt x="142" y="1588" on="1"/>
        <pt x="842" y="1588" on="1"/>
        <pt x="842" y="226" on="1"/>
      </contour>
      <contour>
        <pt x="284" y="368" on="1"/>
        <pt x="700" y="368" on="1"/>
        <pt x="700" y="1447" on="1"/>
        <pt x="284" y="1447" on="1"/>
      </contour>
    </TTGlyph>
    <TTGlyph name="tehringinitial" xMin="142" yMin="226" xMax="842" yMax="1588">
      <contour>
        <pt x="142" y="226" on="1"/>
        <pt x="142" y="1588" on="1"/>
        <pt x="842" y="1588" on="1"/>
        <pt x="842" y="226" on="1"/>
      </contour>
      <contour>
        <pt x="284" y="368" on="1"/>
        <pt x="700" y="368" on="1"/>
        <pt x="700" y="1447" on="1"/>
        <pt x="284" y="1447" on="1"/>
      </contour>
    </TTGlyph>
    <TTGlyph name="tehringmedial" xMin="142" yMin="226" xMax="842" yMax="1588">
      <contour>
        <pt x="142" y="226" on="1"/>
        <pt x="142" y="1588" on="1"/>
        <pt x="842" y="1588" on="1"/>
        <pt x="842" y="226" on="1"/>
      </contour>
      <contour>
        <pt x="284" y="368" on="1"/>
        <pt x="700" y="368" on="1"/>
        <pt x="700" y="1447" on="1"/>
        <pt x="284" y="1447" on="1"/>
      </contour>
    </TTGlyph>
    <TTGlyph name="ttehfinalarabic" xMin="142" yMin="226" xMax="842" yMax="1588">
      <contour>
        <pt x="142" y="226" on="1"/>
        <pt x="142" y="1588" on="1"/>
        <pt x="842" y="1588" on="1"/>
        <pt x="842" y="226" on="1"/>
      </contour>
      <contour>
        <pt x="284" y="368" on="1"/>
        <pt x="700" y="368" on="1"/>
        <pt x="700" y="1447" on="1"/>
        <pt x="284" y="1447" on="1"/>
      </contour>
    </TTGlyph>
    <TTGlyph name="ttehinitialarabic" xMin="142" yMin="226" xMax="842" yMax="1588">
      <contour>
        <pt x="142" y="226" on="1"/>
        <pt x="142" y="1588" on="1"/>
        <pt x="842" y="1588" on="1"/>
        <pt x="842" y="226" on="1"/>
      </contour>
      <contour>
        <pt x="284" y="368" on="1"/>
        <pt x="700" y="368" on="1"/>
        <pt x="700" y="1447" on="1"/>
        <pt x="284" y="1447" on="1"/>
      </contour>
    </TTGlyph>
    <TTGlyph name="ttehmedialarabic" xMin="142" yMin="226" xMax="842" yMax="1588">
      <contour>
        <pt x="142" y="226" on="1"/>
        <pt x="142" y="1588" on="1"/>
        <pt x="842" y="1588" on="1"/>
        <pt x="842" y="226" on="1"/>
      </contour>
      <contour>
        <pt x="284" y="368" on="1"/>
        <pt x="700" y="368" on="1"/>
        <pt x="700" y="1447" on="1"/>
        <pt x="284" y="1447" on="1"/>
      </contour>
    </TTGlyph>
    <TTGlyph name="uni000D" xMin="142" yMin="226" xMax="842" yMax="1588">
      <contour>
        <pt x="142" y="226" on="1"/>
        <pt x="142" y="1588" on="1"/>
        <pt x="842" y="1588" on="1"/>
        <pt x="842" y="226" on="1"/>
      </contour>
      <contour>
        <pt x="284" y="368" on="1"/>
        <pt x="700" y="368" on="1"/>
        <pt x="700" y="1447" on="1"/>
        <pt x="284" y="1447" on="1"/>
      </contour>
    </TTGlyph>
    <TTGlyph name="uni00A0" xMin="142" yMin="226" xMax="842" yMax="1588">
      <contour>
        <pt x="142" y="226" on="1"/>
        <pt x="142" y="1588" on="1"/>
        <pt x="842" y="1588" on="1"/>
        <pt x="842" y="226" on="1"/>
      </contour>
      <contour>
        <pt x="284" y="368" on="1"/>
        <pt x="700" y="368" on="1"/>
        <pt x="700" y="1447" on="1"/>
        <pt x="284" y="1447" on="1"/>
      </contour>
    </TTGlyph>
    <TTGlyph name="uni00AD" xMin="142" yMin="226" xMax="842" yMax="1588">
      <contour>
        <pt x="142" y="226" on="1"/>
        <pt x="142" y="1588" on="1"/>
        <pt x="842" y="1588" on="1"/>
        <pt x="842" y="226" on="1"/>
      </contour>
      <contour>
        <pt x="284" y="368" on="1"/>
        <pt x="700" y="368" on="1"/>
        <pt x="700" y="1447" on="1"/>
        <pt x="284" y="1447" on="1"/>
      </contour>
    </TTGlyph>
    <TTGlyph name="uni0653" xMin="142" yMin="226" xMax="842" yMax="1588">
      <contour>
        <pt x="142" y="226" on="1"/>
        <pt x="142" y="1588" on="1"/>
        <pt x="842" y="1588" on="1"/>
        <pt x="842" y="226" on="1"/>
      </contour>
      <contour>
        <pt x="284" y="368" on="1"/>
        <pt x="700" y="368" on="1"/>
        <pt x="700" y="1447" on="1"/>
        <pt x="284" y="1447" on="1"/>
      </contour>
    </TTGlyph>
    <TTGlyph name="uni0654" xMin="142" yMin="226" xMax="842" yMax="1588">
      <contour>
        <pt x="142" y="226" on="1"/>
        <pt x="142" y="1588" on="1"/>
        <pt x="842" y="1588" on="1"/>
        <pt x="842" y="226" on="1"/>
      </contour>
      <contour>
        <pt x="284" y="368" on="1"/>
        <pt x="700" y="368" on="1"/>
        <pt x="700" y="1447" on="1"/>
        <pt x="284" y="1447" on="1"/>
      </contour>
    </TTGlyph>
    <TTGlyph name="uni0655" xMin="142" yMin="226" xMax="842" yMax="1588">
      <contour>
        <pt x="142" y="226" on="1"/>
        <pt x="142" y="1588" on="1"/>
        <pt x="842" y="1588" on="1"/>
        <pt x="842" y="226" on="1"/>
      </contour>
      <contour>
        <pt x="284" y="368" on="1"/>
        <pt x="700" y="368" on="1"/>
        <pt x="700" y="1447" on="1"/>
        <pt x="284" y="1447" on="1"/>
      </contour>
    </TTGlyph>
    <TTGlyph name="uni066B" xMin="142" yMin="226" xMax="842" yMax="1588">
      <contour>
        <pt x="142" y="226" on="1"/>
        <pt x="142" y="1588" on="1"/>
        <pt x="842" y="1588" on="1"/>
        <pt x="842" y="226" on="1"/>
      </contour>
      <contour>
        <pt x="284" y="368" on="1"/>
        <pt x="700" y="368" on="1"/>
        <pt x="700" y="1447" on="1"/>
        <pt x="284" y="1447" on="1"/>
      </contour>
    </TTGlyph>
    <TTGlyph name="uni066C" xMin="142" yMin="226" xMax="842" yMax="1588">
      <contour>
        <pt x="142" y="226" on="1"/>
        <pt x="142" y="1588" on="1"/>
        <pt x="842" y="1588" on="1"/>
        <pt x="842" y="226" on="1"/>
      </contour>
      <contour>
        <pt x="284" y="368" on="1"/>
        <pt x="700" y="368" on="1"/>
        <pt x="700" y="1447" on="1"/>
        <pt x="284" y="1447" on="1"/>
      </contour>
    </TTGlyph>
    <TTGlyph name="uni0671" xMin="142" yMin="226" xMax="842" yMax="1588">
      <contour>
        <pt x="142" y="226" on="1"/>
        <pt x="142" y="1588" on="1"/>
        <pt x="842" y="1588" on="1"/>
        <pt x="842" y="226" on="1"/>
      </contour>
      <contour>
        <pt x="284" y="368" on="1"/>
        <pt x="700" y="368" on="1"/>
        <pt x="700" y="1447" on="1"/>
        <pt x="284" y="1447" on="1"/>
      </contour>
    </TTGlyph>
    <TTGlyph name="uni067C" xMin="142" yMin="226" xMax="842" yMax="1588">
      <contour>
        <pt x="142" y="226" on="1"/>
        <pt x="142" y="1588" on="1"/>
        <pt x="842" y="1588" on="1"/>
        <pt x="842" y="226" on="1"/>
      </contour>
      <contour>
        <pt x="284" y="368" on="1"/>
        <pt x="700" y="368" on="1"/>
        <pt x="700" y="1447" on="1"/>
        <pt x="284" y="1447" on="1"/>
      </contour>
    </TTGlyph>
    <TTGlyph name="uni0681" xMin="142" yMin="226" xMax="842" yMax="1588">
      <contour>
        <pt x="142" y="226" on="1"/>
        <pt x="142" y="1588" on="1"/>
        <pt x="842" y="1588" on="1"/>
        <pt x="842" y="226" on="1"/>
      </contour>
      <contour>
        <pt x="284" y="368" on="1"/>
        <pt x="700" y="368" on="1"/>
        <pt x="700" y="1447" on="1"/>
        <pt x="284" y="1447" on="1"/>
      </contour>
    </TTGlyph>
    <TTGlyph name="uni0685" xMin="142" yMin="226" xMax="842" yMax="1588">
      <contour>
        <pt x="142" y="226" on="1"/>
        <pt x="142" y="1588" on="1"/>
        <pt x="842" y="1588" on="1"/>
        <pt x="842" y="226" on="1"/>
      </contour>
      <contour>
        <pt x="284" y="368" on="1"/>
        <pt x="700" y="368" on="1"/>
        <pt x="700" y="1447" on="1"/>
        <pt x="284" y="1447" on="1"/>
      </contour>
    </TTGlyph>
    <TTGlyph name="uni0689" xMin="142" yMin="226" xMax="842" yMax="1588">
      <contour>
        <pt x="142" y="226" on="1"/>
        <pt x="142" y="1588" on="1"/>
        <pt x="842" y="1588" on="1"/>
        <pt x="842" y="226" on="1"/>
      </contour>
      <contour>
        <pt x="284" y="368" on="1"/>
        <pt x="700" y="368" on="1"/>
        <pt x="700" y="1447" on="1"/>
        <pt x="284" y="1447" on="1"/>
      </contour>
    </TTGlyph>
    <TTGlyph name="uni0693" xMin="142" yMin="226" xMax="842" yMax="1588">
      <contour>
        <pt x="142" y="226" on="1"/>
        <pt x="142" y="1588" on="1"/>
        <pt x="842" y="1588" on="1"/>
        <pt x="842" y="226" on="1"/>
      </contour>
      <contour>
        <pt x="284" y="368" on="1"/>
        <pt x="700" y="368" on="1"/>
        <pt x="700" y="1447" on="1"/>
        <pt x="284" y="1447" on="1"/>
      </contour>
    </TTGlyph>
    <TTGlyph name="uni0696" xMin="142" yMin="226" xMax="842" yMax="1588">
      <contour>
        <pt x="142" y="226" on="1"/>
        <pt x="142" y="1588" on="1"/>
        <pt x="842" y="1588" on="1"/>
        <pt x="842" y="226" on="1"/>
      </contour>
      <contour>
        <pt x="284" y="368" on="1"/>
        <pt x="700" y="368" on="1"/>
        <pt x="700" y="1447" on="1"/>
        <pt x="284" y="1447" on="1"/>
      </contour>
    </TTGlyph>
    <TTGlyph name="uni069A" xMin="142" yMin="226" xMax="842" yMax="1588">
      <contour>
        <pt x="142" y="226" on="1"/>
        <pt x="142" y="1588" on="1"/>
        <pt x="842" y="1588" on="1"/>
        <pt x="842" y="226" on="1"/>
      </contour>
      <contour>
        <pt x="284" y="368" on="1"/>
        <pt x="700" y="368" on="1"/>
        <pt x="700" y="1447" on="1"/>
        <pt x="284" y="1447" on="1"/>
      </contour>
    </TTGlyph>
    <TTGlyph name="uni06A9" xMin="142" yMin="226" xMax="842" yMax="1588">
      <contour>
        <pt x="142" y="226" on="1"/>
        <pt x="142" y="1588" on="1"/>
        <pt x="842" y="1588" on="1"/>
        <pt x="842" y="226" on="1"/>
      </contour>
      <contour>
        <pt x="284" y="368" on="1"/>
        <pt x="700" y="368" on="1"/>
        <pt x="700" y="1447" on="1"/>
        <pt x="284" y="1447" on="1"/>
      </contour>
    </TTGlyph>
    <TTGlyph name="uni06AB" xMin="142" yMin="226" xMax="842" yMax="1588">
      <contour>
        <pt x="142" y="226" on="1"/>
        <pt x="142" y="1588" on="1"/>
        <pt x="842" y="1588" on="1"/>
        <pt x="842" y="226" on="1"/>
      </contour>
      <contour>
        <pt x="284" y="368" on="1"/>
        <pt x="700" y="368" on="1"/>
        <pt x="700" y="1447" on="1"/>
        <pt x="284" y="1447" on="1"/>
      </contour>
    </TTGlyph>
    <TTGlyph name="uni06B7" xMin="142" yMin="226" xMax="842" yMax="1588">
      <contour>
        <pt x="142" y="226" on="1"/>
        <pt x="142" y="1588" on="1"/>
        <pt x="842" y="1588" on="1"/>
        <pt x="842" y="226" on="1"/>
      </contour>
      <contour>
        <pt x="284" y="368" on="1"/>
        <pt x="700" y="368" on="1"/>
        <pt x="700" y="1447" on="1"/>
        <pt x="284" y="1447" on="1"/>
      </contour>
    </TTGlyph>
    <TTGlyph name="uni06BC" xMin="142" yMin="226" xMax="842" yMax="1588">
      <contour>
        <pt x="142" y="226" on="1"/>
        <pt x="142" y="1588" on="1"/>
        <pt x="842" y="1588" on="1"/>
        <pt x="842" y="226" on="1"/>
      </contour>
      <contour>
        <pt x="284" y="368" on="1"/>
        <pt x="700" y="368" on="1"/>
        <pt x="700" y="1447" on="1"/>
        <pt x="284" y="1447" on="1"/>
      </contour>
    </TTGlyph>
    <TTGlyph name="uni06BE" xMin="142" yMin="226" xMax="842" yMax="1588">
      <contour>
        <pt x="142" y="226" on="1"/>
        <pt x="142" y="1588" on="1"/>
        <pt x="842" y="1588" on="1"/>
        <pt x="842" y="226" on="1"/>
      </contour>
      <contour>
        <pt x="284" y="368" on="1"/>
        <pt x="700" y="368" on="1"/>
        <pt x="700" y="1447" on="1"/>
        <pt x="284" y="1447" on="1"/>
      </contour>
    </TTGlyph>
    <TTGlyph name="uni06C2" xMin="142" yMin="226" xMax="842" yMax="1588">
      <contour>
        <pt x="142" y="226" on="1"/>
        <pt x="142" y="1588" on="1"/>
        <pt x="842" y="1588" on="1"/>
        <pt x="842" y="226" on="1"/>
      </contour>
      <contour>
        <pt x="284" y="368" on="1"/>
        <pt x="700" y="368" on="1"/>
        <pt x="700" y="1447" on="1"/>
        <pt x="284" y="1447" on="1"/>
      </contour>
    </TTGlyph>
    <TTGlyph name="uni06C7" xMin="142" yMin="226" xMax="842" yMax="1588">
      <contour>
        <pt x="142" y="226" on="1"/>
        <pt x="142" y="1588" on="1"/>
        <pt x="842" y="1588" on="1"/>
        <pt x="842" y="226" on="1"/>
      </contour>
      <contour>
        <pt x="284" y="368" on="1"/>
        <pt x="700" y="368" on="1"/>
        <pt x="700" y="1447" on="1"/>
        <pt x="284" y="1447" on="1"/>
      </contour>
    </TTGlyph>
    <TTGlyph name="uni06C9" xMin="142" yMin="226" xMax="842" yMax="1588">
      <contour>
        <pt x="142" y="226" on="1"/>
        <pt x="142" y="1588" on="1"/>
        <pt x="842" y="1588" on="1"/>
        <pt x="842" y="226" on="1"/>
      </contour>
      <contour>
        <pt x="284" y="368" on="1"/>
        <pt x="700" y="368" on="1"/>
        <pt x="700" y="1447" on="1"/>
        <pt x="284" y="1447" on="1"/>
      </contour>
    </TTGlyph>
    <TTGlyph name="uni06CC" xMin="142" yMin="226" xMax="842" yMax="1588">
      <contour>
        <pt x="142" y="226" on="1"/>
        <pt x="142" y="1588" on="1"/>
        <pt x="842" y="1588" on="1"/>
        <pt x="842" y="226" on="1"/>
      </contour>
      <contour>
        <pt x="284" y="368" on="1"/>
        <pt x="700" y="368" on="1"/>
        <pt x="700" y="1447" on="1"/>
        <pt x="284" y="1447" on="1"/>
      </contour>
    </TTGlyph>
    <TTGlyph name="uni06CD" xMin="142" yMin="226" xMax="842" yMax="1588">
      <contour>
        <pt x="142" y="226" on="1"/>
        <pt x="142" y="1588" on="1"/>
        <pt x="842" y="1588" on="1"/>
        <pt x="842" y="226" on="1"/>
      </contour>
      <contour>
        <pt x="284" y="368" on="1"/>
        <pt x="700" y="368" on="1"/>
        <pt x="700" y="1447" on="1"/>
        <pt x="284" y="1447" on="1"/>
      </contour>
    </TTGlyph>
    <TTGlyph name="uni06D0" xMin="142" yMin="226" xMax="842" yMax="1588">
      <contour>
        <pt x="142" y="226" on="1"/>
        <pt x="142" y="1588" on="1"/>
        <pt x="842" y="1588" on="1"/>
        <pt x="842" y="226" on="1"/>
      </contour>
      <contour>
        <pt x="284" y="368" on="1"/>
        <pt x="700" y="368" on="1"/>
        <pt x="700" y="1447" on="1"/>
        <pt x="284" y="1447" on="1"/>
      </contour>
    </TTGlyph>
    <TTGlyph name="uni06D1" xMin="142" yMin="226" xMax="842" yMax="1588">
      <contour>
        <pt x="142" y="226" on="1"/>
        <pt x="142" y="1588" on="1"/>
        <pt x="842" y="1588" on="1"/>
        <pt x="842" y="226" on="1"/>
      </contour>
      <contour>
        <pt x="284" y="368" on="1"/>
        <pt x="700" y="368" on="1"/>
        <pt x="700" y="1447" on="1"/>
        <pt x="284" y="1447" on="1"/>
      </contour>
    </TTGlyph>
    <TTGlyph name="uni06D3" xMin="142" yMin="226" xMax="842" yMax="1588">
      <contour>
        <pt x="142" y="226" on="1"/>
        <pt x="142" y="1588" on="1"/>
        <pt x="842" y="1588" on="1"/>
        <pt x="842" y="226" on="1"/>
      </contour>
      <contour>
        <pt x="284" y="368" on="1"/>
        <pt x="700" y="368" on="1"/>
        <pt x="700" y="1447" on="1"/>
        <pt x="284" y="1447" on="1"/>
      </contour>
    </TTGlyph>
    <TTGlyph name="uni06D4" xMin="142" yMin="226" xMax="842" yMax="1588">
      <contour>
        <pt x="142" y="226" on="1"/>
        <pt x="142" y="1588" on="1"/>
        <pt x="842" y="1588" on="1"/>
        <pt x="842" y="226" on="1"/>
      </contour>
      <contour>
        <pt x="284" y="368" on="1"/>
        <pt x="700" y="368" on="1"/>
        <pt x="700" y="1447" on="1"/>
        <pt x="284" y="1447" on="1"/>
      </contour>
    </TTGlyph>
    <TTGlyph name="uni06F0" xMin="142" yMin="226" xMax="842" yMax="1588">
      <contour>
        <pt x="142" y="226" on="1"/>
        <pt x="142" y="1588" on="1"/>
        <pt x="842" y="1588" on="1"/>
        <pt x="842" y="226" on="1"/>
      </contour>
      <contour>
        <pt x="284" y="368" on="1"/>
        <pt x="700" y="368" on="1"/>
        <pt x="700" y="1447" on="1"/>
        <pt x="284" y="1447" on="1"/>
      </contour>
    </TTGlyph>
    <TTGlyph name="uni06F1" xMin="142" yMin="226" xMax="842" yMax="1588">
      <contour>
        <pt x="142" y="226" on="1"/>
        <pt x="142" y="1588" on="1"/>
        <pt x="842" y="1588" on="1"/>
        <pt x="842" y="226" on="1"/>
      </contour>
      <contour>
        <pt x="284" y="368" on="1"/>
        <pt x="700" y="368" on="1"/>
        <pt x="700" y="1447" on="1"/>
        <pt x="284" y="1447" on="1"/>
      </contour>
    </TTGlyph>
    <TTGlyph name="uni06F2" xMin="142" yMin="226" xMax="842" yMax="1588">
      <contour>
        <pt x="142" y="226" on="1"/>
        <pt x="142" y="1588" on="1"/>
        <pt x="842" y="1588" on="1"/>
        <pt x="842" y="226" on="1"/>
      </contour>
      <contour>
        <pt x="284" y="368" on="1"/>
        <pt x="700" y="368" on="1"/>
        <pt x="700" y="1447" on="1"/>
        <pt x="284" y="1447" on="1"/>
      </contour>
    </TTGlyph>
    <TTGlyph name="uni06F3" xMin="142" yMin="226" xMax="842" yMax="1588">
      <contour>
        <pt x="142" y="226" on="1"/>
        <pt x="142" y="1588" on="1"/>
        <pt x="842" y="1588" on="1"/>
        <pt x="842" y="226" on="1"/>
      </contour>
      <contour>
        <pt x="284" y="368" on="1"/>
        <pt x="700" y="368" on="1"/>
        <pt x="700" y="1447" on="1"/>
        <pt x="284" y="1447" on="1"/>
      </contour>
    </TTGlyph>
    <TTGlyph name="uni06F4" xMin="142" yMin="226" xMax="842" yMax="1588">
      <contour>
        <pt x="142" y="226" on="1"/>
        <pt x="142" y="1588" on="1"/>
        <pt x="842" y="1588" on="1"/>
        <pt x="842" y="226" on="1"/>
      </contour>
      <contour>
        <pt x="284" y="368" on="1"/>
        <pt x="700" y="368" on="1"/>
        <pt x="700" y="1447" on="1"/>
        <pt x="284" y="1447" on="1"/>
      </contour>
    </TTGlyph>
    <TTGlyph name="uni06F5" xMin="142" yMin="226" xMax="842" yMax="1588">
      <contour>
        <pt x="142" y="226" on="1"/>
        <pt x="142" y="1588" on="1"/>
        <pt x="842" y="1588" on="1"/>
        <pt x="842" y="226" on="1"/>
      </contour>
      <contour>
        <pt x="284" y="368" on="1"/>
        <pt x="700" y="368" on="1"/>
        <pt x="700" y="1447" on="1"/>
        <pt x="284" y="1447" on="1"/>
      </contour>
    </TTGlyph>
    <TTGlyph name="uni06F6" xMin="142" yMin="226" xMax="842" yMax="1588">
      <contour>
        <pt x="142" y="226" on="1"/>
        <pt x="142" y="1588" on="1"/>
        <pt x="842" y="1588" on="1"/>
        <pt x="842" y="226" on="1"/>
      </contour>
      <contour>
        <pt x="284" y="368" on="1"/>
        <pt x="700" y="368" on="1"/>
        <pt x="700" y="1447" on="1"/>
        <pt x="284" y="1447" on="1"/>
      </contour>
    </TTGlyph>
    <TTGlyph name="uni06F7" xMin="142" yMin="226" xMax="842" yMax="1588">
      <contour>
        <pt x="142" y="226" on="1"/>
        <pt x="142" y="1588" on="1"/>
        <pt x="842" y="1588" on="1"/>
        <pt x="842" y="226" on="1"/>
      </contour>
      <contour>
        <pt x="284" y="368" on="1"/>
        <pt x="700" y="368" on="1"/>
        <pt x="700" y="1447" on="1"/>
        <pt x="284" y="1447" on="1"/>
      </contour>
    </TTGlyph>
    <TTGlyph name="uni06F8" xMin="142" yMin="226" xMax="842" yMax="1588">
      <contour>
        <pt x="142" y="226" on="1"/>
        <pt x="142" y="1588" on="1"/>
        <pt x="842" y="1588" on="1"/>
        <pt x="842" y="226" on="1"/>
      </contour>
      <contour>
        <pt x="284" y="368" on="1"/>
        <pt x="700" y="368" on="1"/>
        <pt x="700" y="1447" on="1"/>
        <pt x="284" y="1447" on="1"/>
      </contour>
    </TTGlyph>
    <TTGlyph name="uni06F9" xMin="142" yMin="226" xMax="842" yMax="1588">
      <contour>
        <pt x="142" y="226" on="1"/>
        <pt x="142" y="1588" on="1"/>
        <pt x="842" y="1588" on="1"/>
        <pt x="842" y="226" on="1"/>
      </contour>
      <contour>
        <pt x="284" y="368" on="1"/>
        <pt x="700" y="368" on="1"/>
        <pt x="700" y="1447" on="1"/>
        <pt x="284" y="1447" on="1"/>
      </contour>
    </TTGlyph>
    <TTGlyph name="uni2010" xMin="387" yMin="-381" xMax="2692" yMax="1729">
      <contour>
        <pt x="2672" y="1683" on="1"/>
        <pt x="2672" y="1638" on="0"/>
        <pt x="2452" y="1505" on="1"/>
        <pt x="2300" y="1414" on="0"/>
        <pt x="2148" y="1322" on="1"/>
        <pt x="2112" y="1322" on="1"/>
        <pt x="2112" y="1326" on="0"/>
        <pt x="2101" y="1343" on="0"/>
        <pt x="2101" y="1357" on="1"/>
        <pt x="2101" y="1428" on="0"/>
        <pt x="2202" y="1486" on="1"/>
        <pt x="2280" y="1527" on="0"/>
        <pt x="2358" y="1568" on="1"/>
        <pt x="2485" y="1660" on="0"/>
        <pt x="2647" y="1729" on="1"/>
        <pt x="2672" y="1705" on="0"/>
      </contour>
      <contour>
        <pt x="2692" y="189" on="1"/>
        <pt x="2692" y="75" on="0"/>
        <pt x="2648" y="27" on="1"/>
        <pt x="2612" y="27" on="1"/>
        <pt x="2588" y="168" on="0"/>
        <pt x="2546" y="438" on="1"/>
        <pt x="2511" y="628" on="0"/>
        <pt x="2460" y="1031" on="1"/>
        <pt x="2460" y="1033" on="0"/>
        <pt x="2488" y="1121" on="1"/>
        <pt x="2482" y="1128" on="0"/>
        <pt x="2468" y="1128" on="1"/>
        <pt x="2456" y="1128" on="0"/>
        <pt x="2412" y="1107" on="1"/>
        <pt x="2361" y="1082" on="0"/>
        <pt x="2340" y="1076" on="1"/>
        <pt x="2326" y="1089" on="0"/>
        <pt x="2316" y="1089" on="1"/>
        <pt x="2316" y="1091" on="0"/>
        <pt x="2320" y="1126" on="1"/>
        <pt x="2324" y="1154" on="0"/>
        <pt x="2321" y="1172" on="1"/>
        <pt x="2319" y="1180" on="0"/>
        <pt x="2311" y="1201" on="1"/>
        <pt x="2305" y="1219" on="0"/>
        <pt x="2305" y="1235" on="1"/>
        <pt x="2305" y="1287" on="0"/>
        <pt x="2378" y="1352" on="1"/>
        <pt x="2448" y="1413" on="0"/>
        <pt x="2488" y="1413" on="1"/>
        <pt x="2517" y="1413" on="0"/>
        <pt x="2546" y="1370" on="1"/>
        <pt x="2569" y="1334" on="0"/>
        <pt x="2569" y="1321" on="1"/>
        <pt x="2569" y="1307" on="0"/>
        <pt x="2558" y="1296" on="1"/>
        <pt x="2531" y="1270" on="0"/>
        <pt x="2528" y="1267" on="1"/>
        <pt x="2562" y="1258" on="0"/>
        <pt x="2681" y="1258" on="1"/>
        <pt x="2676" y="1214" on="0"/>
        <pt x="2619" y="1185" on="1"/>
        <pt x="2578" y="1168" on="0"/>
        <pt x="2539" y="1153" on="1"/>
        <pt x="2569" y="1070" on="0"/>
        <pt x="2591" y="939" on="1"/>
        <pt x="2609" y="827" on="0"/>
        <pt x="2647" y="603" on="0"/>
        <pt x="2671" y="398" on="1"/>
        <pt x="2692" y="217" on="0"/>
      </contour>
      <contour>
        <pt x="1948" y="1602" on="1"/>
        <pt x="1948" y="1552" on="0"/>
        <pt x="1790" y="1444" on="1"/>
        <pt x="1699" y="1386" on="0"/>
        <pt x="1609" y="1329" on="1"/>
        <pt x="1555" y="1289" on="0"/>
        <pt x="1502" y="1248" on="1"/>
        <pt x="1435" y="1202" on="0"/>
        <pt x="1390" y="1199" on="1"/>
        <pt x="1377" y="1213" on="0"/>
        <pt x="1377" y="1235" on="1"/>
        <pt x="1377" y="1292" on="0"/>
        <pt x="1626" y="1461" on="1"/>
        <pt x="1762" y="1549" on="0"/>
        <pt x="1900" y="1638" on="1"/>
        <pt x="1934" y="1638" on="1"/>
        <pt x="1948" y="1624" on="0"/>
      </contour>
      <contour>
        <pt x="1193" y="1332" on="1"/>
        <pt x="1193" y="1321" on="0"/>
        <pt x="1159" y="1261" on="1"/>
        <pt x="1069" y="1291" on="0"/>
        <pt x="1070" y="1291" on="1"/>
        <pt x="1074" y="1291" on="0"/>
        <pt x="728" y="1005" on="0"/>
        <pt x="697" y="1006" on="1"/>
        <pt x="644" y="1006" on="1"/>
        <pt x="641" y="1015" on="0"/>
        <pt x="632" y="1031" on="1"/>
        <pt x="639" y="1041" on="0"/>
        <pt x="811" y="1177" on="1"/>
        <pt x="969" y="1303" on="0"/>
        <pt x="969" y="1337" on="1"/>
        <pt x="969" y="1349" on="0"/>
        <pt x="937" y="1378" on="1"/>
        <pt x="895" y="1415" on="0"/>
        <pt x="879" y="1437" on="1"/>
        <pt x="877" y="1448" on="0"/>
        <pt x="877" y="1464" on="1"/>
        <pt x="877" y="1509" on="0"/>
        <pt x="920" y="1590" on="1"/>
        <pt x="974" y="1688" on="0"/>
        <pt x="1035" y="1688" on="1"/>
        <pt x="1072" y="1688" on="0"/>
        <pt x="1108" y="1626" on="1"/>
        <pt x="1139" y="1573" on="0"/>
        <pt x="1138" y="1551" on="1"/>
        <pt x="1135" y="1476" on="0"/>
        <pt x="1123" y="1420" on="1"/>
        <pt x="1140" y="1398" on="0"/>
        <pt x="1173" y="1368" on="1"/>
        <pt x="1193" y="1352" on="0"/>
      </contour>
      <contour>
        <pt x="856" y="1347" on="1"/>
        <pt x="856" y="1337" on="0"/>
        <pt x="824" y="1271" on="1"/>
        <pt x="801" y="1271" on="0"/>
        <pt x="760" y="1280" on="0"/>
        <pt x="749" y="1280" on="1"/>
        <pt x="747" y="1280" on="0"/>
        <pt x="629" y="1185" on="1"/>
        <pt x="501" y="1084" on="0"/>
        <pt x="412" y="1057" on="1"/>
        <pt x="387" y="1081" on="1"/>
        <pt x="414" y="1123" on="0"/>
        <pt x="522" y="1210" on="1"/>
        <pt x="617" y="1285" on="0"/>
        <pt x="632" y="1335" on="1"/>
        <pt x="561" y="1386" on="0"/>
        <pt x="561" y="1443" on="1"/>
        <pt x="561" y="1513" on="0"/>
        <pt x="604" y="1578" on="1"/>
        <pt x="653" y="1649" on="0"/>
        <pt x="720" y="1649" on="1"/>
        <pt x="730" y="1649" on="0"/>
        <pt x="742" y="1647" on="1"/>
        <pt x="797" y="1587" on="0"/>
        <pt x="797" y="1511" on="1"/>
        <pt x="797" y="1502" on="0"/>
        <pt x="787" y="1420" on="1"/>
        <pt x="807" y="1402" on="0"/>
        <pt x="828" y="1385" on="1"/>
        <pt x="856" y="1361" on="0"/>
      </contour>
      <contour>
        <pt x="2386" y="306" on="1"/>
        <pt x="2386" y="274" on="0"/>
        <pt x="2339" y="220" on="1"/>
        <pt x="2295" y="169" on="0"/>
        <pt x="2279" y="169" on="1"/>
        <pt x="2268" y="169" on="0"/>
        <pt x="2220" y="179" on="0"/>
        <pt x="2207" y="179" on="1"/>
        <pt x="2066" y="179" on="0"/>
        <pt x="1635" y="-4" on="0"/>
        <pt x="1519" y="-4" on="1"/>
        <pt x="1432" y="-4" on="0"/>
        <pt x="1327" y="60" on="1"/>
        <pt x="1311" y="84" on="0"/>
        <pt x="1261" y="129" on="1"/>
        <pt x="1259" y="12" on="0"/>
        <pt x="1257" y="-104" on="1"/>
        <pt x="1241" y="-208" on="0"/>
        <pt x="1109" y="-296" on="1"/>
        <pt x="1069" y="-323" on="0"/>
        <pt x="975" y="-351" on="1"/>
        <pt x="872" y="-381" on="0"/>
        <pt x="800" y="-381" on="1"/>
        <pt x="698" y="-381" on="0"/>
        <pt x="655" y="-357" on="1"/>
        <pt x="489" y="-268" on="0"/>
        <pt x="489" y="-126" on="1"/>
        <pt x="489" y="20" on="0"/>
        <pt x="634" y="219" on="1"/>
        <pt x="672" y="219" on="1"/>
        <pt x="672" y="162" on="1"/>
        <pt x="672" y="153" on="0"/>
        <pt x="591" y="-11" on="0"/>
        <pt x="591" y="-24" on="1"/>
        <pt x="591" y="-122" on="0"/>
        <pt x="703" y="-173" on="1"/>
        <pt x="779" y="-208" on="0"/>
        <pt x="851" y="-208" on="1"/>
        <pt x="878" y="-208" on="0"/>
        <pt x="962" y="-188" on="1"/>
        <pt x="1064" y="-163" on="0"/>
        <pt x="1114" y="-135" on="1"/>
        <pt x="1143" y="-118" on="0"/>
        <pt x="1173" y="-45" on="1"/>
        <pt x="1010" y="975" on="1"/>
        <pt x="1022" y="1013" on="0"/>
        <pt x="1034" y="1050" on="1"/>
        <pt x="1054" y="1098" on="0"/>
        <pt x="1087" y="1117" on="1"/>
        <pt x="1114" y="1090" on="0"/>
        <pt x="1118" y="1063" on="1"/>
        <pt x="1147" y="866" on="0"/>
        <pt x="1218" y="613" on="1"/>
        <pt x="1336" y="200" on="0"/>
        <pt x="1448" y="200" on="1"/>
        <pt x="1464" y="200" on="0"/>
        <pt x="1475" y="217" on="1"/>
        <pt x="1558" y="475" on="0"/>
        <pt x="1728" y="475" on="1"/>
        <pt x="1735" y="475" on="0"/>
        <pt x="1914" y="406" on="1"/>
        <pt x="1982" y="379" on="0"/>
        <pt x="2218" y="332" on="1"/>
        <pt x="2242" y="341" on="0"/>
        <pt x="2374" y="341" on="1"/>
        <pt x="2374" y="338" on="0"/>
        <pt x="2386" y="321" on="0"/>
      </contour>
      <contour>
        <pt x="1998" y="-138" on="1"/>
        <pt x="1998" y="-159" on="0"/>
        <pt x="1973" y="-208" on="1"/>
        <pt x="1940" y="-269" on="0"/>
        <pt x="1902" y="-269" on="1"/>
        <pt x="1880" y="-269" on="0"/>
        <pt x="1830" y="-241" on="1"/>
        <pt x="1774" y="-211" on="0"/>
        <pt x="1774" y="-188" on="1"/>
        <pt x="1774" y="-161" on="0"/>
        <pt x="1854" y="-65" on="0"/>
        <pt x="1876" y="-65" on="1"/>
        <pt x="1897" y="-65" on="0"/>
      </contour>
      <contour>
        <pt x="2528" y="1254" on="1"/>
        <pt x="2496" y="1272" on="0"/>
        <pt x="2442" y="1301" on="1"/>
        <pt x="2418" y="1277" on="0"/>
        <pt x="2418" y="1262" on="1"/>
        <pt x="2457" y="1254" on="0"/>
      </contour>
      <contour>
        <pt x="1050" y="1483" on="1"/>
        <pt x="1031" y="1531" on="0"/>
        <pt x="1002" y="1545" on="1"/>
        <pt x="989" y="1497" on="1"/>
        <pt x="1036" y="1475" on="0"/>
      </contour>
      <contour>
        <pt x="702" y="1466" on="1"/>
        <pt x="702" y="1514" on="1"/>
        <pt x="665" y="1514" on="1"/>
        <pt x="655" y="1495" on="0"/>
        <pt x="664" y="1479" on="1"/>
        <pt x="717" y="1466" on="0"/>
      </contour>
      <contour>
        <pt x="1815" y="239" on="1"/>
        <pt x="1753" y="301" on="0"/>
        <pt x="1672" y="301" on="1"/>
        <pt x="1573" y="301" on="0"/>
        <pt x="1551" y="180" on="1"/>
        <pt x="1625" y="180" on="1"/>
        <pt x="1669" y="179" on="0"/>
      </contour>
    </TTGlyph>
    <TTGlyph name="uni2011" xMin="387" yMin="-381" xMax="2692" yMax="1729">
      <contour>
        <pt x="2672" y="1683" on="1"/>
        <pt x="2672" y="1638" on="0"/>
        <pt x="2452" y="1505" on="1"/>
        <pt x="2300" y="1414" on="0"/>
        <pt x="2148" y="1322" on="1"/>
        <pt x="2112" y="1322" on="1"/>
        <pt x="2112" y="1326" on="0"/>
        <pt x="2101" y="1343" on="0"/>
        <pt x="2101" y="1357" on="1"/>
        <pt x="2101" y="1428" on="0"/>
        <pt x="2202" y="1486" on="1"/>
        <pt x="2280" y="1527" on="0"/>
        <pt x="2358" y="1568" on="1"/>
        <pt x="2485" y="1660" on="0"/>
        <pt x="2647" y="1729" on="1"/>
        <pt x="2672" y="1705" on="0"/>
      </contour>
      <contour>
        <pt x="2692" y="189" on="1"/>
        <pt x="2692" y="75" on="0"/>
        <pt x="2648" y="27" on="1"/>
        <pt x="2612" y="27" on="1"/>
        <pt x="2588" y="168" on="0"/>
        <pt x="2546" y="438" on="1"/>
        <pt x="2511" y="628" on="0"/>
        <pt x="2460" y="1031" on="1"/>
        <pt x="2460" y="1033" on="0"/>
        <pt x="2488" y="1121" on="1"/>
        <pt x="2482" y="1128" on="0"/>
        <pt x="2468" y="1128" on="1"/>
        <pt x="2456" y="1128" on="0"/>
        <pt x="2412" y="1107" on="1"/>
        <pt x="2361" y="1082" on="0"/>
        <pt x="2340" y="1076" on="1"/>
        <pt x="2326" y="1089" on="0"/>
        <pt x="2316" y="1089" on="1"/>
        <pt x="2316" y="1091" on="0"/>
        <pt x="2320" y="1126" on="1"/>
        <pt x="2324" y="1154" on="0"/>
        <pt x="2321" y="1172" on="1"/>
        <pt x="2319" y="1180" on="0"/>
        <pt x="2311" y="1201" on="1"/>
        <pt x="2305" y="1219" on="0"/>
        <pt x="2305" y="1235" on="1"/>
        <pt x="2305" y="1287" on="0"/>
        <pt x="2378" y="1352" on="1"/>
        <pt x="2448" y="1413" on="0"/>
        <pt x="2488" y="1413" on="1"/>
        <pt x="2517" y="1413" on="0"/>
        <pt x="2546" y="1370" on="1"/>
        <pt x="2569" y="1334" on="0"/>
        <pt x="2569" y="1321" on="1"/>
        <pt x="2569" y="1307" on="0"/>
        <pt x="2558" y="1296" on="1"/>
        <pt x="2531" y="1270" on="0"/>
        <pt x="2528" y="1267" on="1"/>
        <pt x="2562" y="1258" on="0"/>
        <pt x="2681" y="1258" on="1"/>
        <pt x="2676" y="1214" on="0"/>
        <pt x="2619" y="1185" on="1"/>
        <pt x="2578" y="1168" on="0"/>
        <pt x="2539" y="1153" on="1"/>
        <pt x="2569" y="1070" on="0"/>
        <pt x="2591" y="939" on="1"/>
        <pt x="2609" y="827" on="0"/>
        <pt x="2647" y="603" on="0"/>
        <pt x="2671" y="398" on="1"/>
        <pt x="2692" y="217" on="0"/>
      </contour>
      <contour>
        <pt x="1948" y="1602" on="1"/>
        <pt x="1948" y="1552" on="0"/>
        <pt x="1790" y="1444" on="1"/>
        <pt x="1699" y="1386" on="0"/>
        <pt x="1609" y="1329" on="1"/>
        <pt x="1555" y="1289" on="0"/>
        <pt x="1502" y="1248" on="1"/>
        <pt x="1435" y="1202" on="0"/>
        <pt x="1390" y="1199" on="1"/>
        <pt x="1377" y="1213" on="0"/>
        <pt x="1377" y="1235" on="1"/>
        <pt x="1377" y="1292" on="0"/>
        <pt x="1626" y="1461" on="1"/>
        <pt x="1762" y="1549" on="0"/>
        <pt x="1900" y="1638" on="1"/>
        <pt x="1934" y="1638" on="1"/>
        <pt x="1948" y="1624" on="0"/>
      </contour>
      <contour>
        <pt x="1193" y="1332" on="1"/>
        <pt x="1193" y="1321" on="0"/>
        <pt x="1159" y="1261" on="1"/>
        <pt x="1069" y="1291" on="0"/>
        <pt x="1070" y="1291" on="1"/>
        <pt x="1074" y="1291" on="0"/>
        <pt x="728" y="1005" on="0"/>
        <pt x="697" y="1006" on="1"/>
        <pt x="644" y="1006" on="1"/>
        <pt x="641" y="1015" on="0"/>
        <pt x="632" y="1031" on="1"/>
        <pt x="639" y="1041" on="0"/>
        <pt x="811" y="1177" on="1"/>
        <pt x="969" y="1303" on="0"/>
        <pt x="969" y="1337" on="1"/>
        <pt x="969" y="1349" on="0"/>
        <pt x="937" y="1378" on="1"/>
        <pt x="895" y="1415" on="0"/>
        <pt x="879" y="1437" on="1"/>
        <pt x="877" y="1448" on="0"/>
        <pt x="877" y="1464" on="1"/>
        <pt x="877" y="1509" on="0"/>
        <pt x="920" y="1590" on="1"/>
        <pt x="974" y="1688" on="0"/>
        <pt x="1035" y="1688" on="1"/>
        <pt x="1072" y="1688" on="0"/>
        <pt x="1108" y="1626" on="1"/>
        <pt x="1139" y="1573" on="0"/>
        <pt x="1138" y="1551" on="1"/>
        <pt x="1135" y="1476" on="0"/>
        <pt x="1123" y="1420" on="1"/>
        <pt x="1140" y="1398" on="0"/>
        <pt x="1173" y="1368" on="1"/>
        <pt x="1193" y="1352" on="0"/>
      </contour>
      <contour>
        <pt x="856" y="1347" on="1"/>
        <pt x="856" y="1337" on="0"/>
        <pt x="824" y="1271" on="1"/>
        <pt x="801" y="1271" on="0"/>
        <pt x="760" y="1280" on="0"/>
        <pt x="749" y="1280" on="1"/>
        <pt x="747" y="1280" on="0"/>
        <pt x="629" y="1185" on="1"/>
        <pt x="501" y="1084" on="0"/>
        <pt x="412" y="1057" on="1"/>
        <pt x="387" y="1081" on="1"/>
        <pt x="414" y="1123" on="0"/>
        <pt x="522" y="1210" on="1"/>
        <pt x="617" y="1285" on="0"/>
        <pt x="632" y="1335" on="1"/>
        <pt x="561" y="1386" on="0"/>
        <pt x="561" y="1443" on="1"/>
        <pt x="561" y="1513" on="0"/>
        <pt x="604" y="1578" on="1"/>
        <pt x="653" y="1649" on="0"/>
        <pt x="720" y="1649" on="1"/>
        <pt x="730" y="1649" on="0"/>
        <pt x="742" y="1647" on="1"/>
        <pt x="797" y="1587" on="0"/>
        <pt x="797" y="1511" on="1"/>
        <pt x="797" y="1502" on="0"/>
        <pt x="787" y="1420" on="1"/>
        <pt x="807" y="1402" on="0"/>
        <pt x="828" y="1385" on="1"/>
        <pt x="856" y="1361" on="0"/>
      </contour>
      <contour>
        <pt x="2386" y="306" on="1"/>
        <pt x="2386" y="274" on="0"/>
        <pt x="2339" y="220" on="1"/>
        <pt x="2295" y="169" on="0"/>
        <pt x="2279" y="169" on="1"/>
        <pt x="2268" y="169" on="0"/>
        <pt x="2220" y="179" on="0"/>
        <pt x="2207" y="179" on="1"/>
        <pt x="2066" y="179" on="0"/>
        <pt x="1635" y="-4" on="0"/>
        <pt x="1519" y="-4" on="1"/>
        <pt x="1432" y="-4" on="0"/>
        <pt x="1327" y="60" on="1"/>
        <pt x="1311" y="84" on="0"/>
        <pt x="1261" y="129" on="1"/>
        <pt x="1259" y="12" on="0"/>
        <pt x="1257" y="-104" on="1"/>
        <pt x="1241" y="-208" on="0"/>
        <pt x="1109" y="-296" on="1"/>
        <pt x="1069" y="-323" on="0"/>
        <pt x="975" y="-351" on="1"/>
        <pt x="872" y="-381" on="0"/>
        <pt x="800" y="-381" on="1"/>
        <pt x="698" y="-381" on="0"/>
        <pt x="655" y="-357" on="1"/>
        <pt x="489" y="-268" on="0"/>
        <pt x="489" y="-126" on="1"/>
        <pt x="489" y="20" on="0"/>
        <pt x="634" y="219" on="1"/>
        <pt x="672" y="219" on="1"/>
        <pt x="672" y="162" on="1"/>
        <pt x="672" y="153" on="0"/>
        <pt x="591" y="-11" on="0"/>
        <pt x="591" y="-24" on="1"/>
        <pt x="591" y="-122" on="0"/>
        <pt x="703" y="-173" on="1"/>
        <pt x="779" y="-208" on="0"/>
        <pt x="851" y="-208" on="1"/>
        <pt x="878" y="-208" on="0"/>
        <pt x="962" y="-188" on="1"/>
        <pt x="1064" y="-163" on="0"/>
        <pt x="1114" y="-135" on="1"/>
        <pt x="1143" y="-118" on="0"/>
        <pt x="1173" y="-45" on="1"/>
        <pt x="1010" y="975" on="1"/>
        <pt x="1022" y="1013" on="0"/>
        <pt x="1034" y="1050" on="1"/>
        <pt x="1054" y="1098" on="0"/>
        <pt x="1087" y="1117" on="1"/>
        <pt x="1114" y="1090" on="0"/>
        <pt x="1118" y="1063" on="1"/>
        <pt x="1147" y="866" on="0"/>
        <pt x="1218" y="613" on="1"/>
        <pt x="1336" y="200" on="0"/>
        <pt x="1448" y="200" on="1"/>
        <pt x="1464" y="200" on="0"/>
        <pt x="1475" y="217" on="1"/>
        <pt x="1558" y="475" on="0"/>
        <pt x="1728" y="475" on="1"/>
        <pt x="1735" y="475" on="0"/>
        <pt x="1914" y="406" on="1"/>
        <pt x="1982" y="379" on="0"/>
        <pt x="2218" y="332" on="1"/>
        <pt x="2242" y="341" on="0"/>
        <pt x="2374" y="341" on="1"/>
        <pt x="2374" y="338" on="0"/>
        <pt x="2386" y="321" on="0"/>
      </contour>
      <contour>
        <pt x="1998" y="-138" on="1"/>
        <pt x="1998" y="-159" on="0"/>
        <pt x="1973" y="-208" on="1"/>
        <pt x="1940" y="-269" on="0"/>
        <pt x="1902" y="-269" on="1"/>
        <pt x="1880" y="-269" on="0"/>
        <pt x="1830" y="-241" on="1"/>
        <pt x="1774" y="-211" on="0"/>
        <pt x="1774" y="-188" on="1"/>
        <pt x="1774" y="-161" on="0"/>
        <pt x="1854" y="-65" on="0"/>
        <pt x="1876" y="-65" on="1"/>
        <pt x="1897" y="-65" on="0"/>
      </contour>
      <contour>
        <pt x="2528" y="1254" on="1"/>
        <pt x="2496" y="1272" on="0"/>
        <pt x="2442" y="1301" on="1"/>
        <pt x="2418" y="1277" on="0"/>
        <pt x="2418" y="1262" on="1"/>
        <pt x="2457" y="1254" on="0"/>
      </contour>
      <contour>
        <pt x="1050" y="1483" on="1"/>
        <pt x="1031" y="1531" on="0"/>
        <pt x="1002" y="1545" on="1"/>
        <pt x="989" y="1497" on="1"/>
        <pt x="1036" y="1475" on="0"/>
      </contour>
      <contour>
        <pt x="702" y="1466" on="1"/>
        <pt x="702" y="1514" on="1"/>
        <pt x="665" y="1514" on="1"/>
        <pt x="655" y="1495" on="0"/>
        <pt x="664" y="1479" on="1"/>
        <pt x="717" y="1466" on="0"/>
      </contour>
      <contour>
        <pt x="1815" y="239" on="1"/>
        <pt x="1753" y="301" on="0"/>
        <pt x="1672" y="301" on="1"/>
        <pt x="1573" y="301" on="0"/>
        <pt x="1551" y="180" on="1"/>
        <pt x="1625" y="180" on="1"/>
        <pt x="1669" y="179" on="0"/>
      </contour>
    </TTGlyph>
    <TTGlyph name="uniE000" xMin="0" yMin="0" xMax="1695" yMax="1695">
      <contour>
        <pt x="0" y="1695" on="1"/>
        <pt x="1695" y="1695" on="1"/>
        <pt x="1695" y="0" on="1"/>
        <pt x="0" y="0" on="1"/>
      </contour>
    </TTGlyph>
    <TTGlyph name="uniFB51" xMin="265" yMin="-402" xMax="2499" yMax="1627">
      <contour>
        <pt x="2499" y="1367" on="1"/>
        <pt x="2499" y="1318" on="0"/>
        <pt x="2416" y="1274" on="1"/>
        <pt x="2354" y="1244" on="0"/>
        <pt x="2292" y="1216" on="1"/>
        <pt x="2179" y="1162" on="0"/>
        <pt x="1954" y="1047" on="1"/>
        <pt x="1898" y="1047" on="1"/>
        <pt x="1904" y="1082" on="0"/>
        <pt x="1921" y="1135" on="1"/>
        <pt x="1934" y="1158" on="0"/>
        <pt x="2114" y="1231" on="1"/>
        <pt x="2233" y="1292" on="0"/>
        <pt x="2474" y="1402" on="1"/>
        <pt x="2499" y="1378" on="0"/>
      </contour>
      <contour>
        <pt x="1601" y="1285" on="1"/>
        <pt x="1601" y="1266" on="0"/>
        <pt x="1578" y="1220" on="1"/>
        <pt x="1536" y="1220" on="1"/>
        <pt x="1523" y="1219" on="0"/>
        <pt x="1471" y="1260" on="0"/>
        <pt x="1459" y="1260" on="1"/>
        <pt x="1462" y="1260" on="0"/>
        <pt x="1133" y="1026" on="0"/>
        <pt x="1085" y="1026" on="1"/>
        <pt x="1022" y="1026" on="1"/>
        <pt x="1019" y="1035" on="0"/>
        <pt x="1010" y="1051" on="1"/>
        <pt x="1038" y="1073" on="0"/>
        <pt x="1346" y="1307" on="1"/>
        <pt x="1342" y="1318" on="0"/>
        <pt x="1278" y="1385" on="1"/>
        <pt x="1275" y="1398" on="0"/>
        <pt x="1275" y="1428" on="1"/>
        <pt x="1275" y="1488" on="0"/>
        <pt x="1322" y="1553" on="1"/>
        <pt x="1374" y="1627" on="0"/>
        <pt x="1438" y="1627" on="1"/>
        <pt x="1518" y="1627" on="0"/>
        <pt x="1518" y="1501" on="1"/>
        <pt x="1518" y="1475" on="0"/>
        <pt x="1512" y="1404" on="0"/>
        <pt x="1512" y="1399" on="1"/>
        <pt x="1516" y="1393" on="0"/>
        <pt x="1569" y="1353" on="1"/>
        <pt x="1601" y="1330" on="0"/>
      </contour>
      <contour>
        <pt x="2468" y="82" on="1"/>
        <pt x="2468" y="-9" on="0"/>
        <pt x="2368" y="-165" on="1"/>
        <pt x="2265" y="-326" on="0"/>
        <pt x="2170" y="-368" on="1"/>
        <pt x="2095" y="-402" on="0"/>
        <pt x="2030" y="-402" on="1"/>
        <pt x="1843" y="-402" on="0"/>
        <pt x="1694" y="-348" on="1"/>
        <pt x="1699" y="-303" on="0"/>
        <pt x="1728" y="-300" on="1"/>
        <pt x="1807" y="-303" on="0"/>
        <pt x="1962" y="-287" on="1"/>
        <pt x="2068" y="-262" on="0"/>
        <pt x="2184" y="-168" on="1"/>
        <pt x="2311" y="-65" on="0"/>
        <pt x="2356" y="51" on="1"/>
        <pt x="2360" y="57" on="0"/>
        <pt x="2351" y="66" on="1"/>
        <pt x="2277" y="6" on="0"/>
        <pt x="2229" y="6" on="1"/>
        <pt x="2167" y="6" on="0"/>
        <pt x="2124" y="100" on="1"/>
        <pt x="2091" y="172" on="0"/>
        <pt x="2091" y="215" on="1"/>
        <pt x="2091" y="271" on="0"/>
        <pt x="2137" y="350" on="1"/>
        <pt x="2191" y="444" on="0"/>
        <pt x="2259" y="444" on="1"/>
        <pt x="2355" y="444" on="0"/>
        <pt x="2419" y="289" on="1"/>
        <pt x="2468" y="170" on="0"/>
      </contour>
      <contour>
        <pt x="918" y="1388" on="1"/>
        <pt x="918" y="1345" on="0"/>
        <pt x="723" y="1221" on="1"/>
        <pt x="554" y="1115" on="0"/>
        <pt x="465" y="1077" on="1"/>
        <pt x="430" y="1077" on="1"/>
        <pt x="430" y="1081" on="0"/>
        <pt x="418" y="1108" on="0"/>
        <pt x="418" y="1122" on="1"/>
        <pt x="418" y="1170" on="0"/>
        <pt x="549" y="1243" on="1"/>
        <pt x="628" y="1283" on="0"/>
        <pt x="706" y="1323" on="1"/>
        <pt x="761" y="1357" on="0"/>
        <pt x="881" y="1433" on="1"/>
        <pt x="890" y="1433" on="0"/>
        <pt x="918" y="1405" on="0"/>
      </contour>
      <contour>
        <pt x="1805" y="276" on="1"/>
        <pt x="1805" y="66" on="0"/>
        <pt x="1698" y="66" on="1"/>
        <pt x="1685" y="66" on="0"/>
        <pt x="1445" y="97" on="0"/>
        <pt x="1433" y="97" on="1"/>
        <pt x="1314" y="97" on="0"/>
        <pt x="1302" y="93" on="1"/>
        <pt x="1202" y="74" on="0"/>
        <pt x="1017" y="12" on="1"/>
        <pt x="998" y="3" on="0"/>
        <pt x="981" y="-42" on="1"/>
        <pt x="968" y="-78" on="0"/>
        <pt x="954" y="-113" on="1"/>
        <pt x="917" y="-158" on="0"/>
        <pt x="848" y="-247" on="1"/>
        <pt x="809" y="-299" on="0"/>
        <pt x="795" y="-315" on="1"/>
        <pt x="756" y="-358" on="0"/>
        <pt x="720" y="-369" on="1"/>
        <pt x="643" y="-392" on="0"/>
        <pt x="469" y="-392" on="1"/>
        <pt x="403" y="-392" on="0"/>
        <pt x="309" y="-368" on="1"/>
        <pt x="292" y="-357" on="0"/>
        <pt x="265" y="-325" on="1"/>
        <pt x="292" y="-302" on="0"/>
        <pt x="384" y="-295" on="1"/>
        <pt x="454" y="-291" on="0"/>
        <pt x="525" y="-287" on="1"/>
        <pt x="599" y="-277" on="0"/>
        <pt x="711" y="-194" on="1"/>
        <pt x="820" y="-114" on="0"/>
        <pt x="867" y="-39" on="1"/>
        <pt x="867" y="-2" on="1"/>
        <pt x="851" y="6" on="0"/>
        <pt x="780" y="6" on="1"/>
        <pt x="723" y="6" on="0"/>
        <pt x="671" y="35" on="1"/>
        <pt x="602" y="74" on="0"/>
        <pt x="602" y="143" on="1"/>
        <pt x="602" y="208" on="0"/>
        <pt x="652" y="299" on="1"/>
        <pt x="711" y="403" on="0"/>
        <pt x="775" y="403" on="1"/>
        <pt x="851" y="403" on="0"/>
        <pt x="906" y="315" on="1"/>
        <pt x="946" y="247" on="0"/>
        <pt x="986" y="179" on="1"/>
        <pt x="988" y="179" on="0"/>
        <pt x="1070" y="188" on="1"/>
        <pt x="1131" y="194" on="0"/>
        <pt x="1150" y="217" on="1"/>
        <pt x="1154" y="251" on="0"/>
        <pt x="1165" y="328" on="1"/>
        <pt x="1176" y="388" on="0"/>
        <pt x="1250" y="511" on="1"/>
        <pt x="1235" y="614" on="0"/>
        <pt x="1235" y="639" on="1"/>
        <pt x="1235" y="750" on="0"/>
        <pt x="1305" y="750" on="1"/>
        <pt x="1331" y="750" on="0"/>
        <pt x="1477" y="639" on="1"/>
        <pt x="1552" y="594" on="0"/>
        <pt x="1627" y="549" on="1"/>
        <pt x="1745" y="473" on="0"/>
        <pt x="1790" y="391" on="1"/>
        <pt x="1805" y="364" on="0"/>
      </contour>
      <contour>
        <pt x="1426" y="1434" on="1"/>
        <pt x="1426" y="1483" on="1"/>
        <pt x="1388" y="1483" on="1"/>
        <pt x="1388" y="1468" on="0"/>
      </contour>
      <contour>
        <pt x="2305" y="237" on="1"/>
        <pt x="2293" y="248" on="0"/>
        <pt x="2252" y="277" on="0"/>
        <pt x="2249" y="281" on="1"/>
        <pt x="2213" y="245" on="0"/>
        <pt x="2213" y="230" on="1"/>
        <pt x="2213" y="215" on="0"/>
        <pt x="2225" y="193" on="0"/>
        <pt x="2225" y="190" on="1"/>
        <pt x="2270" y="190" on="1"/>
        <pt x="2305" y="206" on="0"/>
      </contour>
      <contour>
        <pt x="1713" y="252" on="1"/>
        <pt x="1704" y="288" on="0"/>
        <pt x="1633" y="342" on="1"/>
        <pt x="1568" y="392" on="0"/>
        <pt x="1532" y="402" on="1"/>
        <pt x="1532" y="251" on="1"/>
        <pt x="1544" y="270" on="0"/>
        <pt x="1568" y="270" on="1"/>
        <pt x="1577" y="270" on="0"/>
        <pt x="1672" y="252" on="0"/>
      </contour>
      <contour>
        <pt x="1427" y="303" on="1"/>
        <pt x="1427" y="338" on="1"/>
        <pt x="1427" y="365" on="0"/>
        <pt x="1395" y="391" on="1"/>
        <pt x="1368" y="414" on="0"/>
        <pt x="1351" y="414" on="1"/>
        <pt x="1333" y="414" on="0"/>
        <pt x="1275" y="328" on="0"/>
        <pt x="1276" y="303" on="1"/>
        <pt x="1351" y="276" on="0"/>
        <pt x="1377" y="276" on="1"/>
        <pt x="1413" y="276" on="0"/>
      </contour>
      <contour>
        <pt x="815" y="180" on="1"/>
        <pt x="803" y="217" on="0"/>
        <pt x="770" y="251" on="1"/>
        <pt x="734" y="215" on="0"/>
        <pt x="734" y="202" on="1"/>
        <pt x="746" y="196" on="0"/>
        <pt x="768" y="180" on="1"/>
      </contour>
    </TTGlyph>
    <TTGlyph name="uniFB52" xMin="399" yMin="-403" xMax="3224" yMax="1942">
      <contour>
        <pt x="3224" y="1469" on="1"/>
        <pt x="3224" y="1389" on="0"/>
        <pt x="3133" y="1320" on="1"/>
        <pt x="3052" y="1260" on="0"/>
        <pt x="2984" y="1260" on="1"/>
        <pt x="2973" y="1260" on="0"/>
        <pt x="2935" y="1270" on="0"/>
        <pt x="2924" y="1270" on="1"/>
        <pt x="2892" y="1270" on="0"/>
        <pt x="2844" y="1199" on="1"/>
        <pt x="2797" y="1199" on="1"/>
        <pt x="2797" y="1253" on="1"/>
        <pt x="2795" y="1293" on="0"/>
        <pt x="2869" y="1366" on="1"/>
        <pt x="2902" y="1380" on="0"/>
        <pt x="2961" y="1414" on="1"/>
        <pt x="2994" y="1457" on="0"/>
        <pt x="3027" y="1502" on="1"/>
        <pt x="3080" y="1565" on="0"/>
        <pt x="3138" y="1565" on="1"/>
        <pt x="3176" y="1565" on="0"/>
        <pt x="3201" y="1534" on="1"/>
        <pt x="3224" y="1505" on="0"/>
      </contour>
      <contour>
        <pt x="2663" y="1912" on="1"/>
        <pt x="2663" y="1851" on="0"/>
        <pt x="2422" y="1733" on="1"/>
        <pt x="2238" y="1642" on="0"/>
        <pt x="2127" y="1606" on="1"/>
        <pt x="2113" y="1620" on="0"/>
        <pt x="2113" y="1637" on="1"/>
        <pt x="2113" y="1692" on="0"/>
        <pt x="2138" y="1707" on="1"/>
        <pt x="2184" y="1735" on="0"/>
        <pt x="2503" y="1884" on="1"/>
        <pt x="2549" y="1905" on="0"/>
        <pt x="2606" y="1942" on="1"/>
        <pt x="2650" y="1942" on="1"/>
        <pt x="2663" y="1929" on="0"/>
      </contour>
      <contour>
        <pt x="2602" y="1510" on="1"/>
        <pt x="2602" y="1334" on="0"/>
        <pt x="2414" y="1307" on="1"/>
        <pt x="2404" y="1305" on="0"/>
        <pt x="2341" y="1270" on="0"/>
        <pt x="2317" y="1270" on="1"/>
        <pt x="2235" y="1270" on="0"/>
        <pt x="2235" y="1357" on="1"/>
        <pt x="2235" y="1384" on="0"/>
        <pt x="2256" y="1428" on="1"/>
        <pt x="2282" y="1480" on="0"/>
        <pt x="2313" y="1484" on="1"/>
        <pt x="2334" y="1448" on="0"/>
        <pt x="2327" y="1419" on="1"/>
        <pt x="2343" y="1402" on="1"/>
        <pt x="2374" y="1418" on="0"/>
        <pt x="2388" y="1453" on="1"/>
        <pt x="2409" y="1507" on="0"/>
        <pt x="2422" y="1524" on="1"/>
        <pt x="2468" y="1524" on="1"/>
        <pt x="2468" y="1528" on="0"/>
        <pt x="2472" y="1500" on="1"/>
        <pt x="2476" y="1480" on="0"/>
        <pt x="2469" y="1470" on="1"/>
        <pt x="2495" y="1443" on="1"/>
        <pt x="2520" y="1494" on="0"/>
        <pt x="2576" y="1586" on="1"/>
        <pt x="2602" y="1560" on="0"/>
      </contour>
      <contour>
        <pt x="3061" y="280" on="1"/>
        <pt x="3061" y="103" on="0"/>
        <pt x="3017" y="66" on="1"/>
        <pt x="3008" y="66" on="0"/>
        <pt x="2974" y="88" on="0"/>
        <pt x="2972" y="102" on="1"/>
        <pt x="2867" y="935" on="0"/>
        <pt x="2867" y="990" on="1"/>
        <pt x="2867" y="1009" on="0"/>
        <pt x="2920" y="1116" on="1"/>
        <pt x="2951" y="1116" on="0"/>
        <pt x="2966" y="1093" on="1"/>
        <pt x="2994" y="898" on="0"/>
        <pt x="3024" y="704" on="1"/>
        <pt x="3061" y="439" on="0"/>
      </contour>
      <contour>
        <pt x="2154" y="979" on="1"/>
        <pt x="2154" y="936" on="0"/>
        <pt x="2100" y="872" on="0"/>
        <pt x="2067" y="872" on="1"/>
        <pt x="2015" y="872" on="0"/>
        <pt x="1960" y="925" on="1"/>
        <pt x="1960" y="958" on="0"/>
        <pt x="1976" y="1004" on="1"/>
        <pt x="1997" y="1066" on="0"/>
        <pt x="2031" y="1066" on="1"/>
        <pt x="2068" y="1066" on="0"/>
        <pt x="2154" y="1005" on="0"/>
      </contour>
      <contour>
        <pt x="2633" y="270" on="1"/>
        <pt x="2633" y="136" on="0"/>
        <pt x="2616" y="89" on="1"/>
        <pt x="2582" y="-4" on="0"/>
        <pt x="2464" y="-4" on="1"/>
        <pt x="2381" y="-4" on="0"/>
        <pt x="2293" y="61" on="0"/>
        <pt x="2220" y="179" on="1"/>
        <pt x="2182" y="95" on="0"/>
        <pt x="2047" y="41" on="1"/>
        <pt x="1933" y="-4" on="0"/>
        <pt x="1827" y="-4" on="1"/>
        <pt x="1654" y="-4" on="0"/>
        <pt x="1654" y="82" on="1"/>
        <pt x="1654" y="122" on="0"/>
        <pt x="1697" y="208" on="1"/>
        <pt x="1733" y="208" on="1"/>
        <pt x="1773" y="158" on="0"/>
        <pt x="1852" y="158" on="1"/>
        <pt x="1931" y="158" on="0"/>
        <pt x="2051" y="199" on="1"/>
        <pt x="2194" y="248" on="0"/>
        <pt x="2194" y="306" on="1"/>
        <pt x="2194" y="315" on="0"/>
        <pt x="2143" y="558" on="0"/>
        <pt x="2143" y="571" on="1"/>
        <pt x="2143" y="652" on="0"/>
        <pt x="2189" y="709" on="1"/>
        <pt x="2196" y="703" on="0"/>
        <pt x="2209" y="693" on="1"/>
        <pt x="2241" y="555" on="0"/>
        <pt x="2309" y="287" on="1"/>
        <pt x="2320" y="247" on="0"/>
        <pt x="2422" y="158" on="0"/>
        <pt x="2464" y="158" on="1"/>
        <pt x="2499" y="158" on="0"/>
        <pt x="2541" y="184" on="1"/>
        <pt x="2534" y="273" on="0"/>
        <pt x="2502" y="439" on="1"/>
        <pt x="2469" y="611" on="0"/>
        <pt x="2461" y="693" on="1"/>
        <pt x="2461" y="696" on="0"/>
        <pt x="2461" y="795" on="1"/>
        <pt x="2460" y="857" on="0"/>
        <pt x="2445" y="895" on="1"/>
        <pt x="2443" y="904" on="0"/>
        <pt x="2418" y="949" on="1"/>
        <pt x="2398" y="985" on="0"/>
        <pt x="2398" y="999" on="1"/>
        <pt x="2398" y="1040" on="0"/>
        <pt x="2472" y="1187" on="1"/>
        <pt x="2508" y="1187" on="1"/>
        <pt x="2515" y="1141" on="0"/>
        <pt x="2543" y="1063" on="1"/>
        <pt x="2550" y="1052" on="0"/>
        <pt x="2598" y="1031" on="1"/>
        <pt x="2633" y="1015" on="0"/>
        <pt x="2633" y="969" on="1"/>
        <pt x="2633" y="954" on="0"/>
        <pt x="2563" y="844" on="1"/>
        <pt x="2562" y="841" on="0"/>
        <pt x="2562" y="791" on="1"/>
        <pt x="2562" y="779" on="0"/>
        <pt x="2573" y="720" on="1"/>
        <pt x="2586" y="655" on="0"/>
        <pt x="2588" y="632" on="1"/>
        <pt x="2595" y="547" on="0"/>
        <pt x="2617" y="452" on="1"/>
        <pt x="2633" y="383" on="0"/>
      </contour>
      <contour>
        <pt x="2194" y="-132" on="1"/>
        <pt x="2194" y="-187" on="0"/>
        <pt x="2141" y="-216" on="1"/>
        <pt x="2042" y="-267" on="0"/>
        <pt x="1878" y="-336" on="1"/>
        <pt x="1720" y="-403" on="0"/>
        <pt x="1700" y="-403" on="1"/>
        <pt x="1686" y="-403" on="0"/>
        <pt x="1674" y="-390" on="0"/>
        <pt x="1665" y="-390" on="1"/>
        <pt x="1665" y="-337" on="1"/>
        <pt x="1664" y="-305" on="0"/>
        <pt x="1765" y="-253" on="1"/>
        <pt x="1835" y="-217" on="0"/>
        <pt x="1882" y="-203" on="1"/>
        <pt x="1915" y="-192" on="0"/>
        <pt x="2031" y="-145" on="1"/>
        <pt x="2125" y="-107" on="0"/>
        <pt x="2139" y="-107" on="1"/>
        <pt x="2182" y="-107" on="1"/>
        <pt x="2194" y="-108" on="0"/>
      </contour>
      <contour>
        <pt x="1439" y="184" on="1"/>
        <pt x="1439" y="19" on="0"/>
        <pt x="1141" y="-108" on="1"/>
        <pt x="904" y="-208" on="0"/>
        <pt x="766" y="-208" on="1"/>
        <pt x="645" y="-208" on="0"/>
        <pt x="534" y="-142" on="1"/>
        <pt x="399" y="-60" on="0"/>
        <pt x="399" y="71" on="1"/>
        <pt x="399" y="288" on="0"/>
        <pt x="535" y="412" on="1"/>
        <pt x="582" y="412" on="1"/>
        <pt x="582" y="366" on="1"/>
        <pt x="583" y="353" on="0"/>
        <pt x="555" y="300" on="1"/>
        <pt x="522" y="235" on="0"/>
        <pt x="514" y="213" on="1"/>
        <pt x="511" y="203" on="0"/>
        <pt x="511" y="174" on="1"/>
        <pt x="511" y="57" on="0"/>
        <pt x="621" y="-1" on="1"/>
        <pt x="705" y="-45" on="0"/>
        <pt x="812" y="-45" on="1"/>
        <pt x="888" y="-45" on="0"/>
        <pt x="1047" y="16" on="1"/>
        <pt x="1203" y="75" on="0"/>
        <pt x="1287" y="135" on="1"/>
        <pt x="1289" y="158" on="0"/>
        <pt x="1261" y="158" on="1"/>
        <pt x="1249" y="158" on="0"/>
        <pt x="1100" y="138" on="0"/>
        <pt x="1088" y="138" on="1"/>
        <pt x="1019" y="138" on="0"/>
        <pt x="963" y="178" on="1"/>
        <pt x="899" y="222" on="0"/>
        <pt x="899" y="291" on="1"/>
        <pt x="899" y="357" on="0"/>
        <pt x="940" y="458" on="1"/>
        <pt x="978" y="551" on="0"/>
        <pt x="1025" y="611" on="1"/>
        <pt x="1049" y="643" on="0"/>
        <pt x="1134" y="709" on="1"/>
        <pt x="1237" y="791" on="0"/>
        <pt x="1281" y="791" on="1"/>
        <pt x="1328" y="791" on="0"/>
        <pt x="1376" y="737" on="1"/>
        <pt x="1419" y="689" on="0"/>
        <pt x="1419" y="658" on="1"/>
        <pt x="1419" y="612" on="0"/>
        <pt x="1375" y="546" on="1"/>
        <pt x="1354" y="551" on="0"/>
        <pt x="1310" y="591" on="1"/>
        <pt x="1268" y="628" on="0"/>
        <pt x="1256" y="628" on="1"/>
        <pt x="1200" y="628" on="0"/>
        <pt x="1008" y="413" on="0"/>
        <pt x="1010" y="358" on="1"/>
        <pt x="1060" y="319" on="0"/>
        <pt x="1098" y="310" on="1"/>
        <pt x="1129" y="301" on="0"/>
        <pt x="1205" y="301" on="1"/>
        <pt x="1217" y="301" on="0"/>
        <pt x="1317" y="311" on="0"/>
        <pt x="1327" y="311" on="1"/>
        <pt x="1382" y="311" on="0"/>
        <pt x="1413" y="266" on="1"/>
        <pt x="1439" y="229" on="0"/>
      </contour>
      <contour>
        <pt x="3129" y="1447" on="1"/>
        <pt x="3129" y="1474" on="1"/>
        <pt x="3115" y="1486" on="1"/>
        <pt x="3075" y="1473" on="0"/>
        <pt x="3047" y="1418" on="1"/>
        <pt x="3092" y="1411" on="0"/>
      </contour>
    </TTGlyph>
    <TTGlyph name="uniFB53" xMin="568" yMin="-637" xMax="6677" yMax="1851">
      <contour>
        <pt x="6677" y="1588" on="1"/>
        <pt x="6671" y="1554" on="0"/>
        <pt x="6641" y="1502" on="1"/>
        <pt x="6524" y="1430" on="0"/>
        <pt x="6286" y="1276" on="1"/>
        <pt x="6252" y="1276" on="1"/>
        <pt x="6228" y="1300" on="0"/>
        <pt x="6228" y="1322" on="1"/>
        <pt x="6228" y="1364" on="0"/>
        <pt x="6415" y="1479" on="1"/>
        <pt x="6558" y="1569" on="0"/>
        <pt x="6652" y="1612" on="1"/>
      </contour>
      <contour>
        <pt x="6115" y="1524" on="1"/>
        <pt x="6082" y="1490" on="0"/>
        <pt x="5917" y="1375" on="1"/>
        <pt x="5758" y="1266" on="0"/>
        <pt x="5753" y="1266" on="1"/>
        <pt x="5688" y="1266" on="1"/>
        <pt x="5688" y="1311" on="1"/>
        <pt x="5688" y="1353" on="0"/>
        <pt x="5849" y="1453" on="1"/>
        <pt x="5954" y="1517" on="0"/>
        <pt x="6058" y="1581" on="1"/>
        <pt x="6115" y="1581" on="1"/>
      </contour>
      <contour>
        <pt x="5606" y="1511" on="1"/>
        <pt x="5606" y="1448" on="0"/>
        <pt x="5194" y="1216" on="1"/>
        <pt x="5159" y="1216" on="1"/>
        <pt x="5159" y="1220" on="0"/>
        <pt x="5147" y="1246" on="0"/>
        <pt x="5147" y="1261" on="1"/>
        <pt x="5147" y="1296" on="0"/>
        <pt x="5333" y="1417" on="1"/>
        <pt x="5441" y="1484" on="0"/>
        <pt x="5549" y="1551" on="1"/>
        <pt x="5583" y="1551" on="1"/>
        <pt x="5606" y="1527" on="0"/>
      </contour>
      <contour>
        <pt x="5596" y="1514" on="1"/>
        <pt x="5596" y="1452" on="0"/>
        <pt x="5184" y="1219" on="1"/>
        <pt x="5148" y="1219" on="1"/>
        <pt x="5148" y="1223" on="0"/>
        <pt x="5137" y="1249" on="0"/>
        <pt x="5137" y="1264" on="1"/>
        <pt x="5137" y="1300" on="0"/>
        <pt x="5323" y="1420" on="1"/>
        <pt x="5431" y="1488" on="0"/>
        <pt x="5538" y="1554" on="1"/>
        <pt x="5572" y="1554" on="1"/>
        <pt x="5596" y="1531" on="0"/>
      </contour>
      <contour>
        <pt x="6126" y="771" on="1"/>
        <pt x="6126" y="745" on="0"/>
        <pt x="6061" y="674" on="0"/>
        <pt x="6039" y="674" on="1"/>
        <pt x="6025" y="674" on="0"/>
        <pt x="5953" y="705" on="0"/>
        <pt x="5943" y="705" on="1"/>
        <pt x="5930" y="705" on="0"/>
        <pt x="5853" y="644" on="0"/>
        <pt x="5840" y="644" on="1"/>
        <pt x="5795" y="644" on="0"/>
        <pt x="5728" y="708" on="1"/>
        <pt x="5744" y="745" on="0"/>
        <pt x="5758" y="783" on="1"/>
        <pt x="5779" y="827" on="0"/>
        <pt x="5826" y="827" on="1"/>
        <pt x="5837" y="827" on="0"/>
        <pt x="5895" y="807" on="0"/>
        <pt x="5907" y="807" on="1"/>
        <pt x="5920" y="807" on="0"/>
        <pt x="5991" y="878" on="0"/>
        <pt x="6004" y="878" on="1"/>
        <pt x="6035" y="878" on="0"/>
        <pt x="6126" y="797" on="0"/>
      </contour>
      <contour>
        <pt x="4994" y="1793" on="1"/>
        <pt x="4994" y="1734" on="0"/>
        <pt x="4695" y="1612" on="1"/>
        <pt x="4615" y="1580" on="0"/>
        <pt x="4501" y="1504" on="1"/>
        <pt x="4457" y="1504" on="1"/>
        <pt x="4444" y="1517" on="0"/>
        <pt x="4444" y="1539" on="1"/>
        <pt x="4444" y="1597" on="0"/>
        <pt x="4487" y="1622" on="1"/>
        <pt x="4594" y="1684" on="0"/>
        <pt x="4766" y="1768" on="1"/>
        <pt x="4934" y="1851" on="0"/>
        <pt x="4953" y="1851" on="1"/>
        <pt x="4970" y="1851" on="0"/>
        <pt x="4994" y="1827" on="1"/>
      </contour>
      <contour>
        <pt x="6656" y="-233" on="1"/>
        <pt x="6656" y="-276" on="0"/>
        <pt x="6625" y="-307" on="1"/>
        <pt x="6596" y="-335" on="0"/>
        <pt x="6565" y="-335" on="1"/>
        <pt x="6554" y="-335" on="0"/>
        <pt x="6483" y="-304" on="0"/>
        <pt x="6468" y="-304" on="1"/>
        <pt x="6455" y="-304" on="0"/>
        <pt x="6379" y="-366" on="0"/>
        <pt x="6365" y="-366" on="1"/>
        <pt x="6351" y="-366" on="0"/>
        <pt x="6249" y="-293" on="1"/>
        <pt x="6251" y="-273" on="0"/>
        <pt x="6284" y="-222" on="1"/>
        <pt x="6322" y="-162" on="0"/>
        <pt x="6351" y="-162" on="1"/>
        <pt x="6361" y="-162" on="0"/>
        <pt x="6429" y="-203" on="0"/>
        <pt x="6447" y="-203" on="1"/>
        <pt x="6461" y="-203" on="0"/>
        <pt x="6532" y="-131" on="0"/>
        <pt x="6544" y="-131" on="1"/>
        <pt x="6569" y="-131" on="0"/>
        <pt x="6614" y="-174" on="1"/>
        <pt x="6656" y="-216" on="0"/>
      </contour>
      <contour>
        <pt x="4892" y="1406" on="1"/>
        <pt x="4892" y="1388" on="0"/>
        <pt x="4818" y="1292" on="0"/>
        <pt x="4756" y="1252" on="0"/>
        <pt x="4692" y="1229" on="1"/>
        <pt x="4632" y="1208" on="0"/>
        <pt x="4612" y="1208" on="1"/>
        <pt x="4581" y="1208" on="0"/>
        <pt x="4546" y="1240" on="1"/>
        <pt x="4546" y="1367" on="0"/>
        <pt x="4601" y="1422" on="1"/>
        <pt x="4619" y="1410" on="0"/>
        <pt x="4631" y="1385" on="1"/>
        <pt x="4652" y="1344" on="0"/>
        <pt x="4654" y="1340" on="1"/>
        <pt x="4678" y="1347" on="0"/>
        <pt x="4696" y="1393" on="1"/>
        <pt x="4708" y="1427" on="0"/>
        <pt x="4721" y="1461" on="1"/>
        <pt x="4768" y="1461" on="1"/>
        <pt x="4768" y="1448" on="0"/>
        <pt x="4788" y="1401" on="1"/>
        <pt x="4818" y="1402" on="0"/>
        <pt x="4825" y="1442" on="1"/>
        <pt x="4834" y="1490" on="0"/>
        <pt x="4855" y="1502" on="1"/>
        <pt x="4892" y="1502" on="1"/>
      </contour>
      <contour>
        <pt x="6486" y="209" on="1"/>
        <pt x="6470" y="125" on="0"/>
        <pt x="6440" y="106" on="1"/>
        <pt x="6387" y="73" on="0"/>
        <pt x="6274" y="73" on="1"/>
        <pt x="6226" y="73" on="0"/>
        <pt x="6070" y="154" on="0"/>
        <pt x="6075" y="154" on="1"/>
        <pt x="6066" y="154" on="0"/>
        <pt x="6015" y="123" on="1"/>
        <pt x="5954" y="86" on="0"/>
        <pt x="5930" y="75" on="1"/>
        <pt x="5860" y="68" on="0"/>
        <pt x="5736" y="29" on="1"/>
        <pt x="5717" y="17" on="0"/>
        <pt x="5690" y="-40" on="1"/>
        <pt x="5656" y="-117" on="0"/>
        <pt x="5642" y="-139" on="1"/>
        <pt x="5577" y="-236" on="0"/>
        <pt x="5502" y="-301" on="1"/>
        <pt x="5481" y="-319" on="0"/>
        <pt x="5431" y="-362" on="1"/>
        <pt x="5378" y="-407" on="0"/>
        <pt x="5269" y="-407" on="1"/>
        <pt x="5184" y="-407" on="1"/>
        <pt x="5169" y="-407" on="0"/>
        <pt x="5074" y="-380" on="1"/>
        <pt x="4972" y="-353" on="0"/>
        <pt x="4953" y="-341" on="1"/>
        <pt x="4983" y="-294" on="0"/>
        <pt x="5024" y="-294" on="1"/>
        <pt x="5036" y="-294" on="0"/>
        <pt x="5098" y="-304" on="0"/>
        <pt x="5111" y="-304" on="1"/>
        <pt x="5231" y="-304" on="0"/>
        <pt x="5373" y="-219" on="1"/>
        <pt x="5527" y="-128" on="0"/>
        <pt x="5606" y="6" on="1"/>
        <pt x="5592" y="21" on="0"/>
        <pt x="5535" y="21" on="1"/>
        <pt x="5453" y="21" on="0"/>
        <pt x="5399" y="61" on="1"/>
        <pt x="5341" y="105" on="0"/>
        <pt x="5341" y="179" on="1"/>
        <pt x="5341" y="257" on="0"/>
        <pt x="5398" y="342" on="1"/>
        <pt x="5458" y="429" on="0"/>
        <pt x="5519" y="429" on="1"/>
        <pt x="5600" y="429" on="0"/>
        <pt x="5697" y="195" on="0"/>
        <pt x="5744" y="195" on="1"/>
        <pt x="5840" y="195" on="0"/>
        <pt x="6097" y="317" on="0"/>
        <pt x="6096" y="317" on="1"/>
        <pt x="6107" y="317" on="0"/>
        <pt x="6281" y="236" on="0"/>
        <pt x="6294" y="236" on="1"/>
        <pt x="6306" y="236" on="0"/>
        <pt x="6356" y="245" on="0"/>
        <pt x="6374" y="246" on="1"/>
        <pt x="6380" y="253" on="0"/>
        <pt x="6380" y="266" on="1"/>
        <pt x="6380" y="285" on="0"/>
        <pt x="6351" y="364" on="0"/>
        <pt x="6351" y="374" on="1"/>
        <pt x="6351" y="428" on="0"/>
        <pt x="6384" y="480" on="1"/>
        <pt x="6420" y="480" on="1"/>
        <pt x="6440" y="453" on="0"/>
        <pt x="6469" y="396" on="1"/>
        <pt x="6499" y="281" on="0"/>
      </contour>
      <contour>
        <pt x="4811" y="938" on="1"/>
        <pt x="4811" y="901" on="0"/>
        <pt x="4777" y="870" on="1"/>
        <pt x="4747" y="840" on="0"/>
        <pt x="4719" y="840" on="1"/>
        <pt x="4707" y="840" on="0"/>
        <pt x="4607" y="904" on="1"/>
        <pt x="4607" y="939" on="0"/>
        <pt x="4634" y="987" on="1"/>
        <pt x="4664" y="1044" on="0"/>
        <pt x="4703" y="1044" on="1"/>
        <pt x="4736" y="1044" on="0"/>
        <pt x="4775" y="1004" on="1"/>
        <pt x="4811" y="964" on="0"/>
      </contour>
      <contour>
        <pt x="4096" y="586" on="1"/>
        <pt x="4096" y="560" on="0"/>
        <pt x="4056" y="425" on="0"/>
        <pt x="4042" y="414" on="1"/>
        <pt x="4006" y="414" on="1"/>
        <pt x="4005" y="478" on="0"/>
        <pt x="3981" y="609" on="1"/>
        <pt x="3973" y="632" on="0"/>
        <pt x="3926" y="695" on="1"/>
        <pt x="3882" y="754" on="0"/>
        <pt x="3882" y="764" on="1"/>
        <pt x="3882" y="780" on="0"/>
        <pt x="3901" y="809" on="1"/>
        <pt x="3923" y="840" on="0"/>
        <pt x="3944" y="840" on="1"/>
        <pt x="4016" y="840" on="0"/>
        <pt x="4064" y="716" on="1"/>
        <pt x="4096" y="628" on="0"/>
      </contour>
      <contour>
        <pt x="5065" y="310" on="1"/>
        <pt x="5065" y="192" on="0"/>
        <pt x="4999" y="131" on="1"/>
        <pt x="4948" y="84" on="0"/>
        <pt x="4837" y="72" on="1"/>
        <pt x="4811" y="61" on="0"/>
        <pt x="4766" y="48" on="1"/>
        <pt x="4662" y="35" on="0"/>
        <pt x="4576" y="35" on="1"/>
        <pt x="4485" y="35" on="0"/>
        <pt x="4417" y="48" on="1"/>
        <pt x="4389" y="53" on="0"/>
        <pt x="4331" y="91" on="1"/>
        <pt x="4277" y="127" on="0"/>
        <pt x="4265" y="127" on="1"/>
        <pt x="4255" y="127" on="0"/>
        <pt x="4219" y="91" on="1"/>
        <pt x="4181" y="52" on="0"/>
        <pt x="4164" y="48" on="1"/>
        <pt x="3958" y="-5" on="0"/>
        <pt x="3801" y="-5" on="1"/>
        <pt x="3646" y="-5" on="0"/>
        <pt x="3588" y="49" on="1"/>
        <pt x="3519" y="114" on="0"/>
        <pt x="3517" y="301" on="1"/>
        <pt x="2909" y="206" on="0"/>
        <pt x="2073" y="147" on="1"/>
        <pt x="1925" y="137" on="0"/>
        <pt x="1644" y="137" on="1"/>
        <pt x="1540" y="137" on="0"/>
        <pt x="1167" y="179" on="1"/>
        <pt x="1150" y="111" on="0"/>
        <pt x="1135" y="43" on="1"/>
        <pt x="1109" y="-56" on="0"/>
        <pt x="1068" y="-56" on="1"/>
        <pt x="1013" y="-56" on="0"/>
        <pt x="954" y="13" on="1"/>
        <pt x="900" y="76" on="0"/>
        <pt x="896" y="121" on="1"/>
        <pt x="896" y="140" on="0"/>
        <pt x="900" y="186" on="1"/>
        <pt x="905" y="236" on="0"/>
        <pt x="905" y="252" on="1"/>
        <pt x="897" y="260" on="0"/>
        <pt x="869" y="260" on="1"/>
        <pt x="819" y="260" on="0"/>
        <pt x="749" y="224" on="1"/>
        <pt x="670" y="184" on="0"/>
        <pt x="670" y="143" on="1"/>
        <pt x="731" y="-484" on="1"/>
        <pt x="731" y="-569" on="0"/>
        <pt x="687" y="-637" on="1"/>
        <pt x="647" y="-628" on="0"/>
        <pt x="637" y="-545" on="1"/>
        <pt x="631" y="-477" on="0"/>
        <pt x="625" y="-409" on="1"/>
        <pt x="607" y="-303" on="0"/>
        <pt x="586" y="-105" on="1"/>
        <pt x="568" y="68" on="0"/>
        <pt x="568" y="97" on="1"/>
        <pt x="568" y="211" on="0"/>
        <pt x="652" y="306" on="1"/>
        <pt x="742" y="407" on="0"/>
        <pt x="878" y="425" on="1"/>
        <pt x="891" y="427" on="0"/>
        <pt x="923" y="451" on="1"/>
        <pt x="952" y="473" on="0"/>
        <pt x="965" y="473" on="1"/>
        <pt x="977" y="473" on="0"/>
        <pt x="1017" y="437" on="1"/>
        <pt x="1063" y="394" on="0"/>
        <pt x="1085" y="384" on="1"/>
        <pt x="1131" y="363" on="0"/>
        <pt x="1236" y="338" on="1"/>
        <pt x="1346" y="310" on="0"/>
        <pt x="1399" y="310" on="1"/>
        <pt x="1412" y="310" on="0"/>
        <pt x="1891" y="301" on="0"/>
        <pt x="1904" y="301" on="1"/>
        <pt x="3076" y="392" on="1"/>
        <pt x="3641" y="473" on="1"/>
        <pt x="3658" y="491" on="1"/>
        <pt x="3638" y="537" on="0"/>
        <pt x="3541" y="569" on="1"/>
        <pt x="3460" y="596" on="0"/>
        <pt x="3388" y="596" on="1"/>
        <pt x="3380" y="596" on="0"/>
        <pt x="3040" y="555" on="1"/>
        <pt x="2648" y="507" on="0"/>
        <pt x="2450" y="487" on="1"/>
        <pt x="2229" y="464" on="0"/>
        <pt x="1960" y="464" on="1"/>
        <pt x="1770" y="464" on="0"/>
        <pt x="1704" y="471" on="1"/>
        <pt x="1549" y="488" on="0"/>
        <pt x="1436" y="557" on="1"/>
        <pt x="1447" y="788" on="0"/>
        <pt x="1750" y="991" on="1"/>
        <pt x="1984" y="1149" on="0"/>
        <pt x="2278" y="1228" on="1"/>
        <pt x="2301" y="1204" on="0"/>
        <pt x="2301" y="1193" on="1"/>
        <pt x="2301" y="1173" on="0"/>
        <pt x="2283" y="1135" on="1"/>
        <pt x="2261" y="1094" on="0"/>
        <pt x="2238" y="1079" on="1"/>
        <pt x="2196" y="1067" on="0"/>
        <pt x="2115" y="1041" on="1"/>
        <pt x="1981" y="997" on="0"/>
        <pt x="1829" y="911" on="1"/>
        <pt x="1627" y="797" on="0"/>
        <pt x="1567" y="694" on="1"/>
        <pt x="1657" y="616" on="0"/>
        <pt x="2038" y="616" on="1"/>
        <pt x="2251" y="616" on="1"/>
        <pt x="3505" y="749" on="1"/>
        <pt x="3569" y="749" on="0"/>
        <pt x="3657" y="710" on="1"/>
        <pt x="3743" y="673" on="0"/>
        <pt x="3775" y="635" on="1"/>
        <pt x="3811" y="592" on="0"/>
        <pt x="3811" y="510" on="1"/>
        <pt x="3811" y="485" on="0"/>
        <pt x="3780" y="420" on="1"/>
        <pt x="3746" y="349" on="0"/>
        <pt x="3716" y="334" on="1"/>
        <pt x="3701" y="326" on="0"/>
        <pt x="3655" y="317" on="1"/>
        <pt x="3628" y="297" on="0"/>
        <pt x="3628" y="265" on="1"/>
        <pt x="3628" y="157" on="0"/>
        <pt x="3842" y="157" on="1"/>
        <pt x="3855" y="157" on="0"/>
        <pt x="4033" y="168" on="0"/>
        <pt x="4056" y="168" on="0"/>
        <pt x="4131" y="190" on="1"/>
        <pt x="4215" y="215" on="0"/>
        <pt x="4242" y="220" on="1"/>
        <pt x="4265" y="257" on="0"/>
        <pt x="4317" y="310" on="1"/>
        <pt x="4415" y="232" on="0"/>
        <pt x="4486" y="215" on="1"/>
        <pt x="4514" y="209" on="0"/>
        <pt x="4627" y="209" on="1"/>
        <pt x="4846" y="209" on="0"/>
        <pt x="4974" y="278" on="1"/>
        <pt x="4974" y="304" on="1"/>
        <pt x="4947" y="331" on="1"/>
        <pt x="4938" y="327" on="0"/>
        <pt x="4870" y="288" on="1"/>
        <pt x="4819" y="260" on="0"/>
        <pt x="4806" y="260" on="1"/>
        <pt x="4758" y="260" on="0"/>
        <pt x="4712" y="321" on="1"/>
        <pt x="4668" y="378" on="0"/>
        <pt x="4668" y="423" on="1"/>
        <pt x="4668" y="497" on="0"/>
        <pt x="4707" y="575" on="1"/>
        <pt x="4759" y="677" on="0"/>
        <pt x="4846" y="677" on="1"/>
        <pt x="4901" y="677" on="0"/>
        <pt x="4979" y="557" on="1"/>
        <pt x="5042" y="460" on="0"/>
        <pt x="5051" y="419" on="1"/>
        <pt x="5065" y="359" on="0"/>
      </contour>
      <contour>
        <pt x="1821" y="1391" on="1"/>
        <pt x="1821" y="1348" on="0"/>
        <pt x="1800" y="1290" on="1"/>
        <pt x="1747" y="1290" on="1"/>
        <pt x="1737" y="1290" on="0"/>
        <pt x="1676" y="1321" on="1"/>
        <pt x="1617" y="1235" on="0"/>
        <pt x="1562" y="1191" on="1"/>
        <pt x="1376" y="1044" on="0"/>
        <pt x="1327" y="1045" on="1"/>
        <pt x="1285" y="1045" on="1"/>
        <pt x="1261" y="1070" on="1"/>
        <pt x="1288" y="1130" on="0"/>
        <pt x="1404" y="1206" on="1"/>
        <pt x="1538" y="1293" on="0"/>
        <pt x="1588" y="1357" on="1"/>
        <pt x="1558" y="1385" on="0"/>
        <pt x="1509" y="1446" on="1"/>
        <pt x="1506" y="1457" on="0"/>
        <pt x="1506" y="1488" on="1"/>
        <pt x="1506" y="1538" on="0"/>
        <pt x="1549" y="1602" on="1"/>
        <pt x="1601" y="1679" on="0"/>
        <pt x="1672" y="1679" on="1"/>
        <pt x="1685" y="1679" on="0"/>
        <pt x="1698" y="1676" on="1"/>
        <pt x="1742" y="1627" on="0"/>
        <pt x="1742" y="1554" on="1"/>
        <pt x="1742" y="1543" on="0"/>
        <pt x="1739" y="1499" on="0"/>
        <pt x="1739" y="1490" on="1"/>
        <pt x="1739" y="1415" on="0"/>
      </contour>
      <contour>
        <pt x="5544" y="206" on="1"/>
        <pt x="5533" y="231" on="0"/>
        <pt x="5511" y="265" on="1"/>
        <pt x="5476" y="265" on="1"/>
        <pt x="5464" y="236" on="1"/>
        <pt x="5464" y="220" on="0"/>
        <pt x="5479" y="211" on="0"/>
        <pt x="5486" y="206" on="1"/>
      </contour>
      <contour>
        <pt x="4872" y="458" on="1"/>
        <pt x="4857" y="487" on="0"/>
        <pt x="4804" y="514" on="1"/>
        <pt x="4790" y="511" on="0"/>
        <pt x="4790" y="487" on="1"/>
        <pt x="4790" y="465" on="1"/>
        <pt x="4808" y="454" on="0"/>
        <pt x="4836" y="433" on="1"/>
        <pt x="4849" y="440" on="0"/>
      </contour>
      <contour>
        <pt x="1652" y="1512" on="1"/>
        <pt x="1627" y="1537" on="1"/>
        <pt x="1616" y="1527" on="1"/>
        <pt x="1641" y="1502" on="1"/>
      </contour>
    </TTGlyph>
    <TTGlyph name="uniFB54" xMin="462" yMin="-702" xMax="3297" yMax="1807">
      <contour>
        <pt x="2920" y="1449" on="1"/>
        <pt x="2920" y="1439" on="0"/>
        <pt x="2920" y="1430" on="1"/>
        <pt x="2920" y="1334" on="0"/>
        <pt x="2852" y="1256" on="1"/>
        <pt x="2783" y="1175" on="0"/>
        <pt x="2691" y="1175" on="1"/>
        <pt x="2680" y="1175" on="0"/>
        <pt x="2626" y="1185" on="0"/>
        <pt x="2614" y="1185" on="1"/>
        <pt x="2602" y="1185" on="0"/>
        <pt x="2567" y="1163" on="1"/>
        <pt x="2528" y="1138" on="0"/>
        <pt x="2517" y="1135" on="1"/>
        <pt x="2508" y="1140" on="0"/>
        <pt x="2492" y="1149" on="0"/>
        <pt x="2492" y="1165" on="1"/>
        <pt x="2492" y="1208" on="0"/>
        <pt x="2547" y="1275" on="1"/>
        <pt x="2584" y="1293" on="0"/>
        <pt x="2647" y="1330" on="1"/>
        <pt x="2653" y="1334" on="0"/>
        <pt x="2761" y="1466" on="1"/>
        <pt x="2791" y="1502" on="0"/>
        <pt x="2829" y="1502" on="1"/>
        <pt x="2865" y="1502" on="0"/>
      </contour>
      <contour>
        <pt x="2359" y="1729" on="1"/>
        <pt x="2289" y="1674" on="0"/>
        <pt x="1950" y="1484" on="0"/>
        <pt x="1866" y="1420" on="1"/>
        <pt x="1822" y="1420" on="1"/>
        <pt x="1809" y="1434" on="0"/>
        <pt x="1809" y="1461" on="1"/>
        <pt x="1809" y="1511" on="0"/>
        <pt x="1824" y="1521" on="1"/>
        <pt x="1923" y="1592" on="0"/>
        <pt x="2081" y="1673" on="1"/>
        <pt x="2213" y="1740" on="0"/>
        <pt x="2346" y="1807" on="1"/>
      </contour>
      <contour>
        <pt x="3175" y="232" on="1"/>
        <pt x="3175" y="194" on="0"/>
        <pt x="3156" y="128" on="1"/>
        <pt x="3131" y="45" on="0"/>
        <pt x="3097" y="26" on="1"/>
        <pt x="3056" y="2" on="0"/>
        <pt x="2988" y="-11" on="1"/>
        <pt x="2853" y="-38" on="0"/>
        <pt x="2829" y="-38" on="1"/>
        <pt x="2805" y="-38" on="0"/>
        <pt x="2759" y="-13" on="1"/>
        <pt x="2707" y="16" on="0"/>
        <pt x="2698" y="47" on="1"/>
        <pt x="2671" y="156" on="0"/>
        <pt x="2659" y="321" on="1"/>
        <pt x="2650" y="460" on="0"/>
        <pt x="2641" y="598" on="1"/>
        <pt x="2636" y="648" on="0"/>
        <pt x="2609" y="812" on="1"/>
        <pt x="2584" y="965" on="0"/>
        <pt x="2584" y="976" on="1"/>
        <pt x="2584" y="1006" on="0"/>
        <pt x="2627" y="1093" on="1"/>
        <pt x="2674" y="1086" on="0"/>
        <pt x="2698" y="916" on="1"/>
        <pt x="2716" y="674" on="0"/>
        <pt x="2780" y="192" on="1"/>
        <pt x="2786" y="161" on="0"/>
        <pt x="2856" y="137" on="1"/>
        <pt x="2862" y="135" on="0"/>
        <pt x="2910" y="135" on="1"/>
        <pt x="3009" y="135" on="0"/>
        <pt x="3063" y="172" on="1"/>
        <pt x="3042" y="208" on="0"/>
        <pt x="3002" y="261" on="1"/>
        <pt x="2982" y="286" on="0"/>
        <pt x="2982" y="319" on="1"/>
        <pt x="2982" y="365" on="0"/>
        <pt x="3025" y="430" on="1"/>
        <pt x="3059" y="424" on="0"/>
        <pt x="3175" y="270" on="0"/>
      </contour>
      <contour>
        <pt x="2277" y="1399" on="1"/>
        <pt x="2277" y="1327" on="0"/>
        <pt x="2227" y="1231" on="0"/>
        <pt x="2118" y="1174" on="1"/>
        <pt x="2023" y="1124" on="0"/>
        <pt x="1997" y="1124" on="1"/>
        <pt x="1966" y="1124" on="0"/>
        <pt x="1922" y="1166" on="1"/>
        <pt x="1919" y="1175" on="0"/>
        <pt x="1919" y="1188" on="1"/>
        <pt x="1919" y="1288" on="0"/>
        <pt x="1998" y="1339" on="1"/>
        <pt x="2006" y="1330" on="0"/>
        <pt x="2016" y="1295" on="1"/>
        <pt x="2024" y="1267" on="0"/>
        <pt x="2038" y="1267" on="1"/>
        <pt x="2053" y="1267" on="0"/>
        <pt x="2070" y="1294" on="1"/>
        <pt x="2073" y="1321" on="0"/>
        <pt x="2117" y="1408" on="1"/>
        <pt x="2154" y="1408" on="1"/>
        <pt x="2154" y="1381" on="0"/>
        <pt x="2172" y="1328" on="1"/>
        <pt x="2191" y="1347" on="0"/>
        <pt x="2204" y="1386" on="1"/>
        <pt x="2217" y="1423" on="0"/>
        <pt x="2229" y="1460" on="1"/>
        <pt x="2265" y="1460" on="1"/>
        <pt x="2277" y="1435" on="0"/>
      </contour>
      <contour>
        <pt x="3112" y="-171" on="1"/>
        <pt x="3116" y="-177" on="0"/>
        <pt x="3116" y="-189" on="1"/>
        <pt x="3116" y="-226" on="0"/>
        <pt x="3091" y="-273" on="1"/>
        <pt x="3064" y="-324" on="0"/>
        <pt x="3038" y="-324" on="1"/>
        <pt x="3007" y="-324" on="0"/>
        <pt x="2900" y="-252" on="0"/>
        <pt x="2900" y="-232" on="1"/>
        <pt x="2900" y="-213" on="0"/>
        <pt x="2933" y="-163" on="1"/>
        <pt x="2968" y="-109" on="0"/>
        <pt x="2992" y="-109" on="1"/>
        <pt x="3006" y="-109" on="0"/>
        <pt x="3047" y="-133" on="1"/>
        <pt x="3102" y="-166" on="0"/>
      </contour>
      <contour>
        <pt x="3297" y="-416" on="1"/>
        <pt x="3297" y="-469" on="0"/>
        <pt x="3264" y="-484" on="1"/>
        <pt x="2875" y="-661" on="0"/>
        <pt x="2832" y="-660" on="1"/>
        <pt x="2790" y="-660" on="1"/>
        <pt x="2778" y="-658" on="0"/>
        <pt x="2778" y="-634" on="1"/>
        <pt x="2778" y="-557" on="0"/>
        <pt x="2955" y="-505" on="1"/>
        <pt x="3051" y="-460" on="0"/>
        <pt x="3251" y="-385" on="1"/>
        <pt x="3285" y="-385" on="1"/>
        <pt x="3297" y="-398" on="0"/>
      </contour>
      <contour>
        <pt x="1890" y="836" on="1"/>
        <pt x="1885" y="775" on="0"/>
        <pt x="1818" y="732" on="1"/>
        <pt x="1756" y="694" on="0"/>
        <pt x="1692" y="655" on="1"/>
        <pt x="1544" y="668" on="1"/>
        <pt x="1562" y="691" on="0"/>
        <pt x="1666" y="763" on="1"/>
        <pt x="1651" y="777" on="0"/>
        <pt x="1630" y="777" on="1"/>
        <pt x="1618" y="777" on="0"/>
        <pt x="1567" y="756" on="1"/>
        <pt x="1511" y="732" on="0"/>
        <pt x="1493" y="727" on="1"/>
        <pt x="1493" y="761" on="1"/>
        <pt x="1493" y="798" on="0"/>
        <pt x="1567" y="850" on="1"/>
        <pt x="1637" y="899" on="0"/>
        <pt x="1671" y="899" on="1"/>
        <pt x="1705" y="899" on="0"/>
        <pt x="1856" y="865" on="1"/>
        <pt x="1866" y="859" on="0"/>
      </contour>
      <contour>
        <pt x="2298" y="262" on="1"/>
        <pt x="2281" y="104" on="0"/>
        <pt x="2218" y="48" on="1"/>
        <pt x="2167" y="2" on="0"/>
        <pt x="2052" y="2" on="1"/>
        <pt x="1973" y="2" on="1"/>
        <pt x="1960" y="2" on="0"/>
        <pt x="1837" y="74" on="0"/>
        <pt x="1824" y="74" on="1"/>
        <pt x="1810" y="74" on="0"/>
        <pt x="1794" y="59" on="1"/>
        <pt x="1770" y="39" on="0"/>
        <pt x="1765" y="36" on="1"/>
        <pt x="1719" y="11" on="0"/>
        <pt x="1631" y="-15" on="1"/>
        <pt x="1552" y="-38" on="0"/>
        <pt x="1528" y="-38" on="1"/>
        <pt x="1486" y="-38" on="0"/>
        <pt x="1414" y="-14" on="1"/>
        <pt x="1325" y="14" on="0"/>
        <pt x="1293" y="53" on="1"/>
        <pt x="1273" y="35" on="0"/>
        <pt x="1265" y="-61" on="1"/>
        <pt x="1257" y="-164" on="0"/>
        <pt x="1222" y="-209" on="1"/>
        <pt x="1150" y="-306" on="0"/>
        <pt x="1010" y="-356" on="1"/>
        <pt x="900" y="-395" on="0"/>
        <pt x="789" y="-395" on="1"/>
        <pt x="646" y="-395" on="0"/>
        <pt x="557" y="-321" on="1"/>
        <pt x="462" y="-242" on="0"/>
        <pt x="462" y="-104" on="1"/>
        <pt x="462" y="-32" on="0"/>
        <pt x="542" y="150" on="0"/>
        <pt x="598" y="206" on="1"/>
        <pt x="636" y="206" on="0"/>
        <pt x="636" y="181" on="1"/>
        <pt x="636" y="168" on="0"/>
        <pt x="564" y="-10" on="0"/>
        <pt x="564" y="-22" on="1"/>
        <pt x="564" y="-135" on="0"/>
        <pt x="674" y="-191" on="1"/>
        <pt x="754" y="-232" on="0"/>
        <pt x="850" y="-232" on="1"/>
        <pt x="929" y="-232" on="0"/>
        <pt x="1034" y="-190" on="1"/>
        <pt x="1148" y="-144" on="0"/>
        <pt x="1173" y="-92" on="1"/>
        <pt x="1176" y="-85" on="0"/>
        <pt x="1176" y="-28" on="1"/>
        <pt x="1085" y="956" on="1"/>
        <pt x="1085" y="1021" on="0"/>
        <pt x="1139" y="1093" on="1"/>
        <pt x="1146" y="1093" on="0"/>
        <pt x="1164" y="1089" on="1"/>
        <pt x="1171" y="1080" on="0"/>
        <pt x="1189" y="977" on="1"/>
        <pt x="1207" y="839" on="0"/>
        <pt x="1250" y="559" on="1"/>
        <pt x="1266" y="464" on="0"/>
        <pt x="1280" y="406" on="1"/>
        <pt x="1299" y="333" on="0"/>
        <pt x="1307" y="312" on="1"/>
        <pt x="1327" y="251" on="0"/>
        <pt x="1361" y="204" on="1"/>
        <pt x="1390" y="164" on="0"/>
        <pt x="1499" y="138" on="1"/>
        <pt x="1509" y="135" on="0"/>
        <pt x="1564" y="135" on="1"/>
        <pt x="1656" y="135" on="0"/>
        <pt x="1710" y="157" on="1"/>
        <pt x="1751" y="175" on="0"/>
        <pt x="1793" y="212" on="1"/>
        <pt x="1821" y="237" on="0"/>
        <pt x="1860" y="237" on="1"/>
        <pt x="1873" y="237" on="0"/>
        <pt x="2077" y="155" on="0"/>
        <pt x="2089" y="155" on="1"/>
        <pt x="2118" y="155" on="0"/>
        <pt x="2197" y="192" on="1"/>
        <pt x="2143" y="554" on="0"/>
        <pt x="2111" y="833" on="1"/>
        <pt x="2109" y="845" on="0"/>
        <pt x="2073" y="932" on="0"/>
        <pt x="2073" y="945" on="1"/>
        <pt x="2073" y="1012" on="0"/>
        <pt x="2148" y="1123" on="1"/>
        <pt x="2185" y="1123" on="1"/>
        <pt x="2178" y="990" on="0"/>
        <pt x="2286" y="951" on="1"/>
        <pt x="2290" y="943" on="0"/>
        <pt x="2290" y="932" on="1"/>
        <pt x="2290" y="904" on="0"/>
        <pt x="2258" y="848" on="1"/>
        <pt x="2219" y="781" on="0"/>
        <pt x="2217" y="772" on="1"/>
      </contour>
      <contour>
        <pt x="2094" y="-283" on="1"/>
        <pt x="2094" y="-322" on="0"/>
        <pt x="2041" y="-357" on="1"/>
        <pt x="1998" y="-385" on="0"/>
        <pt x="1982" y="-385" on="1"/>
        <pt x="1968" y="-385" on="0"/>
        <pt x="1876" y="-324" on="1"/>
        <pt x="1853" y="-352" on="0"/>
        <pt x="1830" y="-380" on="1"/>
        <pt x="1804" y="-405" on="0"/>
        <pt x="1768" y="-405" on="1"/>
        <pt x="1741" y="-405" on="0"/>
        <pt x="1644" y="-345" on="0"/>
        <pt x="1635" y="-319" on="1"/>
        <pt x="1646" y="-281" on="0"/>
        <pt x="1686" y="-245" on="1"/>
        <pt x="1724" y="-212" on="0"/>
        <pt x="1747" y="-212" on="1"/>
        <pt x="1762" y="-212" on="0"/>
        <pt x="1864" y="-262" on="1"/>
        <pt x="1887" y="-234" on="0"/>
        <pt x="1910" y="-206" on="1"/>
        <pt x="1932" y="-181" on="0"/>
        <pt x="1962" y="-181" on="1"/>
        <pt x="1987" y="-181" on="0"/>
        <pt x="2094" y="-261" on="0"/>
      </contour>
      <contour>
        <pt x="1411" y="-405" on="1"/>
        <pt x="1411" y="-458" on="0"/>
        <pt x="1347" y="-493" on="1"/>
        <pt x="973" y="-702" on="0"/>
        <pt x="935" y="-700" on="1"/>
        <pt x="881" y="-700" on="1"/>
        <pt x="881" y="-697" on="0"/>
        <pt x="870" y="-685" on="0"/>
        <pt x="870" y="-670" on="1"/>
        <pt x="870" y="-626" on="0"/>
        <pt x="913" y="-584" on="1"/>
        <pt x="940" y="-574" on="0"/>
        <pt x="985" y="-556" on="1"/>
        <pt x="1080" y="-516" on="0"/>
        <pt x="1364" y="-376" on="1"/>
        <pt x="1399" y="-376" on="1"/>
        <pt x="1399" y="-380" on="0"/>
        <pt x="1411" y="-390" on="0"/>
      </contour>
      <contour>
        <pt x="2818" y="1353" on="1"/>
        <pt x="2809" y="1363" on="0"/>
        <pt x="2793" y="1369" on="1"/>
        <pt x="2738" y="1342" on="0"/>
        <pt x="2738" y="1309" on="1"/>
        <pt x="2775" y="1309" on="1"/>
        <pt x="2791" y="1326" on="0"/>
      </contour>
    </TTGlyph>
</ttFont>
